<?xml version="1.0" standalone="no"?>
<!DOCTYPE svg PUBLIC "-//W3C//DTD SVG 20010904//EN"
        "http://www.w3.org/TR/2001/REC-SVG-20010904/DTD/svg10.dtd">
<svg version="1.0" xmlns="http://www.w3.org/2000/svg"
     width="700.000000pt" height="700.000000pt" viewBox="0 0 700.000000 700.000000"
     preserveAspectRatio="xMidYMid meet">
    <g transform="translate(0.000000,700.000000) scale(0.100000,-0.100000)"
       fill="#000000" stroke="none">
        <path d="M0 3569 l0 -3430 58 44 c31 24 192 144 357 267 574 427 1122 835
1155 859 14 11 77 58 140 105 63 47 184 136 267 198 l152 113 1 45 c1 59 2
1707 1 1742 -1 22 -21 42 -113 114 -62 49 -115 91 -118 94 -3 3 -32 25 -65 50
-106 79 -107 65 8 151 56 42 271 204 477 359 206 156 434 328 505 382 72 53
135 101 140 106 6 4 55 41 110 82 55 41 102 77 105 80 3 3 87 67 187 142 l182
137 378 -285 c208 -157 385 -290 393 -297 8 -7 31 -23 50 -37 19 -13 37 -27
40 -30 3 -3 59 -46 125 -96 66 -50 278 -209 470 -354 193 -145 351 -264 352
-265 1 0 -87 -70 -195 -155 l-197 -154 0 -903 c1 -568 4 -906 10 -912 6 -4
109 -82 230 -172 185 -137 680 -505 765 -569 14 -10 106 -79 205 -152 428
-318 548 -408 678 -505 75 -57 139 -103 142 -103 3 0 5 1525 5 3390 l0 3390
-3500 0 -3500 0 0 -3431z"/>
        <path d="M3420 3922 c-49 -6 -171 -42 -218 -64 -227 -104 -387 -296 -458 -550
l-27 -93 -2 -527 c-1 -291 0 -528 2 -528 3 0 291 217 660 497 89 68 166 123
171 123 9 0 238 -171 688 -513 78 -59 143 -107 145 -107 7 0 3 993 -5 1035
-12 72 -15 87 -32 139 -96 294 -356 523 -657 580 -65 13 -204 17 -267 8z"/>
    </g>
</svg>
