<svg xmlns="http://www.w3.org/2000/svg" xmlns:xlink="http://www.w3.org/1999/xlink">
	<symbol id="icon__compound" fill="none" viewBox="0 0 40 40">
		<path fill="#070A0E" d="M20 40c11.046 0 20-8.954 20-20S31.046 0 20 0 0 8.954 0 20s8.954 20 20 20z" />
		<path fill="#00D395" fill-rule="evenodd" d="M11.554 26.706a2.014 2.014 0 01-.964-1.716v-3.908a.839.839 0 011.264-.724l8.818 5.142c.516.3.834.852.834 1.45v4.048a1.004 1.004 0 01-1.532.86l-8.42-5.152zm13.144-7.418c.516.3.832.854.834 1.45v8.216c0 .242-.13.466-.342.584l-1.93 1.086a.336.336 0 01-.078.032v-4.562c0-.59-.31-1.138-.818-1.442L14.62 20.02v-5.15a.839.839 0 011.264-.724l8.814 5.142zm3.86-6.068c.518.3.836.854.836 1.452v12a.68.68 0 01-.354.59l-1.83.988v-8.354c0-.59-.31-1.136-.814-1.44l-7.916-4.748V8.824c0-.148.04-.294.112-.422a.842.842 0 011.148-.304l8.818 5.122z" clip-rule="evenodd" />
	</symbol>
	<symbol id="icon__yearn" fill="none" viewBox="0 0 40 40">
		<path fill="#006AE3" fill-rule="evenodd" d="M20 0c11.044 0 20 8.956 20 20s-8.956 20-20 20S0 31.044 0 20 8.956 0 20 0z" clip-rule="evenodd" />
		<path fill="#fff" d="M19.176 28.432v-16.64h1.812v16.64h-1.812z" />
		<path fill="#fff" d="M28.4 17.336l-5.597 1.484-1.248-5.808 1.664-.376.656 2.752s1.512-2.48-.504-5.048c-1.188-1.32-1.752-1.376-3.084-1.584-1.172-.168-3.896.228-4.708 3.408-.344 2.048.044 3.564 2.684 5.548l-.148 2.208s-2.948-2.076-3.708-3.532c-.588-1.152-1.596-3.428.224-6.596.98-1.584 2.912-3.104 6.316-2.944 1.712.072 5.892 2.164 5.244 7.052-.112.916-.588 2.136-.588 2.136l2.296-.512.5 1.812zM25.205 30.356c-1.024 1.556-2.996 3.024-6.392 2.776-1.712-.116-5.832-2.32-5.056-7.188.136-.912.644-2.116.644-2.116l-2.308.448-.452-1.82 5.636-1.336 1.096 5.84-1.676.332-.584-2.772s-1.576 2.436.368 5.06c1.152 1.352 1.712 1.42 3.044 1.664 1.164.2 3.9-.128 4.796-3.284.396-2.036.048-3.564-2.536-5.62l.208-2.204s2.892 2.152 3.612 3.628c.552 1.172 1.5 3.476-.4 6.592z" />
	</symbol>
	<symbol id="icon__polygon" fill="none" viewBox="0 0 40 40">
		<circle cx="20" cy="20" r="20" fill="#8247E5" />
		<path fill="#fff" d="M26.313 16.09c-.418-.24-.955-.24-1.432 0l-3.344 1.97-2.268 1.253-3.284 1.97c-.418.24-.955.24-1.433 0l-2.567-1.552a1.455 1.455 0 01-.716-1.253v-2.986c0-.477.239-.955.716-1.253l2.567-1.493c.418-.239.956-.239 1.433 0l2.567 1.553c.418.238.717.716.717 1.253v1.97l2.268-1.313v-2.03c0-.478-.238-.955-.716-1.254l-4.776-2.806c-.418-.238-.955-.238-1.433 0l-4.896 2.866C9.24 13.224 9 13.701 9 14.18v5.612c0 .478.239.955.716 1.254l4.836 2.806c.418.239.956.239 1.433 0l3.284-1.91 2.268-1.314 3.284-1.91c.418-.24.955-.24 1.433 0l2.567 1.492c.418.239.716.716.716 1.254v2.985c0 .477-.238.955-.716 1.253l-2.508 1.493c-.418.239-.955.239-1.432 0l-2.568-1.492a1.455 1.455 0 01-.716-1.254v-1.91l-2.269 1.313v1.97c0 .477.24.955.717 1.254l4.836 2.806c.418.238.955.238 1.432 0l4.836-2.806c.418-.24.717-.717.717-1.254v-5.672c0-.477-.24-.955-.717-1.254l-4.836-2.805z" />
	</symbol>
	<symbol id="icon__usdc" fill="none" viewBox="0 0 40 40">
		<path fill="#2775CA" d="M20 40c11.083 0 20-8.917 20-20S31.083 0 20 0 0 8.917 0 20s8.917 20 20 20z" />
		<path fill="#fff" fill-rule="evenodd" d="M8.335 15.917c-2.417 6.416.917 13.666 7.417 16 .25.166.5.5.5.75v1.166c0 .167 0 .25-.084.334-.083.333-.416.5-.75.333a14.991 14.991 0 01-9.75-9.75c-2.5-7.917 1.834-16.333 9.75-18.833.084-.084.25-.084.334-.084.333.084.5.334.5.667v1.167c0 .416-.167.666-.5.833-3.417 1.25-6.167 3.917-7.417 7.417zm15.5-9.667c.083-.333.417-.5.75-.333 4.583 1.5 8.25 5.083 9.75 9.833 2.5 7.917-1.833 16.333-9.75 18.833-.083.084-.25.084-.333.084-.334-.084-.5-.334-.5-.667v-1.167c0-.416.166-.666.5-.833 3.416-1.25 6.166-3.917 7.416-7.417 2.417-6.416-.916-13.666-7.416-16-.25-.166-.5-.5-.5-.833V6.583c0-.166 0-.25.083-.333zm-3.586 12.583c3.5.417 5.25 1.417 5.25 4.334 0 2.25-1.667 4-4.167 4.416v2c-.083.417-.333.667-.667.667h-1.25c-.416-.083-.666-.333-.666-.667v-2c-2.75-.416-4.084-1.916-4.417-4V23.5a.57.57 0 01.583-.583h1.417c.25 0 .5.166.583.5.25 1.25 1 2.166 3.167 2.166 1.583 0 2.75-.916 2.75-2.25 0-1.333-.75-1.833-3.083-2.25-3.5-.416-5.167-1.5-5.167-4.25 0-2.083 1.583-3.75 4.083-4.083v-1.917c.084-.416.334-.666.667-.666h1.25c.417.083.667.333.667.666v2a4.163 4.163 0 013.75 3.417v.083a.57.57 0 01-.584.584h-1.333c-.25 0-.5-.167-.583-.417-.417-1.25-1.25-1.75-2.75-1.75-1.667 0-2.5.75-2.5 1.917 0 1.166.5 1.833 3 2.166z" clip-rule="evenodd" />
	</symbol>
	<symbol id="icon__dai" viewBox="0 0 600 600">
		<circle cx="300" cy="300" r="300" fill="#F4B731" />
		<path fill="#fff" d="M477.9 250.5h-35.6c-19.6-54.4-72.3-91.7-141.8-91.7H186.2v91.7h-39.7v32.9h39.7v34.5h-39.7v32.9h39.7v90.6h114.3c68.7 0 121-37 141.1-90.6h36.3v-32.9h-28.3c.7-5.8 1.1-11.8 1.1-17.8v-.8c0-5.4-.3-10.7-.8-15.9H478v-32.9zm-259.7-62.4h82.3c51 0 88.9 25.1 106.4 62.3H218.2v-62.3zm82.3 223.7h-82.3v-61.1h188.5c-17.6 36.6-55.4 61.1-106.2 61.1zm117.1-111c0 5.8-.4 11.5-1.2 17H218.2v-34.5h198.3c.7 5.4 1.1 11 1.1 16.7v.8z" />
	</symbol>
	<symbol id="icon__susd" fill="none" viewBox="0 0 40 40">
		<path fill="#1E1A31" d="M0 20c0 11.046 8.954 20 20 20s20-8.954 20-20S31.046 0 20 0 0 8.954 0 20z" />
		<path fill="#fff" fill-rule="evenodd" d="M20.928 19.047a.982.982 0 110 1.965h-2.55a4.472 4.472 0 110-8.944h6.577a.983.983 0 110 1.965h-6.578a2.507 2.507 0 100 5.014h2.55z" clip-rule="evenodd" />
		<path fill="#fff" fill-rule="evenodd" d="M18.914 21.012a.983.983 0 110-1.964h2.55a4.472 4.472 0 110 8.943h-6.577a.983.983 0 110-1.965h6.578a2.507 2.507 0 100-5.014h-2.55z" clip-rule="evenodd" />
		<path fill="#fff" fill-opacity=".5" fill-rule="evenodd" d="M15.662 27.595l-1.598-1.145 10.048-14.018 1.597 1.144-10.047 14.019z" clip-rule="evenodd" />
	</symbol>
	<symbol id="icon__eth" fill="none" viewBox="0 0 40 40">
		<path fill="#627EEA" d="M20 40c11.046 0 20-8.954 20-20S31.046 0 20 0 0 8.954 0 20s8.954 20 20 20z" />
		<path fill="#fff" fill-opacity=".602" d="M20.043 5v11.087l9.371 4.188L20.043 5z" />
		<path fill="#fff" d="M20.042 5L10.67 20.275l9.372-4.188V5z" />
		<path fill="#fff" fill-opacity=".602" d="M20.043 27.46v7.534l9.378-12.974-9.378 5.44z" />
		<path fill="#fff" d="M20.042 34.994v-7.535L10.67 22.02l9.372 12.974z" />
		<path fill="#fff" fill-opacity=".2" d="M20.043 25.716l9.371-5.44-9.371-4.186v9.626z" />
		<path fill="#fff" fill-opacity=".602" d="M10.67 20.275l9.372 5.441V16.09l-9.372 4.185z" />
	</symbol>
	<symbol id="icon__wbtc" fill="none" viewBox="0 0 40 40">
		<circle cx="20" cy="20" r="20" fill="#fff" />
		<path fill="#5A5564" fill-rule="evenodd" d="M20.01 4.416A15.548 15.548 0 009.519 8.49L8.395 7.392a17.119 17.119 0 0123.207 0L30.503 8.49a15.548 15.548 0 00-10.492-4.074zm11.508 5.077l1.098-1.098v-.026a17.119 17.119 0 010 23.207l-1.098-1.098a15.548 15.548 0 000-20.985zM8.49 30.489a15.548 15.548 0 010-20.974L7.392 8.417a17.119 17.119 0 000 23.207l1.098-1.135zm11.507 5.088c3.884 0 7.626-1.454 10.492-4.074l1.124 1.098a17.12 17.12 0 01-23.207 0l1.099-1.098a15.548 15.548 0 0010.492 4.074z" clip-rule="evenodd" />
		<path fill="#F09242" d="M26.934 16.335c-.22-2.292-2.196-3.06-4.697-3.295V9.885h-1.933v3.097H18.76V9.885h-1.918v3.177H12.92v2.069s1.428-.026 1.406 0a1 1 0 011.098.85v8.698a.676.676 0 01-.234.472.668.668 0 01-.498.168c.025.022-1.406 0-1.406 0l-.366 2.31h3.884v3.23h1.933v-3.182h1.545v3.167h1.937V27.65c3.265-.197 5.543-1.003 5.828-4.06.23-2.46-.926-3.558-2.775-4.001 1.124-.553 1.82-1.578 1.662-3.255zm-2.709 6.876c0 2.401-4.115 2.127-5.426 2.127v-4.262c1.311.004 5.426-.373 5.426 2.135zm-.897-6.004c0 2.196-3.434 1.929-4.525 1.929v-3.873c1.091 0 4.525-.345 4.525 1.944z" />
		<path fill="#282138" d="M19.996 40a20 20 0 11.007-40 20 20 0 01-.007 40zm0-38.44a18.43 18.43 0 10.03 36.859 18.43 18.43 0 00-.03-36.86z" />
	</symbol>
	<symbol id="icon__gusd" fill="none" viewBox="0 0 40 40">
		<path fill="#00DCFA" d="M20 40c11.046 0 20-8.954 20-20S31.046 0 20 0 0 8.954 0 20s8.954 20 20 20z" />
		<path fill="#fff" d="M24.223 6.25c-4.838 0-8.947 3.72-9.463 8.509-4.791.517-8.51 4.626-8.51 9.462a9.534 9.534 0 009.527 9.529c4.838 0 8.963-3.72 9.463-8.509 4.79-.517 8.51-4.626 8.51-9.462a9.534 9.534 0 00-9.527-9.529zm7.294 10.595a7.413 7.413 0 01-6.212 6.213v-6.213h6.212zm-23.034 6.31a7.412 7.412 0 016.212-6.229v6.213H8.482v.016zm14.59 2.15a7.368 7.368 0 01-7.296 6.294 7.367 7.367 0 01-7.294-6.293h14.59v-.001zm.082-8.46v6.294h-6.31v-6.294h6.31zm8.362-2.15h-14.59a7.368 7.368 0 017.296-6.294 7.368 7.368 0 017.294 6.293v.001z" />
	</symbol>
	<symbol id="icon__usdt" fill="none" viewBox="0 0 40 40">
		<circle cx="20" cy="20" r="20" fill="#50AF95" />
		<path fill="#fff" fill-rule="evenodd" d="M22.065 20.751c-.123.01-.76.047-2.182.047-1.131 0-1.934-.034-2.216-.047-4.37-.192-7.633-.953-7.633-1.864 0-.91 3.262-1.67 7.633-1.866v2.972c.286.02 1.104.07 2.235.07 1.357 0 2.037-.057 2.16-.069v-2.97c4.36.193 7.615.954 7.615 1.863s-3.253 1.67-7.616 1.863l.004.001zm0-4.035v-2.66h6.087V10H11.58v4.056h6.085v2.659C12.72 16.942 9 17.922 9 19.095c0 1.175 3.72 2.154 8.666 2.382V30h4.398v-8.526c4.935-.227 8.649-1.206 8.649-2.38 0-1.172-3.71-2.151-8.649-2.38l.001.002z" clip-rule="evenodd" />
	</symbol>
	<symbol id="icon__sy-pools" fill="none" viewBox="0 0 40 40">
		<rect width="40" height="40" fill="#4F6AE5" opacity=".1" rx="20" />
		<path fill="#4F6AE5" d="M14.36 17v7h-1.63l-3.09-3.73V24H7.7v-7h1.63l3.09 3.73V17h1.94zm7.017 5.47V24h-5.62v-7h5.49v1.53h-3.53v1.18h3.11v1.48h-3.11v1.28h3.66zM33.357 17l-2.27 7h-2.12l-1.34-4.26-1.4 4.26h-2.12l-2.27-7h2.04l1.41 4.47 1.48-4.47h1.82l1.41 4.51 1.47-4.51h1.89z" />
	</symbol>
	<symbol id="icon__unknown" fill="none" viewBox="0 0 40 40">
		<rect width="39" height="39" x=".5" y=".5" fill="#F8F8F9" stroke="#E3E4E6" rx="19.5" />
		<path fill="#AAAFB3" d="M18.42 22.82c0-.84.187-1.532.56-2.077.39-.56.95-1.166 1.68-1.82.56-.497.973-.925 1.237-1.283.28-.373.42-.793.42-1.26 0-.653-.264-1.182-.793-1.587-.529-.404-1.237-.606-2.123-.606-1.68 0-2.948.599-3.804 1.796l-2.263-1.47a6.463 6.463 0 012.59-2.1c1.058-.497 2.302-.746 3.733-.746 1.742 0 3.127.38 4.154 1.143 1.042.747 1.563 1.781 1.563 3.103 0 .638-.109 1.198-.327 1.68a4.591 4.591 0 01-.746 1.237c-.296.327-.685.708-1.167 1.143-.591.53-1.035.996-1.33 1.4-.28.405-.42.887-.42 1.447h-2.963zm1.494 5.577c-.545 0-.996-.171-1.353-.514a1.82 1.82 0 01-.514-1.306c0-.514.171-.941.514-1.284.357-.342.808-.513 1.353-.513.529 0 .964.171 1.307.513.357.343.536.77.536 1.284 0 .513-.179.949-.536 1.306-.343.343-.778.514-1.307.514z" />
	</symbol>
	<symbol id="icon__weth" fill="none" viewBox="0 0 40 40">
		<path fill="#000" d="M11.215 39.672c10.054 0 10.054-.15 11.759-.656 2.227-.66-6.29-6.557-11.76-6.557-5.468 0-9.902 1.615-9.902 3.607 0 1.991 4.434 3.606 9.903 3.606z" />
		<path fill="#000" d="M34.044 9.003l.462.498-.404.547c-13.112 17.729-20.666 25.756-23.87 24.68-1.953-.657-3.91-2.629-5.868-5.492a40.446 40.446 0 01-1.922-3.122 33.998 33.998 0 01-.895-1.704c-.22-.46-.312-.744-.385-1.116l-.01-.045a3.82 3.82 0 00-.063-.294 17.893 17.893 0 01-.597-4.594c0-9.869 8-17.87 17.869-17.87 3.092 0 6.071.788 8.712 2.265l.068.042c2.162 1.505 4.461 3.574 6.903 6.205zm-7.807-4.836a16.151 16.151 0 00-7.876-2.036c-8.963 0-16.23 7.266-16.23 16.23 0 1.424.184 2.823.542 4.174.035.133.052.209.09.402l.007.04c.047.24.097.393.257.728.157.33.472.939.847 1.611a38.81 38.81 0 001.843 2.994c1.769 2.588 3.523 4.355 5.036 4.863 2.018.678 9.617-7.365 21.624-23.55-2.18-2.302-4.228-4.12-6.14-5.456z" />
		<path fill="#EC1C79" d="M26.237 4.167A16.15 16.15 0 0018.36 2.13c-8.963 0-16.23 7.266-16.23 16.23 0 1.424.184 2.823.542 4.174.036.133.052.209.09.402l.007.04c.048.24.098.393.257.728.157.33.472.939.847 1.611a38.816 38.816 0 001.843 2.994c1.77 2.588 3.523 4.355 5.036 4.863 2.019.678 9.617-7.365 21.625-23.55-2.18-2.302-4.228-4.12-6.14-5.456z" />
		<path fill="#000" d="M21.64 39.508c-9.868 0-17.869-8-17.869-17.869 0-9.868 8-17.868 17.87-17.868 9.868 0 17.868 8 17.868 17.868 0 9.87-8 17.87-17.869 17.87zm0-1.64c8.964 0 16.23-7.265 16.23-16.229 0-8.963-7.266-16.23-16.23-16.23-8.963 0-16.23 7.267-16.23 16.23 0 8.964 7.267 16.23 16.23 16.23z" />
		<path fill="#fff" d="M21.64 37.869c8.963 0 16.23-7.266 16.23-16.23 0-8.963-7.267-16.23-16.23-16.23-8.964 0-16.23 7.267-16.23 16.23 0 8.964 7.266 16.23 16.23 16.23z" />
		<path fill="#000" fill-rule="evenodd" d="M9.5 24.964l-2.148-6.472h1.882l1.12 3.718 1.239-3.737h1.533l1.24 3.737 1.12-3.718h1.845l-2.149 6.472h-1.551l-1.295-3.7-1.285 3.7H9.5zm8.538-.046v-6.426h5.168v1.515H19.8v.973h3.085v1.404H19.8v1.02h3.452v1.514h-5.214zm7.693 0v-4.866h-1.928v-1.56h5.636v1.56h-1.927v4.866H25.73zm4.489 0v-6.426H32v2.405h2.287v-2.405h1.78v6.426h-1.78v-2.442H32v2.442H30.22z" clip-rule="evenodd" />
		<path fill="#000" d="M1.557 16.559a.918.918 0 11.82-1.642l2.624 1.311a.918.918 0 11-.822 1.642L1.557 16.56zM1.254 20.908a.918.918 0 01.77-1.667l2.623 1.21a.918.918 0 01-.77 1.668l-2.623-1.211z" />
	</symbol>
	<symbol id="icon__fiat" fill="none" viewBox="0 0 40 40">
		<circle cx="20" cy="20" r="20" fill="#FF4339" />
		<path fill="#fff" fill-rule="evenodd" stroke="#fff" stroke-linecap="round" stroke-width="1.5" d="M18.272 7.962c.772-1.323 2.684-1.323 3.456 0l10.517 18.03c.778 1.334-.183 3.008-1.727 3.008H9.482c-1.544 0-2.505-1.674-1.727-3.008l10.517-18.03z" clip-rule="evenodd" />
		<path stroke="#FF4339" stroke-linecap="round" stroke-width="2" d="M20 24c3.21 0 6.5-4 6.5-4s-3.29-4-6.5-4-6.5 4-6.5 4 3.29 4 6.5 4z" clip-rule="evenodd" />
		<path fill="#FF4339" fill-rule="evenodd" d="M20.085 18.002A1.5 1.5 0 0021.5 20a1.5 1.5 0 00.498-.085L22 20a2 2 0 11-1.915-1.998z" clip-rule="evenodd" />
	</symbol>
	<symbol id="icon__usd" fill="none" viewBox="0 0 40 40">
		<circle cx="20" cy="20" r="20" fill="#00A977" />
		<path fill="#fff" fill-rule="evenodd" d="M27.5 23.531c0 1.407-.462 2.602-1.387 3.585-.924.983-2.217 1.646-3.877 1.99v2.56h-3.538v-2.399c-1.32-.108-2.5-.392-3.538-.852-1.037-.46-1.924-1.042-2.66-1.745l2.49-2.598c1.416 1.173 2.963 1.76 4.642 1.76.868 0 1.528-.172 1.981-.515.453-.343.68-.803.68-1.38 0-.415-.09-.758-.27-1.028-.179-.27-.5-.519-.962-.744-.462-.226-1.127-.465-1.995-.717-2.113-.632-3.604-1.398-4.472-2.3-.868-.902-1.301-2.03-1.301-3.383 0-1.389.495-2.543 1.485-3.463.99-.92 2.298-1.506 3.92-1.759v-2.21h3.538v2.237c1.905.289 3.49 1.037 4.755 2.246l-2.265 2.516c-1.245-.974-2.594-1.46-4.047-1.46-.717 0-1.273.13-1.67.392-.396.261-.594.636-.594 1.123 0 .342.1.626.297.852.198.225.538.442 1.02.65.48.207 1.211.464 2.192.77 1.925.578 3.335 1.308 4.232 2.192.896.884 1.344 2.11 1.344 3.68z" clip-rule="evenodd" />
	</symbol>
	<symbol id="icon__all" fill="none" viewBox="0 0 40 40">
		<path fill="#fff" stroke="#FFCE45" stroke-miterlimit="10" d="M39.336 10a9.336 9.336 0 11-18.672 0 9.336 9.336 0 0118.672 0z" />
		<path fill="#FFCE45" d="M30 2.302l7.534 7.534L30 17.371l-7.535-7.535L30 2.302z" />
		<path fill="#FEBE44" d="M30 12.295l-7.541-2.459L30 2.302l7.541 7.534L30 12.296z" />
		<path fill="#fff" d="M25.082 9.344h3.443L30 7.705l1.64 1.64h3.442L30 3.852l-4.918 5.491z" />
		<path fill="#D9A547" d="M30 17.37V2.303l7.535 7.534L30 17.371z" opacity=".42" />
		<path fill="#2775CA" d="M10 20c5.542 0 10-4.458 10-10S15.542 0 10 0 0 4.458 0 10s4.458 10 10 10z" />
		<path fill="#fff" d="M12.75 11.583c0-1.458-.876-1.958-2.626-2.166-1.25-.167-1.5-.5-1.5-1.084 0-.583.417-.958 1.25-.958.75 0 1.167.25 1.375.875a.313.313 0 00.292.208h.667a.285.285 0 00.291-.291v-.042a2.082 2.082 0 00-1.875-1.708v-1c0-.167-.125-.292-.333-.334h-.625c-.167 0-.292.125-.333.334v.958c-1.25.167-2.042 1-2.042 2.042 0 1.375.833 1.916 2.583 2.125 1.167.208 1.542.458 1.542 1.125 0 .666-.583 1.125-1.375 1.125-1.083 0-1.458-.459-1.583-1.084-.042-.166-.167-.25-.292-.25h-.708a.285.285 0 00-.292.292v.042c.167 1.041.833 1.791 2.208 2v1c0 .166.125.291.334.333h.625c.166 0 .291-.125.333-.333v-1c1.25-.209 2.083-1.084 2.083-2.209z" />
		<path fill="#fff" d="M7.876 15.958c-3.25-1.166-4.917-4.791-3.708-8 .625-1.75 2-3.083 3.708-3.708.167-.083.25-.208.25-.417V3.25c0-.167-.083-.292-.25-.333-.042 0-.125 0-.167.041-3.958 1.25-6.125 5.459-4.875 9.417A7.496 7.496 0 007.71 17.25c.167.083.334 0 .375-.167.042-.041.042-.083.042-.166v-.584c0-.125-.125-.291-.25-.375zm4.417-13c-.167-.083-.334 0-.375.167-.042.042-.042.083-.042.167v.583c0 .167.125.333.25.417 3.25 1.166 4.917 4.791 3.708 8A6.164 6.164 0 0112.126 16c-.167.083-.25.208-.25.417V17c0 .167.083.292.25.333.042 0 .125 0 .167-.041 3.958-1.25 6.125-5.459 4.875-9.417a7.557 7.557 0 00-4.875-4.917z" />
		<path fill="#1E1A31" d="M10 30c0 5.523 4.477 10 10 10s10-4.477 10-10-4.477-10-10-10-10 4.477-10 10z" />
		<path fill="#fff" fill-rule="evenodd" d="M20.463 29.524a.491.491 0 110 .982h-1.275a2.236 2.236 0 110-4.472h3.289a.491.491 0 010 .983h-3.29a1.254 1.254 0 100 2.507h1.276z" clip-rule="evenodd" />
		<path fill="#fff" fill-rule="evenodd" d="M19.457 30.506a.491.491 0 110-.982h1.275a2.236 2.236 0 110 4.472h-3.288a.491.491 0 110-.983h3.288a1.254 1.254 0 100-2.507h-1.275z" clip-rule="evenodd" />
		<path fill="#fff" fill-opacity=".5" fill-rule="evenodd" d="M17.83 33.797l-.799-.572 5.024-7.009.799.572-5.024 7.01z" clip-rule="evenodd" />
	</symbol>
	<symbol id="icon__wmatic" viewBox="0 0 485 382" fill="none">
		<path d="M187.763 158.848L241.91 278.932L322.5 232.475L322.561 232.451V139.464L187.763 158.848Z" fill="#2BBDF7" />
		<path d="M426.827 69.745L376.525 50.7983L322.766 46.4558V335.423L403.416 381.905L467.073 251.631L426.924 125.663L426.827 69.745Z" fill="#2891F9" />
		<path d="M421.773 46.5527L403.093 93.0219H403.069V381.953L483.732 335.484V46.5527H421.773Z" fill="#2BBDF7" />
		<path d="M403.428 0L322.766 46.5055L403.428 92.999L484.091 46.5055L403.428 0Z" fill="#2B6DEF" />
		<path d="M241.965 185.924V185.9L161.314 95.6542L0 46.4558V335.387L80.6387 381.88L103.685 221.986L161.314 232.454V232.405L241.977 278.886V185.924H241.965Z" fill="#2891F9" />
		<path d="M80.6872 0L0 46.4934L241.94 186.01L278.5 164.941L322.591 139.505L80.6872 0Z" fill="#2B6DEF" />
		<path d="M80.7035 185.92H80.6914V381.864L161.354 335.383V232.413L80.7035 185.92Z" fill="#2BBDF7" />
	</symbol>
  <symbol id="icon__wavax" viewBox="0 0 254 254" fill="none">
    <circle cx="127" cy="127" r="127" fill="#E84142"/>
    <path fill="#FFFFFF" d="M171.8,130.3c4.4-7.6,11.5-7.6,15.9,0l27.4,48.1c4.4,7.6,0.8,13.8-8,13.8h-55.2c-8.7,0-12.3-6.2-8-13.8
      L171.8,130.3z M118.8,37.7c4.4-7.6,11.4-7.6,15.8,0l6.1,11L155.1,74c3.5,7.2,3.5,15.7,0,22.9l-48.3,83.7
      c-4.4,6.8-11.7,11.1-19.8,11.6H46.9c-8.8,0-12.4-6.1-8-13.8L118.8,37.7z"/>
  </symbol>
	<symbol id="icon__link" fill="none" viewBox="0 0 40 40">
		<path fill="#2A5ADA" d="M20 40c11.046 0 20-8.954 20-20S31.046 0 20 0 0 8.954 0 20s8.954 20 20 20Z" />
		<path fill="#fff" fill-rule="evenodd" d="m20 5-2.751 1.582-7.498 4.335L7 12.5v15l2.751 1.582 7.566 4.335L20.07 35l2.751-1.583 7.429-4.335L33 27.5v-15l-2.751-1.583-7.497-4.335L20 5Zm-8 19.5v-9l8-4.5 8 4.5v9L20 29l-8-4.5Z" clip-rule="evenodd" />
	</symbol>
	<symbol id="icon__uni" fill="none" viewBox="0 0 40 40">
		<circle cx="20" cy="20" r="20" fill="#fff" />
		<g fill="#FF007A" clip-path="url(#a)">
			<path d="M17.535 17.932c.215 0 .513-.133.613-.265.132-.199.082-.414-.166-.564-.447-.281-1.127-.05-1.127.382 0 .215.348.447.68.447ZM9.665 25.768c.231.182.546.083.712-.216a.684.684 0 0 0-.215-.91c-.282-.183-.713-.1-.713.148a.169.169 0 0 0 .133.166c.149.083.165.166.05.348-.117.182-.117.348.033.464Z" />
			<path d="M20 0A19.914 19.914 0 0 0 7.55 4.348c3.266 3.58 8.27 9.092 8.791 9.69l.215.232-.016.381c-.017.514-.182.862-.563 1.21-.431.414-.978.63-1.823.745-.513.066-.696.15-.91.381-.2.216-.283.497-.332 1.193-.083 1.093-.216 1.54-.73 2.618-.496 1.043-.596 1.424-.513 1.988.1.662.48 1.16 1.375 1.772.68.464.994.762 1.16 1.127.1.232.116.314.116.696 0 .596-.1.828-.497 1.259-.646.695-1.822 1.259-3.247 1.59-.597.132-.63.132-.63 0 0-.166-.232-.613-.613-1.21-.447-.679-.63-1.027-.795-1.557-.182-.596-.248-.994-.215-1.623.033-.597.1-.862.331-1.325.182-.382.298-.547 1.044-1.475 1.275-1.574 1.723-2.502 1.888-3.81.15-1.176.348-1.74.796-2.237.265-.298.33-.414.33-.63 0-.099-.413-.91-1.689-3.18-2.02-3.611-2.02-3.611-1.955-3.578.017.016.961 1.457 2.071 3.197 1.458 2.27 2.104 3.214 2.253 3.363.212.212.496.336.795.348.33-.026.65-.116.945-.265.414-.232.513-.547.265-.878-.249-.332-4.424-5.454-8.043-9.865A19.96 19.96 0 0 0 0 20c0 11.046 8.954 20 20 20s20-8.954 20-20S31.046 0 20 0Zm5.767 10.642c.033-.033 1.01.249 1.392.415.58.231.68.248.745.231.05-.05.083-.182.1-.596.033-.63.116-1.044.298-1.425.066-.149.133-.281.15-.281.016 0-.018.116-.067.248-.133.365-.15.878-.067 1.458.116.745.166.845.961 1.657.365.38.796.861.961 1.06l.282.364-.282-.265c-.348-.331-1.143-.96-1.325-1.043-.116-.067-.133-.067-.215.016-.067.066-.083.166-.083.646-.017.746-.116 1.21-.365 1.69-.132.249-.149.199-.033-.083.083-.215.1-.315.1-1.027 0-1.441-.166-1.789-1.177-2.369-.248-.149-.679-.364-.927-.48a3.656 3.656 0 0 1-.448-.216ZM15.463 8.505c.315-.05 1.044.017 1.557.133 1.193.281 2.27 1.01 3.413 2.286l.298.348.43-.066c1.84-.299 3.728-.067 5.302.662.43.2 1.11.597 1.193.696.033.033.083.249.116.464.116.778.066 1.358-.182 1.806-.133.248-.133.314-.05.53a.499.499 0 0 0 .447.281c.398 0 .812-.63 1.01-1.507l.084-.348.149.166c.845.944 1.507 2.253 1.607 3.18l.033.249-.15-.216a2.798 2.798 0 0 0-.794-.844c-.564-.381-1.16-.497-2.734-.58-1.425-.083-2.236-.199-3.032-.464-1.358-.447-2.054-1.027-3.66-3.164-.713-.945-1.16-1.458-1.608-1.889-.977-.944-1.955-1.441-3.23-1.64-.348-.05-.365-.066-.199-.083Zm9.377 12.408a3.93 3.93 0 0 0-.166-.695l-.083-.249.15.182c.235.284.415.61.53.961.115.315.115.415.115.928 0 .497-.016.613-.116.895a2.999 2.999 0 0 1-.695 1.11c-.597.613-1.375.944-2.485 1.093-.2.017-.762.066-1.26.1-1.242.066-2.07.198-2.816.463-.1.033-.199.066-.215.05-.033-.033.48-.331.894-.53.58-.282 1.177-.43 2.485-.663.646-.1 1.31-.232 1.475-.298 1.64-.514 2.452-1.79 2.187-3.347Zm-8.499-7.752c-.696-.961-1.143-2.452-1.044-3.562l.033-.348.166.033c.371.08.728.214 1.06.397.663.398.961.945 1.243 2.303.083.398.199.862.248 1.01.083.25.398.83.663 1.194.182.265.066.397-.348.364-.63-.066-1.474-.646-2.021-1.391Zm-.15 4.655c.117-.431.498-.862.896-.978.265-.083.778-.033 1.027.1.48.248.828.795.745 1.192-.083.48-.861.878-1.773.878-.463 0-.629-.066-.811-.298-.116-.149-.15-.63-.083-.894Zm9.676 15.307a2.345 2.345 0 0 1-1.193.282c-.795 0-1.474-.415-2.021-1.243-.116-.165-.348-.646-.547-1.093-.58-1.342-.878-1.74-1.557-2.187-.596-.381-1.359-.464-1.938-.182-.762.364-.961 1.342-.431 1.938.253.263.584.437.944.497a1.01 1.01 0 0 0 1.143-1.01c0-.398-.149-.63-.546-.812-.53-.232-1.11.033-1.094.546 0 .216.1.348.315.448.132.066.132.066.033.05-.48-.1-.596-.696-.215-1.077.463-.464 1.441-.265 1.772.38.133.266.15.796.033 1.127-.281.73-1.076 1.11-1.888.895-.547-.15-.779-.298-1.441-.978-1.16-1.192-1.607-1.424-3.264-1.673l-.315-.05.348-.33c1.226-1.028 2.734-1.757 4.125-1.989.597-.1 1.59-.066 2.137.083.878.232 1.673.729 2.088 1.342.397.596.58 1.11.762 2.253.066.447.149.911.165 1.01.133.597.398 1.06.73 1.31.513.38 1.407.397 2.285.065.15-.05.282-.099.282-.082.033.033-.414.33-.712.48Zm5.616-5.417c-.365 1.408-1.193 2.535-2.402 3.18-.111.065-.228.12-.348.166-.017 0 .05-.165.149-.364.397-.845.447-1.657.149-2.568-.182-.563-.563-1.242-1.325-2.386-.912-1.325-1.127-1.673-1.359-2.153-.43-.944-.53-1.84-.298-2.684.033-.083.066-.166.1-.166a.713.713 0 0 1 .231.116c.2.133.613.365 1.673.945 1.342.728 2.104 1.292 2.634 1.938.464.563.746 1.21.878 2.004.083.448.034 1.524-.082 1.972Zm.994-4.523c-.116.414-.448 1.176-.53 1.193-.017 0-.05-.083-.05-.215-.033-.696-.381-1.359-.961-1.873-.696-.596-1.59-1.043-3.777-1.921-3.28-1.326-4.44-2.469-4.44-4.407 0-.282.017-.513.017-.513.098.066.191.138.281.215.663.53 1.408.762 3.48 1.06 1.209.182 1.904.315 2.534.53 2.004.663 3.247 2.021 3.545 3.86.083.53.033 1.541-.1 2.071Z" />
		</g>
		<defs>
			<clipPath id="a">
				<path fill="#fff" d="M0 0h40v40H0z" />
			</clipPath>
		</defs>
	</symbol>
	<symbol id="icon__fei" fill="none" viewBox="0 0 40 40">
		<path fill="#22996E" d="M20 40c11.046 0 20-8.954 20-20S31.046 0 20 0 0 8.954 0 20s8.954 20 20 20Z" />
		<path fill="#fff" d="M20 28.91H9.053c-1.483 0-2.379-1.639-1.579-2.887l6.228-9.712a2.5 2.5 0 0 1 2.104-1.15h8.384a2.5 2.5 0 0 1 2.105 1.15l6.227 9.712c.8 1.248-.096 2.887-1.578 2.887H19.999ZM21.119 6.569l2.615 3.997a1.25 1.25 0 0 1-1.046 1.934H17.36a1.25 1.25 0 0 1-1.035-1.952l2.713-3.997a1.25 1.25 0 0 1 2.08.018Z" />
	</symbol>
  <symbol id="icon__balancer" fill="none" viewBox="0 0 40 40">
    <path fill="#1E1E1E" fill-rule="evenodd" d="M20 0c11.044 0 20 8.956 20 20s-8.956 20-20 20S0 31.044 0 20 8.956 0 20 0Z" clip-rule="evenodd"/>
    <path fill="#fff" d="M20.3 28.36c-6.395 0-11.58-1.848-11.58-4.324 0-1.292 1.413-2.456 3.673-3.276 1.764 1.132 4.724 1.712 8.08 1.712 3.276 0 6.172-.708 7.952-1.792 2.132.812 3.456 1.944 3.456 3.192 0 2.48-5.184 4.488-11.58 4.488Z"/>
    <path fill="#fff" d="M20.368 21.916c-4.848 0-8.78-1.52-8.78-3.396 0-1.04 1.212-1.972 3.112-2.592 1.356.708 3.388 1.16 5.668 1.16 2.28 0 4.312-.452 5.668-1.16 1.904.624 3.112 1.552 3.112 2.592.004 1.876-3.928 3.396-8.78 3.396Z"/>
    <path fill="#fff" d="M20.337 16.524c-3.748 0-6.788-1.256-6.788-2.8 0-1.544 3.04-2.8 6.788-2.8s6.788 1.256 6.788 2.8c0 1.544-3.04 2.8-6.788 2.8Z"/>
  </symbol>
  <symbol id="icon__uma" fill="none" viewBox="0 0 40 40">
    <path fill="#fff" d="M40 20c0 11.046-8.954 20-20 20S0 31.046 0 20 8.954 0 20 0s20 8.954 20 20Z"/>
    <g fill="#FF4A4A">
      <path d="M23.942 23h-1.185a.405.405 0 0 1-.407-.406v-3.116l-2.075 1.295a.536.536 0 0 1-.57 0l-2.065-1.295v3.116c0 .22-.176.406-.407.406H16.06a.405.405 0 0 1-.407-.406v-6.013c0-.296.242-.537.538-.537.11 0 .209.033.297.099l3.272 2.249a.38.38 0 0 0 .45 0l3.272-2.25a.544.544 0 0 1 .846.44v6.012a.387.387 0 0 1-.385.406ZM13.885 22.989H6.528a.539.539 0 0 1-.538-.538v-6.045A.415.415 0 0 1 6.407 16h1.186c.22 0 .407.175.407.406v4.597h4.458v-4.597c0-.22.175-.406.406-.406h1.153c.22 0 .406.175.406.406v6.045a.539.539 0 0 1-.538.538ZM29.201 19.259h1.175c.22 0 .406.175.406.406v1.195c0 .22-.175.407-.406.407h-1.175a.405.405 0 0 1-.406-.407v-1.206c0-.22.187-.395.406-.395Z"/>
    </g>
    <path fill="#E3E4E6" fill-rule="evenodd" d="M20 39c10.493 0 19-8.507 19-19S30.493 1 20 1 1 9.507 1 20s8.507 19 19 19Zm0 1c11.046 0 20-8.954 20-20S31.046 0 20 0 0 8.954 0 20s8.954 20 20 20Z" clip-rule="evenodd"/>
    <path fill="#FF4A4A" d="M26.118 16h7.357c.297 0 .538.241.538.538v6.045c0 .22-.176.406-.395.406h-1.186a.405.405 0 0 1-.406-.406V18.25a.267.267 0 0 0-.264-.263h-3.92a.267.267 0 0 0-.264.263v4.334c0 .22-.175.406-.406.406h-1.186a.405.405 0 0 1-.406-.406v-6.045c0-.297.242-.538.538-.538Z"/>
  </symbol>
  <symbol id="icon__cake" viewBox="0 0 40 40" fill="none">
    <circle cx="20" cy="20" r="20" fill="#23C7D6"/>
    <path d="M11.6751 11.0625C11.265 8.95 12.9054 7 15.0379 7C16.9243 7 18.4826 8.54375 18.4826 10.4125V14.6375C18.9748 14.6375 19.4669 14.5563 19.959 14.5563C20.4511 14.5563 20.8612 14.5562 21.3533 14.6375V10.4125C21.3533 8.54375 22.9117 7 24.7981 7C26.9306 7 28.571 8.95 28.2429 11.0625L27.3407 16.0188C30.5394 17.4 33 19.8375 33 22.8438V24.7125C33 27.2312 31.3596 29.3438 28.9811 30.725C26.6025 32.1875 23.4858 33 19.959 33C16.4322 33 13.3155 32.1875 10.9369 30.725C8.64038 29.3438 7 27.2312 7 24.7125V22.8438C7 19.8375 9.37855 17.4 12.5773 16.0188L11.6751 11.0625ZM26.1104 16.6687L27.1767 10.8187C27.4227 9.35625 26.3565 7.975 24.7981 7.975C23.4858 7.975 22.4196 9.03125 22.4196 10.3312V15.6937C22.0915 15.6125 21.6814 15.6125 21.3533 15.6125C20.8612 15.6125 20.4511 15.5312 19.959 15.5312C19.4669 15.5312 18.9748 15.5312 18.4826 15.6125C18.1546 15.6125 17.7445 15.6937 17.4164 15.6937V10.4125C17.4164 9.1125 16.3502 8.05625 15.0379 8.05625C13.5615 8.05625 12.4132 9.4375 12.7413 10.9L13.8076 16.75C10.3628 18.05 8.06625 20.325 8.06625 22.925V24.7937C8.06625 28.775 13.3975 32.025 19.959 32.025C26.5205 32.025 31.8517 28.775 31.8517 24.7937V22.925C31.9338 20.2438 29.6372 17.9688 26.1104 16.6687Z" fill="#633001"/>
    <path d="M31.9339 24.7125C31.9339 28.6938 26.6027 31.9438 20.0412 31.9438C13.4797 31.9438 8.14844 28.6938 8.14844 24.7125V22.8438H32.0159V24.7125H31.9339Z" fill="#FEDC90"/>
    <path d="M12.6345 10.8309C12.3034 9.375 13.4621 8 14.9517 8C16.2759 8 17.3517 9.05147 17.3517 10.3456V15.6838C18.1793 15.6029 19.0069 15.5221 19.9172 15.5221C20.7448 15.5221 21.5724 15.6029 22.4 15.6838V10.3456C22.4 9.05147 23.4759 8 24.8 8C26.2897 8 27.4483 9.375 27.2 10.8309L26.1241 16.6544C29.6 17.9485 32 20.2132 32 22.8015C32 26.7647 26.6207 30 20 30C13.3793 30 8 26.7647 8 22.8015C8 20.2132 10.3172 17.9485 13.7931 16.6544L12.6345 10.8309Z" fill="#D1884F"/>
    <path d="M16.6793 22.3562C16.6793 23.4125 16.1052 24.3062 15.367 24.3062C14.6288 24.3062 14.0547 23.4125 14.0547 22.3562C14.0547 21.3 14.6288 20.4062 15.367 20.4062C16.1052 20.4062 16.6793 21.3 16.6793 22.3562Z" fill="#633001"/>
    <path d="M25.7828 22.3562C25.7828 23.4125 25.2087 24.3062 24.4705 24.3062C23.7323 24.3062 23.1582 23.4125 23.1582 22.3562C23.1582 21.3 23.7323 20.4062 24.4705 20.4062C25.2087 20.4062 25.7828 21.3 25.7828 22.3562Z" fill="#633001"/>
  </symbol>
  <symbol id="icon__bnb" fill="none" viewBox="0 0 2500.01 2500">
    <path fill="#f3ba2f" d="M764.48 1050.52 1250 565l485.75 485.73 282.5-282.5L1250 0 482 768l282.49 282.5M0 1250l282.51-282.55L565 1249.94l-282.51 282.51Zm764.48 199.51L1250 1935l485.74-485.72 282.65 282.35-.14.15L1250 2500l-768-768-.4-.4 282.91-282.12M1935 1250.12l282.51-282.51L2500 1250.1l-282.5 282.51Z"/>
    <path fill="#f3ba2f" d="M1536.52 1249.85h.12L1250 963.19 1038.13 1175l-24.34 24.35-50.2 50.21-.4.39.4.41L1250 1536.81l286.66-286.66.14-.16-.26-.14"/>
  </symbol>
  <symbol id="icon__dpi" fill="none" viewBox="0 0 50 50">
    <g transform="translate(.123 .127)">
      <path fill="#8150E6" fill-rule="nonzero" d="M48.15 24.159c0 13.343-10.779 24.159-24.075 24.159S0 37.502 0 24.159C0 10.816 10.779 0 24.075 0S48.15 10.816 48.15 24.159"/>
    </g>
    <path fill="#3C176B" fill-rule="nonzero" d="m47.373 30.85-17.14-16.926-9.767-1.83-5.716 21.584 14.423 14.249c8.775-1.85 15.791-8.495 18.2-17.078"/>
    <path fill="#6B42BD" fill-rule="nonzero" d="M22.12 31.786V18.43h3.363c1.13 0 2.17.144 3.115.432a6.572 6.572 0 0 1 2.457 1.344c.095.083.186.171.276.262.012-1.81-.642-3.615-1.567-5.246a11.552 11.552 0 0 0-3.17-.44h-8.16v16.987c1.24.014 2.451.115 3.685.017"/>
    <path fill="#9B74EC" fill-rule="nonzero" d="M36.247 21.102c-.585-1.418-1.365-2.597-2.34-3.536a9.432 9.432 0 0 0-3.364-2.096 11.478 11.478 0 0 0-.779-.248c.925 1.631 1.578 3.435 1.567 5.246.561.568.92 2.774 1.256 3.62l-10.468 9.59v-1.892c-1.234.098-2.445-.003-3.685-.017v5.557h7.722c1.248 0 2.52-.229 3.817-.688a10.835 10.835 0 0 0 3.54-2.08c1.062-.928 1.93-2.1 2.602-3.52.673-1.418 1.01-3.098 1.01-5.04 0-1.92-.293-3.477-.878-4.896"/>
    <path fill="#FFF" fill-rule="nonzero" d="M21.184 30.025c1.15 0 2.238-.144 3.261-.432 1.024-.288 1.916-.736 2.677-1.344.76-.608 1.36-1.397 1.799-2.368.438-.97.658-2.149.658-3.536 0-1.365-.195-2.427-.585-3.408-.39-.981-.932-1.776-1.624-2.384a6.57 6.57 0 0 0-2.457-1.344c-.946-.288-1.984-.432-3.115-.432h-3.363v15.248h2.749ZM14.749 11.13h8.16c1.365 0 2.682.23 3.95.688a9.43 9.43 0 0 1 3.363 2.096c.975.939 1.755 2.117 2.34 3.536s.878 2.976.878 4.896c0 1.942-.337 3.622-1.01 5.04-.672 1.42-1.54 2.592-2.603 3.52a10.836 10.836 0 0 1-3.539 2.08c-1.297.46-2.57.688-3.817.688h-7.722V11.13Z"/>
  </symbol>
  <symbol id="icon__warn-circle" fill="none" viewBox="0 0 24 24">
    <rect width="24" height="24" rx="12" fill="#CCA74D" fill-opacity="0.04"/>
    <rect x="0.5" y="0.5" width="23" height="23" rx="11.5" stroke="#CCA74D" stroke-opacity="0.32"/>
    <path
      d="M11.5 14.8465C11.5 14.5705 11.724 14.3425 12 14.3425C12.276 14.3425 12.5 14.5632 12.5 14.8392V14.8465C12.5 15.1225 12.276 15.3465 12 15.3465C11.724 15.3465 11.5 15.1225 11.5 14.8465Z"
      fill="#CCA74D"/>
    <path
      d="M7.19706 17.612H16.8517C17.6164 17.572 18.2044 16.9207 18.1651 16.156C18.1564 16.0013 18.1231 15.8487 18.0644 15.706L13.2131 7.21532C12.8424 6.54532 11.9991 6.30265 11.3291 6.67398C11.1011 6.79932 10.9131 6.98732 10.7871 7.21532L5.93573 15.706C5.64773 16.4153 5.98906 17.2233 6.69773 17.512C6.84173 17.57 6.99373 17.6033 7.1484 17.612"
      stroke="#CCA74D" stroke-width="1.5" stroke-linecap="round" stroke-linejoin="round"/>
    <path d="M11.9932 12.9307V10.864" stroke="#CCA74D" stroke-width="1.5" stroke-linecap="round"
          stroke-linejoin="round"/>
  </symbol>
</svg>
