<svg xmlns="http://www.w3.org/2000/svg">
	<symbol id="icon__compound" fill="none" viewBox="0 0 40 40">
		<path fill="#070A0E" d="M20 40c11.046 0 20-8.954 20-20S31.046 0 20 0 0 8.954 0 20s8.954 20 20 20z" />
		<path fill="#00D395" fill-rule="evenodd" d="M11.554 26.706a2.014 2.014 0 01-.964-1.716v-3.908a.839.839 0 011.264-.724l8.818 5.142c.516.3.834.852.834 1.45v4.048a1.004 1.004 0 01-1.532.86l-8.42-5.152zm13.144-7.418c.516.3.832.854.834 1.45v8.216c0 .242-.13.466-.342.584l-1.93 1.086a.336.336 0 01-.078.032v-4.562c0-.59-.31-1.138-.818-1.442L14.62 20.02v-5.15a.839.839 0 011.264-.724l8.814 5.142zm3.86-6.068c.518.3.836.854.836 1.452v12a.68.68 0 01-.354.59l-1.83.988v-8.354c0-.59-.31-1.136-.814-1.44l-7.916-4.748V8.824c0-.148.04-.294.112-.422a.842.842 0 011.148-.304l8.818 5.122z" clip-rule="evenodd" />
	</symbol>
	<symbol id="icon__yearn" fill="none" viewBox="0 0 40 40">
		<path fill="#006AE3" fill-rule="evenodd" d="M20 0c11.044 0 20 8.956 20 20s-8.956 20-20 20S0 31.044 0 20 8.956 0 20 0z" clip-rule="evenodd" />
		<path fill="#fff" d="M19.176 28.432v-16.64h1.812v16.64h-1.812z" />
		<path fill="#fff" d="M28.4 17.336l-5.597 1.484-1.248-5.808 1.664-.376.656 2.752s1.512-2.48-.504-5.048c-1.188-1.32-1.752-1.376-3.084-1.584-1.172-.168-3.896.228-4.708 3.408-.344 2.048.044 3.564 2.684 5.548l-.148 2.208s-2.948-2.076-3.708-3.532c-.588-1.152-1.596-3.428.224-6.596.98-1.584 2.912-3.104 6.316-2.944 1.712.072 5.892 2.164 5.244 7.052-.112.916-.588 2.136-.588 2.136l2.296-.512.5 1.812zM25.205 30.356c-1.024 1.556-2.996 3.024-6.392 2.776-1.712-.116-5.832-2.32-5.056-7.188.136-.912.644-2.116.644-2.116l-2.308.448-.452-1.82 5.636-1.336 1.096 5.84-1.676.332-.584-2.772s-1.576 2.436.368 5.06c1.152 1.352 1.712 1.42 3.044 1.664 1.164.2 3.9-.128 4.796-3.284.396-2.036.048-3.564-2.536-5.62l.208-2.204s2.892 2.152 3.612 3.628c.552 1.172 1.5 3.476-.4 6.592z" />
	</symbol>
	<symbol id="icon__polygon" fill="none" viewBox="0 0 40 40">
		<circle cx="20" cy="20" r="20" fill="#8247E5" />
		<path fill="#fff" d="M26.313 16.09c-.418-.24-.955-.24-1.432 0l-3.344 1.97-2.268 1.253-3.284 1.97c-.418.24-.955.24-1.433 0l-2.567-1.552a1.455 1.455 0 01-.716-1.253v-2.986c0-.477.239-.955.716-1.253l2.567-1.493c.418-.239.956-.239 1.433 0l2.567 1.553c.418.238.717.716.717 1.253v1.97l2.268-1.313v-2.03c0-.478-.238-.955-.716-1.254l-4.776-2.806c-.418-.238-.955-.238-1.433 0l-4.896 2.866C9.24 13.224 9 13.701 9 14.18v5.612c0 .478.239.955.716 1.254l4.836 2.806c.418.239.956.239 1.433 0l3.284-1.91 2.268-1.314 3.284-1.91c.418-.24.955-.24 1.433 0l2.567 1.492c.418.239.716.716.716 1.254v2.985c0 .477-.238.955-.716 1.253l-2.508 1.493c-.418.239-.955.239-1.432 0l-2.568-1.492a1.455 1.455 0 01-.716-1.254v-1.91l-2.269 1.313v1.97c0 .477.24.955.717 1.254l4.836 2.806c.418.238.955.238 1.432 0l4.836-2.806c.418-.24.717-.717.717-1.254v-5.672c0-.477-.24-.955-.717-1.254l-4.836-2.805z" />
	</symbol>
	<symbol id="icon__usdc" fill="none" viewBox="0 0 40 40">
		<path fill="#2775CA" d="M20 40c11.083 0 20-8.917 20-20S31.083 0 20 0 0 8.917 0 20s8.917 20 20 20z" />
		<path fill="#fff" fill-rule="evenodd" d="M8.335 15.917c-2.417 6.416.917 13.666 7.417 16 .25.166.5.5.5.75v1.166c0 .167 0 .25-.084.334-.083.333-.416.5-.75.333a14.991 14.991 0 01-9.75-9.75c-2.5-7.917 1.834-16.333 9.75-18.833.084-.084.25-.084.334-.084.333.084.5.334.5.667v1.167c0 .416-.167.666-.5.833-3.417 1.25-6.167 3.917-7.417 7.417zm15.5-9.667c.083-.333.417-.5.75-.333 4.583 1.5 8.25 5.083 9.75 9.833 2.5 7.917-1.833 16.333-9.75 18.833-.083.084-.25.084-.333.084-.334-.084-.5-.334-.5-.667v-1.167c0-.416.166-.666.5-.833 3.416-1.25 6.166-3.917 7.416-7.417 2.417-6.416-.916-13.666-7.416-16-.25-.166-.5-.5-.5-.833V6.583c0-.166 0-.25.083-.333zm-3.586 12.583c3.5.417 5.25 1.417 5.25 4.334 0 2.25-1.667 4-4.167 4.416v2c-.083.417-.333.667-.667.667h-1.25c-.416-.083-.666-.333-.666-.667v-2c-2.75-.416-4.084-1.916-4.417-4V23.5a.57.57 0 01.583-.583h1.417c.25 0 .5.166.583.5.25 1.25 1 2.166 3.167 2.166 1.583 0 2.75-.916 2.75-2.25 0-1.333-.75-1.833-3.083-2.25-3.5-.416-5.167-1.5-5.167-4.25 0-2.083 1.583-3.75 4.083-4.083v-1.917c.084-.416.334-.666.667-.666h1.25c.417.083.667.333.667.666v2a4.163 4.163 0 013.75 3.417v.083a.57.57 0 01-.584.584h-1.333c-.25 0-.5-.167-.583-.417-.417-1.25-1.25-1.75-2.75-1.75-1.667 0-2.5.75-2.5 1.917 0 1.166.5 1.833 3 2.166z" clip-rule="evenodd" />
	</symbol>
	<symbol id="icon__dai" fill="none" viewBox="0 0 42 42">
		<path fill="#fff" stroke="#FFCE45" stroke-miterlimit="10" d="M21 40.672c10.865 0 19.672-8.807 19.672-19.672S31.865 1.328 21 1.328C10.136 1.328 1.328 10.135 1.328 21S10.136 40.672 21 40.672z" />
		<path fill="#FFCE45" d="M21.001 5.603l15.07 15.07L21 35.743l-15.07-15.07 15.07-15.07z" />
		<path fill="#FEBE44" d="M21 25.59L5.918 20.672 21 5.602l15.082 15.07L21 25.59z" />
		<path fill="#fff" d="M11.166 19.689h6.885l2.951-3.28 3.279 3.28h6.885L21.002 8.705 11.166 19.69z" />
		<path fill="#D9A547" d="M21 35.741V5.603l15.07 15.07L21 35.74z" opacity=".42" />
	</symbol>
	<symbol id="icon__susd" fill="none" viewBox="0 0 40 40">
		<path fill="#1E1A31" d="M0 20c0 11.046 8.954 20 20 20s20-8.954 20-20S31.046 0 20 0 0 8.954 0 20z" />
		<path fill="#fff" fill-rule="evenodd" d="M20.928 19.047a.982.982 0 110 1.965h-2.55a4.472 4.472 0 110-8.944h6.577a.983.983 0 110 1.965h-6.578a2.507 2.507 0 100 5.014h2.55z" clip-rule="evenodd" />
		<path fill="#fff" fill-rule="evenodd" d="M18.914 21.012a.983.983 0 110-1.964h2.55a4.472 4.472 0 110 8.943h-6.577a.983.983 0 110-1.965h6.578a2.507 2.507 0 100-5.014h-2.55z" clip-rule="evenodd" />
		<path fill="#fff" fill-opacity=".5" fill-rule="evenodd" d="M15.662 27.595l-1.598-1.145 10.048-14.018 1.597 1.144-10.047 14.019z" clip-rule="evenodd" />
	</symbol>
	<symbol id="icon__eth" fill="none" viewBox="0 0 40 40">
		<path fill="#627EEA" d="M20 40c11.046 0 20-8.954 20-20S31.046 0 20 0 0 8.954 0 20s8.954 20 20 20z" />
		<path fill="#fff" fill-opacity=".602" d="M20.043 5v11.087l9.371 4.188L20.043 5z" />
		<path fill="#fff" d="M20.042 5L10.67 20.275l9.372-4.188V5z" />
		<path fill="#fff" fill-opacity=".602" d="M20.043 27.46v7.534l9.378-12.974-9.378 5.44z" />
		<path fill="#fff" d="M20.042 34.994v-7.535L10.67 22.02l9.372 12.974z" />
		<path fill="#fff" fill-opacity=".2" d="M20.043 25.716l9.371-5.44-9.371-4.186v9.626z" />
		<path fill="#fff" fill-opacity=".602" d="M10.67 20.275l9.372 5.441V16.09l-9.372 4.185z" />
	</symbol>
	<symbol id="icon__wbtc" fill="none" viewBox="0 0 40 40">
		<circle cx="20" cy="20" r="20" fill="#fff" />
		<path fill="#5A5564" fill-rule="evenodd" d="M20.01 4.416A15.548 15.548 0 009.519 8.49L8.395 7.392a17.119 17.119 0 0123.207 0L30.503 8.49a15.548 15.548 0 00-10.492-4.074zm11.508 5.077l1.098-1.098v-.026a17.119 17.119 0 010 23.207l-1.098-1.098a15.548 15.548 0 000-20.985zM8.49 30.489a15.548 15.548 0 010-20.974L7.392 8.417a17.119 17.119 0 000 23.207l1.098-1.135zm11.507 5.088c3.884 0 7.626-1.454 10.492-4.074l1.124 1.098a17.12 17.12 0 01-23.207 0l1.099-1.098a15.548 15.548 0 0010.492 4.074z" clip-rule="evenodd" />
		<path fill="#F09242" d="M26.934 16.335c-.22-2.292-2.196-3.06-4.697-3.295V9.885h-1.933v3.097H18.76V9.885h-1.918v3.177H12.92v2.069s1.428-.026 1.406 0a1 1 0 011.098.85v8.698a.676.676 0 01-.234.472.668.668 0 01-.498.168c.025.022-1.406 0-1.406 0l-.366 2.31h3.884v3.23h1.933v-3.182h1.545v3.167h1.937V27.65c3.265-.197 5.543-1.003 5.828-4.06.23-2.46-.926-3.558-2.775-4.001 1.124-.553 1.82-1.578 1.662-3.255zm-2.709 6.876c0 2.401-4.115 2.127-5.426 2.127v-4.262c1.311.004 5.426-.373 5.426 2.135zm-.897-6.004c0 2.196-3.434 1.929-4.525 1.929v-3.873c1.091 0 4.525-.345 4.525 1.944z" />
		<path fill="#282138" d="M19.996 40a20 20 0 11.007-40 20 20 0 01-.007 40zm0-38.44a18.43 18.43 0 10.03 36.859 18.43 18.43 0 00-.03-36.86z" />
	</symbol>
	<symbol id="icon__gusd" fill="none" viewBox="0 0 40 40">
		<path fill="#00DCFA" d="M20 40c11.046 0 20-8.954 20-20S31.046 0 20 0 0 8.954 0 20s8.954 20 20 20z" />
		<path fill="#fff" d="M24.223 6.25c-4.838 0-8.947 3.72-9.463 8.509-4.791.517-8.51 4.626-8.51 9.462a9.534 9.534 0 009.527 9.529c4.838 0 8.963-3.72 9.463-8.509 4.79-.517 8.51-4.626 8.51-9.462a9.534 9.534 0 00-9.527-9.529zm7.294 10.595a7.413 7.413 0 01-6.212 6.213v-6.213h6.212zm-23.034 6.31a7.412 7.412 0 016.212-6.229v6.213H8.482v.016zm14.59 2.15a7.368 7.368 0 01-7.296 6.294 7.367 7.367 0 01-7.294-6.293h14.59v-.001zm.082-8.46v6.294h-6.31v-6.294h6.31zm8.362-2.15h-14.59a7.368 7.368 0 017.296-6.294 7.368 7.368 0 017.294 6.293v.001z" />
	</symbol>
	<symbol id="icon__usdt" fill="none" viewBox="0 0 40 40">
		<circle cx="20" cy="20" r="20" fill="#50AF95" />
		<path fill="#fff" fill-rule="evenodd" d="M22.065 20.751c-.123.01-.76.047-2.182.047-1.131 0-1.934-.034-2.216-.047-4.37-.192-7.633-.953-7.633-1.864 0-.91 3.262-1.67 7.633-1.866v2.972c.286.02 1.104.07 2.235.07 1.357 0 2.037-.057 2.16-.069v-2.97c4.36.193 7.615.954 7.615 1.863s-3.253 1.67-7.616 1.863l.004.001zm0-4.035v-2.66h6.087V10H11.58v4.056h6.085v2.659C12.72 16.942 9 17.922 9 19.095c0 1.175 3.72 2.154 8.666 2.382V30h4.398v-8.526c4.935-.227 8.649-1.206 8.649-2.38 0-1.172-3.71-2.151-8.649-2.38l.001.002z" clip-rule="evenodd" />
	</symbol>
	<symbol id="icon__sy-pools" fill="none" viewBox="0 0 40 40">
		<rect width="40" height="40" fill="#4F6AE5" opacity=".1" rx="20" />
		<path fill="#4F6AE5" d="M14.36 17v7h-1.63l-3.09-3.73V24H7.7v-7h1.63l3.09 3.73V17h1.94zm7.017 5.47V24h-5.62v-7h5.49v1.53h-3.53v1.18h3.11v1.48h-3.11v1.28h3.66zM33.357 17l-2.27 7h-2.12l-1.34-4.26-1.4 4.26h-2.12l-2.27-7h2.04l1.41 4.47 1.48-4.47h1.82l1.41 4.51 1.47-4.51h1.89z" />
	</symbol>
	<symbol id="icon__unknown" fill="none" viewBox="0 0 40 40">
		<rect width="39" height="39" x=".5" y=".5" fill="#F8F8F9" stroke="#E3E4E6" rx="19.5" />
		<path fill="#AAAFB3" d="M18.42 22.82c0-.84.187-1.532.56-2.077.39-.56.95-1.166 1.68-1.82.56-.497.973-.925 1.237-1.283.28-.373.42-.793.42-1.26 0-.653-.264-1.182-.793-1.587-.529-.404-1.237-.606-2.123-.606-1.68 0-2.948.599-3.804 1.796l-2.263-1.47a6.463 6.463 0 012.59-2.1c1.058-.497 2.302-.746 3.733-.746 1.742 0 3.127.38 4.154 1.143 1.042.747 1.563 1.781 1.563 3.103 0 .638-.109 1.198-.327 1.68a4.591 4.591 0 01-.746 1.237c-.296.327-.685.708-1.167 1.143-.591.53-1.035.996-1.33 1.4-.28.405-.42.887-.42 1.447h-2.963zm1.494 5.577c-.545 0-.996-.171-1.353-.514a1.82 1.82 0 01-.514-1.306c0-.514.171-.941.514-1.284.357-.342.808-.513 1.353-.513.529 0 .964.171 1.307.513.357.343.536.77.536 1.284 0 .513-.179.949-.536 1.306-.343.343-.778.514-1.307.514z" />
	</symbol>
	<symbol id="icon__weth" fill="none" viewBox="0 0 40 40">
		<path fill="#000" d="M11.215 39.672c10.054 0 10.054-.15 11.759-.656 2.227-.66-6.29-6.557-11.76-6.557-5.468 0-9.902 1.615-9.902 3.607 0 1.991 4.434 3.606 9.903 3.606z" />
		<path fill="#000" d="M34.044 9.003l.462.498-.404.547c-13.112 17.729-20.666 25.756-23.87 24.68-1.953-.657-3.91-2.629-5.868-5.492a40.446 40.446 0 01-1.922-3.122 33.998 33.998 0 01-.895-1.704c-.22-.46-.312-.744-.385-1.116l-.01-.045a3.82 3.82 0 00-.063-.294 17.893 17.893 0 01-.597-4.594c0-9.869 8-17.87 17.869-17.87 3.092 0 6.071.788 8.712 2.265l.068.042c2.162 1.505 4.461 3.574 6.903 6.205zm-7.807-4.836a16.151 16.151 0 00-7.876-2.036c-8.963 0-16.23 7.266-16.23 16.23 0 1.424.184 2.823.542 4.174.035.133.052.209.09.402l.007.04c.047.24.097.393.257.728.157.33.472.939.847 1.611a38.81 38.81 0 001.843 2.994c1.769 2.588 3.523 4.355 5.036 4.863 2.018.678 9.617-7.365 21.624-23.55-2.18-2.302-4.228-4.12-6.14-5.456z" />
		<path fill="#EC1C79" d="M26.237 4.167A16.15 16.15 0 0018.36 2.13c-8.963 0-16.23 7.266-16.23 16.23 0 1.424.184 2.823.542 4.174.036.133.052.209.09.402l.007.04c.048.24.098.393.257.728.157.33.472.939.847 1.611a38.816 38.816 0 001.843 2.994c1.77 2.588 3.523 4.355 5.036 4.863 2.019.678 9.617-7.365 21.625-23.55-2.18-2.302-4.228-4.12-6.14-5.456z" />
		<path fill="#000" d="M21.64 39.508c-9.868 0-17.869-8-17.869-17.869 0-9.868 8-17.868 17.87-17.868 9.868 0 17.868 8 17.868 17.868 0 9.87-8 17.87-17.869 17.87zm0-1.64c8.964 0 16.23-7.265 16.23-16.229 0-8.963-7.266-16.23-16.23-16.23-8.963 0-16.23 7.267-16.23 16.23 0 8.964 7.267 16.23 16.23 16.23z" />
		<path fill="#fff" d="M21.64 37.869c8.963 0 16.23-7.266 16.23-16.23 0-8.963-7.267-16.23-16.23-16.23-8.964 0-16.23 7.267-16.23 16.23 0 8.964 7.266 16.23 16.23 16.23z" />
		<path fill="#000" fill-rule="evenodd" d="M9.5 24.964l-2.148-6.472h1.882l1.12 3.718 1.239-3.737h1.533l1.24 3.737 1.12-3.718h1.845l-2.149 6.472h-1.551l-1.295-3.7-1.285 3.7H9.5zm8.538-.046v-6.426h5.168v1.515H19.8v.973h3.085v1.404H19.8v1.02h3.452v1.514h-5.214zm7.693 0v-4.866h-1.928v-1.56h5.636v1.56h-1.927v4.866H25.73zm4.489 0v-6.426H32v2.405h2.287v-2.405h1.78v6.426h-1.78v-2.442H32v2.442H30.22z" clip-rule="evenodd" />
		<path fill="#000" d="M1.557 16.559a.918.918 0 11.82-1.642l2.624 1.311a.918.918 0 11-.822 1.642L1.557 16.56zM1.254 20.908a.918.918 0 01.77-1.667l2.623 1.21a.918.918 0 01-.77 1.668l-2.623-1.211z" />
	</symbol>
	<symbol id="icon__fiat" fill="none" viewBox="0 0 40 40">
		<circle cx="20" cy="20" r="20" fill="#FF4339" />
		<path fill="#fff" fill-rule="evenodd" stroke="#fff" stroke-linecap="round" stroke-width="1.5" d="M18.272 7.962c.772-1.323 2.684-1.323 3.456 0l10.517 18.03c.778 1.334-.183 3.008-1.727 3.008H9.482c-1.544 0-2.505-1.674-1.727-3.008l10.517-18.03z" clip-rule="evenodd" />
		<path stroke="#FF4339" stroke-linecap="round" stroke-width="2" d="M20 24c3.21 0 6.5-4 6.5-4s-3.29-4-6.5-4-6.5 4-6.5 4 3.29 4 6.5 4z" clip-rule="evenodd" />
		<path fill="#FF4339" fill-rule="evenodd" d="M20.085 18.002A1.5 1.5 0 0021.5 20a1.5 1.5 0 00.498-.085L22 20a2 2 0 11-1.915-1.998z" clip-rule="evenodd" />
	</symbol>
	<symbol id="icon__usd" fill="none" viewBox="0 0 40 40">
		<circle cx="20" cy="20" r="20" fill="#00A977" />
		<path fill="#fff" fill-rule="evenodd" d="M27.5 23.531c0 1.407-.462 2.602-1.387 3.585-.924.983-2.217 1.646-3.877 1.99v2.56h-3.538v-2.399c-1.32-.108-2.5-.392-3.538-.852-1.037-.46-1.924-1.042-2.66-1.745l2.49-2.598c1.416 1.173 2.963 1.76 4.642 1.76.868 0 1.528-.172 1.981-.515.453-.343.68-.803.68-1.38 0-.415-.09-.758-.27-1.028-.179-.27-.5-.519-.962-.744-.462-.226-1.127-.465-1.995-.717-2.113-.632-3.604-1.398-4.472-2.3-.868-.902-1.301-2.03-1.301-3.383 0-1.389.495-2.543 1.485-3.463.99-.92 2.298-1.506 3.92-1.759v-2.21h3.538v2.237c1.905.289 3.49 1.037 4.755 2.246l-2.265 2.516c-1.245-.974-2.594-1.46-4.047-1.46-.717 0-1.273.13-1.67.392-.396.261-.594.636-.594 1.123 0 .342.1.626.297.852.198.225.538.442 1.02.65.48.207 1.211.464 2.192.77 1.925.578 3.335 1.308 4.232 2.192.896.884 1.344 2.11 1.344 3.68z" clip-rule="evenodd" />
	</symbol>
</svg>
