<svg fill="none" viewBox="0 0 24 24" xmlns="http://www.w3.org/2000/svg">
    <path d="m23.625 12c0-6.4219-5.2031-11.625-11.625-11.625-6.4219 0-11.625 5.2031-11.625 11.625 0 6.4219 5.2031 11.625 11.625 11.625 6.4219 0 11.625-5.2031 11.625-11.625zm-21 0c0-5.1797 4.1953-9.375 9.375-9.375 5.1797 0 9.375 4.1953 9.375 9.375 0 5.1797-4.1953 9.375-9.375 9.375-5.1797 0-9.375-4.1953-9.375-9.375zm3.375 0.9375v-1.875c0-0.3094 0.25313-0.5625 0.5625-0.5625h5.4375v-3.1406c0-0.50157 0.6047-0.75 0.9609-0.39844l4.6407 4.6407c0.2203 0.2203 0.2203 0.5765 0 0.7968l-4.6407 4.6407c-0.3562 0.3562-0.9609 0.1031-0.9609-0.3985v-3.1406h-5.4375c-0.30937 0-0.5625-0.2531-0.5625-0.5625z" fill="currentColor"/>
</svg>
