<svg fill="none" viewBox="0 0 24 24" xmlns="http://www.w3.org/2000/svg">
    <path d="m11.53 6.5303c0.2929-0.29289 0.2929-0.76777 0-1.0607s-0.7678-0.29289-1.0607 0l1.0607 1.0607zm-5.8232 4.7626 0.53033 0.5303-0.53033-0.5303zm0 1.4142 0.53033-0.5303-0.53033 0.5303zm4.7625 5.8232c0.2929 0.2929 0.7678 0.2929 1.0607 0s0.2929-0.7677 0-1.0606l-1.0607 1.0606zm-4.4696-7.2803c-0.41421 0-0.75 0.3358-0.75 0.75s0.33579 0.75 0.75 0.75v-1.5zm13 1.5c0.4143 0 0.75-0.3358 0.75-0.75s-0.3357-0.75-0.75-0.75v1.5zm-8.5303-7.2803-5.2929 5.2929 1.0607 1.0606 5.2929-5.2929-1.0607-1.0607zm-5.2929 7.7677 5.2929 5.2929 1.0607-1.0606-5.2929-5.2929-1.0607 1.0606zm0-2.4748c-0.68342 0.6834-0.68342 1.7914 0 2.4748l1.0607-1.0606c-0.09764-0.0977-0.09764-0.2559 0-0.3536l-1.0607-1.0606zm0.82322 1.9874h13v-1.5h-13v1.5z" fill="currentColor"/>
</svg>
