<svg width="21" height="24" viewBox="0 0 21 24" xmlns="http://www.w3.org/2000/svg">
    <path d="m10.499 24c1.6556 0 2.9986-1.343 2.9986-3h-5.9972c0 1.657 1.343 3 2.9986 3zm10.096-7.0177c-0.9056-0.9731-2.6002-2.437-2.6002-7.2323 0-3.6422-2.5537-6.5578-5.9972-7.2731v-0.97688c0-0.82828-0.6712-1.5-1.499-1.5-0.82783 0-1.4991 0.67172-1.4991 1.5v0.97688c-3.4434 0.71531-5.9972 3.6309-5.9972 7.2731 0 4.7953-1.6945 6.2592-2.6002 7.2323-0.28125 0.3024-0.40594 0.6638-0.40359 1.0177 0.0051562 0.7687 0.60844 1.5 1.5047 1.5h17.991c0.8962 0 1.5-0.7313 1.5047-1.5 0.0023-0.3539-0.1224-0.7158-0.4036-1.0177z" fill="#AAAFB3"/>
</svg>
