<svg width="24" height="24" viewBox="0 0 24 24" xmlns="http://www.w3.org/2000/svg">
    <path d="M16.5 12H7.5V15H16.5V12ZM20.6719 4.92188L16.0828 0.328125C15.8719 0.117188 15.5859 0 15.2859 0H15V6H21V5.71406C21 5.41875 20.8828 5.13281 20.6719 4.92188ZM13.5 6.375V0H4.125C3.50156 0 3 0.501562 3 1.125V22.875C3 23.4984 3.50156 24 4.125 24H19.875C20.4984 24 21 23.4984 21 22.875V7.5H14.625C14.0063 7.5 13.5 6.99375 13.5 6.375ZM6 3.375C6 3.16781 6.16781 3 6.375 3H10.125C10.3322 3 10.5 3.16781 10.5 3.375V4.125C10.5 4.33219 10.3322 4.5 10.125 4.5H6.375C6.16781 4.5 6 4.33219 6 4.125V3.375ZM6 6.375C6 6.16781 6.16781 6 6.375 6H10.125C10.3322 6 10.5 6.16781 10.5 6.375V7.125C10.5 7.33219 10.3322 7.5 10.125 7.5H6.375C6.16781 7.5 6 7.33219 6 7.125V6.375ZM18 20.625C18 20.8322 17.8322 21 17.625 21H13.875C13.6678 21 13.5 20.8322 13.5 20.625V19.875C13.5 19.6678 13.6678 19.5 13.875 19.5H17.625C17.8322 19.5 18 19.6678 18 19.875V20.625ZM18 11.25V15.75C18 16.1644 17.6644 16.5 17.25 16.5H6.75C6.33562 16.5 6 16.1644 6 15.75V11.25C6 10.8356 6.33562 10.5 6.75 10.5H17.25C17.6644 10.5 18 10.8356 18 11.25Z" fill="currentColor"/>
</svg>
