<svg fill="none" viewBox="0 0 40 40" xmlns="http://www.w3.org/2000/svg">
    <path d="m20 40c11.046 0 20-8.9543 20-20 0-11.046-8.9543-20-20-20-11.046 0-20 8.9543-20 20 0 11.046 8.9543 20 20 20z" clip-rule="evenodd" fill="#4F6AE6" fill-opacity=".08" fill-rule="evenodd"/>
    <path d="m25 13h-10m10 14h-10m5.2026-7.0507c-0.133 0.0333-0.2722 0.0333-0.4052 0-2.2318-0.5579-3.7974-2.5631-3.7974-4.8635v-1.0858c0-0.5523 0.4477-1 1-1h6c0.5523 0 1 0.4477 1 1v1.0858c0 2.3004-1.5656 4.3056-3.7974 4.8635zm0 0.1014c-0.133-0.0333-0.2722-0.0333-0.4052 0-2.2318 0.5579-3.7974 2.5631-3.7974 4.8635v1.0858c0 0.5523 0.4477 1 1 1h6c0.5523 0 1-0.4477 1-1v-1.0858c0-2.3004-1.5656-4.3056-3.7974-4.8635z" stroke="#4F6AE6" stroke-linecap="round" stroke-linejoin="round" stroke-width="1.5"/>
</svg>
