<svg fill="none" viewBox="0 0 12 16" xmlns="http://www.w3.org/2000/svg">
    <path d="m8.2518 8 3.1272-3.1272c0.3838-0.38375 0.3838-1.0059 0-1.39l-0.695-0.695c-0.3837-0.38375-1.0059-0.38375-1.39 0l-3.1272 3.1272-3.1272-3.1272c-0.38375-0.38375-1.0059-0.38375-1.39 0l-0.695 0.695c-0.38375 0.38375-0.38375 1.0059 0 1.39l3.1272 3.1272-3.1272 3.1272c-0.38375 0.3837-0.38375 1.0059 0 1.39l0.695 0.695c0.38375 0.3837 1.0062 0.3837 1.39 0l3.1272-3.1272 3.1272 3.1272c0.38375 0.3837 1.0063 0.3837 1.39 0l0.695-0.695c0.3838-0.3838 0.3838-1.0059 0-1.39l-3.1272-3.1272z" fill="currentColor"/>
</svg>
