<svg fill="none" viewBox="0 0 39 34" xmlns="http://www.w3.org/2000/svg">
    <path d="m37.744 28.98c1.2017 2.0829-0.3067 4.6866-2.7069 4.6866h-31.243c-2.4048 0-3.9062-2.6077-2.7068-4.6866l15.622-27.085c1.2023-2.0839 4.2135-2.0801 5.4137 0l15.621 27.085zm-18.328-5.5998c-1.6539 0-2.9948 1.3408-2.9948 2.9948 0 1.6539 1.3409 2.9948 2.9948 2.9948 1.654 0 2.9948-1.3409 2.9948-2.9948 0-1.654-1.3408-2.9948-2.9948-2.9948zm-2.8433-10.765 0.483 8.8541c0.0226 0.4143 0.3651 0.7387 0.78 0.7387h3.1606c0.4149 0 0.7575-0.3244 0.7801-0.7387l0.4829-8.8541c0.0244-0.4476-0.3319-0.8239-0.7801-0.8239h-4.1265c-0.4481 0-0.8044 0.3763-0.78 0.8239z" fill="currentColor"/>
</svg>
