<svg fill="none" viewBox="0 0 24 24" xmlns="http://www.w3.org/2000/svg">
    <path d="m9.5996 3.5312v-0.33125c0-0.88366 0.71639-1.6 1.6-1.6h1.6c0.8837 0 1.6 0.71634 1.6 1.6v0.33125c0.6657 0.18827 1.2993 0.45292 1.8908 0.78387l0.2347-0.23472c0.6248-0.62484 1.6379-0.62484 2.2627 0l1.1314 1.1314c0.6248 0.62484 0.6248 1.6379 0 2.2627l-0.2347 0.23473c0.3309 0.59148 0.5956 1.2251 0.7839 1.8908h0.3312c0.8837 0 1.6 0.71632 1.6 1.6v1.6c0 0.8836-0.7163 1.6-1.6 1.6h-0.3312c-0.1883 0.6656-0.453 1.2993-0.7839 1.8907l0.2347 0.2348c0.6248 0.6248 0.6248 1.6379 0 2.2627l-1.1314 1.1314c-0.6248 0.6248-1.6379 0.6248-2.2627 0l-0.2347-0.2348c-0.5915 0.331-1.2251 0.5956-1.8908 0.7839v0.3313c0 0.8836-0.7163 1.6-1.6 1.6h-1.6c-0.8836 0-1.6-0.7164-1.6-1.6v-0.3313c-0.66567-0.1883-1.2993-0.4529-1.8908-0.7839l-0.23472 0.2348c-0.62484 0.6248-1.6379 0.6248-2.2628 0l-1.1314-1.1314c-0.62484-0.6248-0.62484-1.6379 0-2.2627l0.23473-0.2348c-0.33096-0.5914-0.5956-1.2251-0.78388-1.8907h-0.33125c-0.88366 0-1.6-0.7164-1.6-1.6v-1.6c0-0.8837 0.71634-1.6 1.6-1.6h0.33125c0.18828-0.66568 0.45292-1.2993 0.78388-1.8908l-0.23473-0.23473c-0.62484-0.62484-0.62484-1.6379 0-2.2627l1.1314-1.1314c0.62484-0.62484 1.6379-0.62484 2.2628 0l0.23472 0.23472c0.59148-0.33095 1.2251-0.5956 1.8908-0.78387zm2.4 11.669c1.7673 0 3.2-1.4327 3.2-3.2s-1.4327-3.2-3.2-3.2-3.2 1.4327-3.2 3.2 1.4327 3.2 3.2 3.2z" clip-rule="evenodd" fill-rule="evenodd" stroke="#AAAFB3" stroke-linecap="round" stroke-width="1.5"/>
</svg>
