<svg width="24" height="24" viewBox="0 0 24 24" xmlns="http://www.w3.org/2000/svg">
    <path d="m11.625 0.375c-6.4205 0-11.625 5.2045-11.625 11.625 0 6.4205 5.2045 11.625 11.625 11.625 6.4205 0 11.625-5.2045 11.625-11.625 0-6.4205-5.2045-11.625-11.625-11.625zm3.8573 16.762c-0.1828 0.1819-0.3745 0.3727-0.5301 0.5288-0.1402 0.1406-0.2391 0.314-0.2892 0.502-0.0708 0.2653-0.128 0.5334-0.2236 0.7908l-0.8152 2.1961c-0.645 0.1406-1.3125 0.2198-1.9992 0.2198v-1.2834c0.0792-0.5916-0.3581-1.6997-1.0608-2.4024-0.2812-0.2812-0.4392-0.6628-0.4392-1.0608v-1.5004c0-0.5457-0.29391-1.0472-0.77156-1.3111-0.6736-0.3727-1.6317-0.8935-2.288-1.2239-0.53813-0.271-1.0359-0.616-1.4836-1.0196l-0.0375-0.0337c-0.32012-0.289-0.60435-0.6154-0.84656-0.9722-0.43969-0.64547-1.1559-1.7072-1.6214-2.3972 0.95953-2.1328 2.6888-3.8456 4.8375-4.7761l1.1255 0.56297c0.49875 0.24937 1.0856-0.11297 1.0856-0.67078v-0.52969c0.3745-0.06047 0.7556-0.09891 1.1433-0.11344l1.3265 1.3266c0.293 0.29297 0.293 0.76782 0 1.0608l-0.2198 0.21938-0.4847 0.48469c-0.1462 0.14625-0.1462 0.3839 0 0.53015l0.2199 0.21985c0.1462 0.14625 0.1462 0.3839 0 0.53015l-0.375 0.375c-0.0705 0.07028-0.1659 0.10973-0.2654 0.10969h-0.4214c-0.0975 0-0.1912 0.03797-0.2615 0.10641l-0.465 0.45234c-0.057 0.05551-0.0949 0.12769-0.1082 0.20613-0.0133 0.07843-0.0014 0.15907 0.0341 0.23028l0.7308 1.462c0.1247 0.24938-0.0567 0.54278-0.3352 0.54278h-0.2643c-0.0905 0-0.1777-0.0328-0.2457-0.0918l-0.43496-0.3779c-0.09844-0.08535-0.21741-0.14366-0.34521-0.16914-0.12781-0.02547-0.26004-0.01725-0.3837 0.02387l-1.4611 0.48707c-0.11155 0.0372-0.20857 0.1085-0.2773 0.2039-0.06874 0.0954-0.10571 0.21-0.10567 0.3276 0 0.2124 0.12 0.406 0.30984 0.5011l0.51938 0.2597c0.44109 0.2208 0.92765 0.3356 1.4208 0.3356 0.49312 0 1.0589 1.2792 1.5 1.5h3.1289c0.3979 0 0.779 0.158 1.0608 0.4392l0.6417 0.6418c0.2681 0.2682 0.4186 0.6319 0.4186 1.0111-1e-4 0.2873-0.057 0.5718-0.1674 0.8371-0.1103 0.2653-0.272 0.5062-0.4758 0.7088zm4.0646-4.282c-0.2714-0.068-0.5082-0.2344-0.6633-0.4674l-0.8428-1.2642c-0.1233-0.1847-0.1892-0.4018-0.1892-0.6239s0.0659-0.4392 0.1892-0.62391l0.9183-1.3772c0.1087-0.16266 0.2578-0.29485 0.4331-0.38203l0.6084-0.30422c0.6338 1.2619 0.9994 2.6812 0.9994 4.1873 0 0.4064-0.0347 0.8044-0.0853 1.1972l-1.3678-0.3417z" fill="currentColor"/>
</svg>
