<svg width="24" height="24" viewBox="0 0 24 24" xmlns="http://www.w3.org/2000/svg">
    <path d="m11.682 7.1667-7.6821 6.3161v6.8169c0 0.1765 0.07023 0.3458 0.19526 0.4706 0.12502 0.1248 0.29459 0.1949 0.4714 0.1949l4.6692-0.012c0.17623-9e-4 0.34494-0.0714 0.46925-0.1961 0.1243-0.1247 0.19408-0.2935 0.19408-0.4694v-3.981c0-0.1765 0.0702-0.3458 0.1953-0.4706 0.125-0.1248 0.2946-0.1949 0.4714-0.1949h2.6666c0.1768 0 0.3464 0.0701 0.4714 0.1949 0.1251 0.1248 0.1953 0.2941 0.1953 0.4706v3.9781c-3e-4 0.0875 0.0168 0.1743 0.0501 0.2553 0.0334 0.081 0.0825 0.1546 0.1444 0.2166 0.062 0.062 0.1355 0.1112 0.2166 0.1448 0.081 0.0336 0.1678 0.0508 0.2556 0.0508l4.6675 0.0129c0.1768 0 0.3463-0.0701 0.4714-0.1949 0.125-0.1248 0.1952-0.2941 0.1952-0.4706v-6.8215l-7.6804-6.3115c-0.0903-0.07266-0.2028-0.11228-0.3187-0.11228-0.116 0-0.2285 0.03962-0.3188 0.11228zm12.135 4.293-3.4833-2.8663v-5.7612c0-0.13238-0.0527-0.25933-0.1465-0.35294-0.0937-0.0936-0.2209-0.14619-0.3535-0.14619h-2.3334c-0.1326 0-0.2598 0.05259-0.3535 0.14619-0.0938 0.09361-0.1465 0.22056-0.1465 0.35294v3.0202l-3.7304-3.0638c-0.358-0.29408-0.8072-0.45487-1.2708-0.45487s-0.9129 0.16079-1.2708 0.45487l-10.547 8.6712c-0.05063 0.0417-0.092518 0.0931-0.12327 0.151s-0.049769 0.1214-0.05596 0.1866c-0.0061911 0.0653 5.6354e-4 0.1312 0.019878 0.1939 0.019314 0.0626 0.05081 0.1209 0.092687 0.1714l1.0625 1.2894c0.04177 0.0507 0.09313 0.0927 0.15117 0.1236 0.05803 0.0308 0.12159 0.0499 0.18704 0.0562 0.06544 0.0063 0.13149-3e-4 0.19436-0.0195 0.06287-0.0193 0.12132-0.0507 0.17202-0.0925l9.8008-8.0585c0.0903-0.07266 0.2028-0.11228 0.3188-0.11228 0.1159 0 0.2284 0.03962 0.3187 0.11228l9.8013 8.0585c0.0506 0.0418 0.1089 0.0733 0.1717 0.0926 0.0628 0.0192 0.1288 0.026 0.1942 0.0198s0.1289-0.0252 0.1869-0.0559c0.0581-0.0307 0.1095-0.0725 0.1513-0.123l1.0625-1.2894c0.0419-0.0509 0.0732-0.1094 0.0923-0.1724 0.0191-0.0629 0.0255-0.129 0.019-0.1944-0.0066-0.0655-0.0261-0.129-0.0573-0.1869-0.0313-0.0579-0.0737-0.109-0.1248-0.1505z" fill="currentColor"/>
</svg>
