<svg width="16" height="16" viewBox="0 0 16 16" xmlns="http://www.w3.org/2000/svg">
    <path d="m8 0.25c-4.2799 0-7.75 3.4713-7.75 7.75 0 4.2812 3.4701 7.75 7.75 7.75 4.2799 0 7.75-3.4688 7.75-7.75 0-4.2787-3.4701-7.75-7.75-7.75zm0 3.4375c0.72487 0 1.3125 0.58763 1.3125 1.3125s-0.58763 1.3125-1.3125 1.3125-1.3125-0.58763-1.3125-1.3125 0.58763-1.3125 1.3125-1.3125zm1.75 7.9375c0 0.2071-0.16791 0.375-0.375 0.375h-2.75c-0.20709 0-0.375-0.1679-0.375-0.375v-0.75c0-0.2071 0.16791-0.375 0.375-0.375h0.375v-2h-0.375c-0.20709 0-0.375-0.16791-0.375-0.375v-0.75c0-0.20709 0.16791-0.375 0.375-0.375h2c0.20709 0 0.375 0.16791 0.375 0.375v3.125h0.375c0.20709 0 0.375 0.1679 0.375 0.375v0.75z" fill="currentColor"/>
</svg>
