<svg fill="none" viewBox="0 0 24 24" xmlns="http://www.w3.org/2000/svg">
    <path d="m10.312 16.5h0.5625v-5.625h-0.5625c-0.3106 0-0.5625-0.2519-0.5625-0.5625v-0.375c0-0.31064 0.2519-0.5625 0.5625-0.5625h2.25c0.3106 0 0.5625 0.25186 0.5625 0.5625v6.5625h0.5625c0.3106 0 0.5625 0.2519 0.5625 0.5625v0.375c0 0.3106-0.2519 0.5625-0.5625 0.5625h-3.375c-0.3106 0-0.5625-0.2519-0.5625-0.5625v-0.375c0-0.3106 0.2519-0.5625 0.5625-0.5625zm1.6875-11.25c-0.8284 0-1.5 0.67158-1.5 1.5s0.6716 1.5 1.5 1.5 1.5-0.67158 1.5-1.5-0.6716-1.5-1.5-1.5z" fill="currentColor"/>
    <path d="m12.001 23.2c6.1856 0 11.2-5.0144 11.2-11.2s-5.0144-11.2-11.2-11.2c-6.1856 0-11.2 5.0144-11.2 11.2s5.0144 11.2 11.2 11.2z" clip-rule="evenodd" fill-rule="evenodd" stroke="currentColor" stroke-linecap="round" stroke-width="1.5"/>
</svg>
