<svg fill="none" viewBox="0 0 24 24" xmlns="http://www.w3.org/2000/svg">
    <path d="m3.5998 11.2s1.2896-2.233 2-2.8c0.57795-0.46133-0.08695-2.5036 0.4-2.8 0.44101-0.26839 2.3793 1.1194 2.7457 0.98635 1.3855-0.50328 2.8703-0.69872 4.4543-0.58635 5.6381 0.4 10.8 5.8239 6.3836 11.682 0.3737 1.019 0.7014 3.7097 0.7918 4.4981 0.0135 0.1181-0.0791 0.2201-0.1979 0.2201h-3.6954c-0.0526 0-0.1031-0.0208-0.1405-0.0577l-1.5613-1.5423s-2.4082 0.4-3.9803 0c-0.94427 0.9442-1.3932 1.3932-1.5416 1.5416-0.0375 0.0375-0.08816 0.0584-0.14121 0.0584h-3.2866c-0.12171 0-0.21521-0.1078-0.19799-0.2283l0.36738-2.5717s-2-1.2-2.4-2.8c-1.2763-0.3444-2.2981-0.6484-2.6593-0.7573-0.084111-0.0254-0.1407-0.1027-0.1407-0.1905v-3.7014c0-0.0893 0.059195-0.1677 0.14506-0.1923l2.6549-0.7585z" clip-rule="evenodd" fill-rule="evenodd" stroke="currentColor" stroke-linecap="round" stroke-width="1.5"/>
    <path d="m19.99 8.8077c0.9772-0.72929 1.6099-1.8946 1.6099-3.2077 0-2.2091-1.7909-4-4-4s-4 1.7909-4 4" stroke="currentColor" stroke-linecap="round" stroke-width="1.5"/>
    <path d="m7.5994 13.6c0.66275 0 1.2-0.5373 1.2-1.2 0-0.6628-0.53725-1.2-1.2-1.2-0.66274 0-1.2 0.5372-1.2 1.2 0 0.6627 0.53726 1.2 1.2 1.2z" clip-rule="evenodd" fill="currentColor" fill-rule="evenodd"/>
    <path d="m23.166 12.8s-0.2609 1.2-1.5669 1.2" stroke="currentColor" stroke-linecap="round" stroke-width="1.5"/>
</svg>
