<svg fill="none" viewBox="0 0 20 24" xmlns="http://www.w3.org/2000/svg">
    <path d="m18.8 13.2v-9.4c0-1.6568-1.3432-3-3-3h-11.6c-1.6569 0-3 1.3431-3 3v16.4c0 1.6568 1.3431 2.9999 3 2.9999h7" stroke="currentColor" stroke-linecap="round" stroke-width="1.5"/>
    <path d="m6.7998 8.8h6.4" stroke="currentColor" stroke-linecap="round" stroke-width="1.5"/>
    <path d="m6.7998 12h2.4" stroke="currentColor" stroke-linecap="round" stroke-width="1.5"/>
    <path d="m19.232 20.403c0 0.4992-0.1584 0.9264-0.4752 1.2816s-0.7568 0.5936-1.32 0.7152v1.084c0 0.2761-0.2239 0.5-0.5 0.5h-0.296c-0.2761 0-0.5-0.2239-0.5-0.5v-1.0168c-0.864-0.0768-1.5776-0.3904-2.1408-0.9408l0.9216-1.008c0.48 0.4096 1.0016 0.6144 1.5648 0.6144 0.2624 0 0.4592-0.0512 0.5904-0.1536s0.1968-0.24 0.1968-0.4128c0-0.128-0.0288-0.2352-0.0864-0.3216s-0.1584-0.1648-0.3024-0.2352-0.3568-0.1504-0.6384-0.24c-0.736-0.2304-1.2496-0.5088-1.5408-0.8352s-0.4368-0.7328-0.4368-1.2192c0-0.5056 0.1712-0.9248 0.5136-1.2576s0.7952-0.544 1.3584-0.6336v-0.9304c0-0.2762 0.2239-0.5 0.5-0.5h0.296c0.2761 0 0.5 0.2238 0.5 0.5v0.94c0.6528 0.1024 1.1968 0.3712 1.632 0.8064l-0.8256 0.9792c-0.4288-0.3392-0.8832-0.5088-1.3632-0.5088-0.224 0-0.3936 0.04-0.5088 0.12s-0.1728 0.1904-0.1728 0.3312c0 0.1088 0.032 0.1984 0.096 0.2688s0.1712 0.1376 0.3216 0.2016 0.392 0.1472 0.7248 0.2496c0.6656 0.2176 1.1472 0.4864 1.4448 0.8064s0.4464 0.7584 0.4464 1.3152z" clip-rule="evenodd" fill="currentColor" fill-rule="evenodd"/>
</svg>
