<svg fill="none" viewBox="0 0 24 24" xmlns="http://www.w3.org/2000/svg">
    <path d="m22.4 16.8v2.6c0 1.6568-1.3431 3-3 3h-14.8c-1.6568 0-3-1.3432-3-3v-14.8c0-1.6569 1.3432-3 3-3h14.8c1.6569 0 3 1.3431 3 3v5.8" stroke="currentColor" stroke-linecap="round" stroke-width="1.5"/>
    <path d="m12.8 13.4c0-1.6568 1.3432-3 3-3h6.6v6.4h-6.6c-1.6569 0-3-1.3431-3-3v-0.4z" clip-rule="evenodd" fill-rule="evenodd" stroke="currentColor" stroke-linecap="round" stroke-width="1.5"/>
    <path d="m15.999 14.4c0.4418 0 0.8-0.3581 0.8-0.8 0-0.4418-0.3582-0.8-0.8-0.8s-0.8 0.3582-0.8 0.8c0 0.4419 0.3582 0.8 0.8 0.8z" clip-rule="evenodd" fill="currentColor" fill-rule="evenodd"/>
    <path d="m2.3994 4.8h20" stroke="currentColor" stroke-linecap="round" stroke-width="1.5"/>
</svg>
