<svg fill="none" viewBox="0 0 24 24" xmlns="http://www.w3.org/2000/svg">
    <path d="m4.8006 6.3997h-0.2c-1.6569 0-3 1.3431-3 3v7c0 1.5464 1.2536 2.8 2.8 2.8v0" stroke="currentColor" stroke-linecap="round" stroke-width="1.5"/>
    <path d="m14.4 19.2h-4.5459c-1.1363 0-2.1751 0.642-2.6833 1.6584l-0.77082 1.5416-2-3.2" stroke="currentColor" stroke-linecap="round" stroke-linejoin="round" stroke-width="1.5"/>
    <path d="m17.601 19.2-0.6708 0.3354c0.1213 0.2426 0.3642 0.4009 0.6352 0.4137 0.271 0.0129 0.5278-0.1216 0.6716-0.3516l-0.636-0.3975zm1.7686-2.8298-0.636-0.3975 0.636 0.3975zm-2.5394 1.2881 0.6708-0.3354-0.6708 0.3354zm1.4416 1.2063-0.7708-1.5417-1.3417 0.6708 0.7709 1.5417 1.3416-0.6708zm-4.1249-3.6146h-6.3459v1.5h6.3459v-1.5zm-8.5959-2.25v-8.4h-1.5v8.4h1.5zm2.25-10.65h11.6v-1.5h-11.6v1.5zm13.85 2.25v9.0366h1.5v-9.0366h-1.5zm-3.414 14.998 1.7686-2.8298-1.272-0.795-1.7686 2.8298 1.272 0.795zm1.8006-4.3475c-0.5302 0-1.023 0.2731-1.304 0.7227l1.272 0.795c0.0069-0.011 0.019-0.0177 0.032-0.0177v-1.5zm1.6134-1.6134c0 0.891-0.7223 1.6134-1.6134 1.6134v1.5c1.7195 0 3.1134-1.3939 3.1134-3.1134h-1.5zm-2.25-11.287c1.2426 0 2.25 1.0074 2.25 2.25h1.5c0-2.0711-1.679-3.75-3.75-3.75v1.5zm-13.85 2.25c0-1.2426 1.0074-2.25 2.25-2.25v-1.5c-2.0711 0-3.75 1.6789-3.75 3.75h1.5zm2.25 10.65c-1.2426 0-2.25-1.0074-2.25-2.25h-1.5c0 2.071 1.6789 3.75 3.75 3.75v-1.5zm9.7 2.0729c-0.6352-1.2704-1.9337-2.0729-3.3541-2.0729v1.5c0.8522 0 1.6313 0.4815 2.0124 1.2437l1.3417-0.6708z" fill="currentColor"/>
    <path d="m10.4 7.1999h6.4" stroke="currentColor" stroke-linecap="round" stroke-width="1.5"/>
    <path d="m10.4 10.4h6.4" stroke="currentColor" stroke-linecap="round" stroke-width="1.5"/>
</svg>
