<svg width="24" height="20" viewBox="0 0 24 20" xmlns="http://www.w3.org/2000/svg">
    <path d="m24 9.9v-0.6c0-0.3315-0.2685-0.6-0.6-0.6h-10.5v-1.5h2.7c0.6626 0 1.2-0.53737 1.2-1.2v-4.8c0-0.66262-0.5374-1.2-1.2-1.2h-7.2c-0.66262 0-1.2 0.53738-1.2 1.2v4.8c0 0.66263 0.53738 1.2 1.2 1.2h2.7v1.5h-10.5c-0.3315 0-0.6 0.2685-0.6 0.6v0.6c0 0.3315 0.2685 0.6 0.6 0.6h3.9v1.5h-2.1c-0.66262 0-1.2 0.5374-1.2 1.2v4.8c0 0.6626 0.53738 1.2 1.2 1.2h6c0.66262 0 1.2-0.5374 1.2-1.2v-4.8c0-0.6626-0.53738-1.2-1.2-1.2h-2.1v-1.5h11.4v1.5h-2.1c-0.6626 0-1.2 0.5374-1.2 1.2v4.8c0 0.6626 0.5374 1.2 1.2 1.2h6c0.6626 0 1.2-0.5374 1.2-1.2v-4.8c0-0.6626-0.5374-1.2-1.2-1.2h-2.1v-1.5h3.9c0.3315 0 0.6-0.2685 0.6-0.6zm-14.4-5.1v-2.4h4.8v2.4h-4.8zm-2.4 12h-3.6v-2.4h3.6v2.4zm13.2 0h-3.6v-2.4h3.6v2.4z" fill="currentColor"/>
</svg>
