<svg fill="none" viewBox="0 0 24 24" xmlns="http://www.w3.org/2000/svg">
    <path d="m12.828 21.376c-0.5258-0.2389-1.1292-0.2389-1.655 0l-1.8162 0.8255c-1.0541 0.479-2.2935-0.0343-2.7002-1.1185l-0.86014-2.2934c-0.10141-0.2704-0.31476-0.4837-0.58515-0.5851l-2.2934-0.8602c-1.0841-0.4066-1.5975-1.646-1.1184-2.7001l1.0135-2.2299c0.11948-0.2629 0.11948-0.5647 0-0.8276l-1.0135-2.2299c-0.47909-1.0541 0.0343-2.2935 1.1184-2.7002l2.2934-0.86014c0.27039-0.10141 0.48374-0.31476 0.58515-0.58515l0.86014-2.2934c0.40661-1.0841 1.646-1.5975 2.7002-1.1184l2.2299 1.0135c0.2629 0.11948 0.5647 0.11948 0.8276 0l2.2299-1.0135c1.0541-0.47909 2.2935 0.0343 2.7001 1.1184l0.8602 2.2934c0.1014 0.27039 0.3147 0.48374 0.5851 0.58515l2.2934 0.86014c1.0842 0.40661 1.5975 1.646 1.1185 2.7002l-1.0135 2.2299c-0.1195 0.2629-0.1195 0.5647 0 0.8276l1.0135 2.2299c0.479 1.0541-0.0343 2.2935-1.1185 2.7001l-2.2934 0.8602c-0.2704 0.1014-0.4837 0.3147-0.5851 0.5851l-0.8602 2.2934c-0.4066 1.0842-1.646 1.5975-2.7001 1.1185l-1.8162-0.8255z" clip-rule="evenodd" fill-rule="evenodd" stroke="currentColor" stroke-linecap="round" stroke-width="1.5"/>
    <path d="m9.6 11.2c0.8837 0 1.6-0.7163 1.6-1.6 0-0.88366-0.7163-1.6-1.6-1.6-0.88366 0-1.6 0.71634-1.6 1.6 0 0.8837 0.71634 1.6 1.6 1.6zm4.8 4.8c0.8837 0 1.6-0.7163 1.6-1.6s-0.7163-1.6-1.6-1.6-1.6 0.7163-1.6 1.6 0.7163 1.6 1.6 1.6zm0.5657-6.9657c-0.3124-0.31241-0.819-0.31241-1.1314 0l-4.8 4.8c-0.31241 0.3124-0.31241 0.819 0 1.1314 0.31242 0.3124 0.81896 0.3124 1.1314 0l4.8-4.8c0.3124-0.31243 0.3124-0.81897 0-1.1314z" clip-rule="evenodd" fill="currentColor" fill-rule="evenodd"/>
</svg>
