<svg width="15" height="20" viewBox="0 0 15 20" fill="none" xmlns="http://www.w3.org/2000/svg">
    <g>
        <path fill="currentColor"
              d="M4.26743 6.76743C5.2436 5.79126 5.2436 4.20806 4.26743 3.23188C3.29126 2.25571 1.70806 2.25571 0.731885 3.23188C-0.244287 4.20806 -0.244287 5.79126 0.731885 6.76743C1.70845 7.74399 3.29126 7.74399 4.26743 6.76743ZM14.2674 13.2319C13.2913 12.2557 11.7081 12.2557 10.7319 13.2319C9.75571 14.2081 9.75571 15.7913 10.7319 16.7674C11.7081 17.7436 13.2913 17.7436 14.2674 16.7674C15.244 15.7913 15.244 14.2084 14.2674 13.2319ZM14.1917 4.19165L13.3081 3.30806C12.8198 2.81978 12.0284 2.81978 11.5405 3.30806L0.808057 14.0405C0.319775 14.5288 0.319775 15.3202 0.808057 15.8081L1.69165 16.6917C2.17993 17.1799 2.97134 17.1799 3.45923 16.6917L14.1917 5.95923C14.6799 5.47134 14.6799 4.67993 14.1917 4.19165Z"/>
    </g>
</svg>
