<svg width="24" height="22" viewBox="0 0 24 22" xmlns="http://www.w3.org/2000/svg">
    <path d="m23.333 9.3333h-1.2292c-0.3667-0.83333-0.9-1.5708-1.5583-2.1875l0.7875-3.1458h-1.3334c-1.225 0-2.3083 0.5625-3.0416 1.4292-0.3167-0.04584-0.6292-0.09584-0.9584-0.09584h-5.3333c-3.225 0-5.9125 2.2917-6.5333 5.3334h-1.8c-0.61667 0-1.1042-0.5625-0.97917-1.2 0.09167-0.475 0.5375-0.8 1.0208-0.8h0.04166c0.1375 0 0.25-0.1125 0.25-0.25v-0.83334c0-0.1375-0.1125-0.25-0.25-0.25-1.1875 0-2.2458 0.85-2.3958 2.025-0.18333 1.425 0.925 2.6417 2.3125 2.6417h1.6667c0 2.175 1.0583 4.0875 2.6667 5.3042v3.3625c0 0.3666 0.3 0.6666 0.66667 0.6666h2.6666c0.3667 0 0.6667-0.3 0.6667-0.6666v-2h5.3333v2c0 0.3666 0.3 0.6666 0.6667 0.6666h2.6667c0.3666 0 0.6666-0.3 0.6666-0.6666v-3.3625c0.4917-0.3709 0.9292-0.8084 1.3042-1.3042h2.0292c0.3666 0 0.6666-0.3 0.6666-0.6667v-5.3333c0-0.36667-0.3-0.66667-0.6666-0.66667zm-5.3334 2.6667c-0.3666 0-0.6666-0.3-0.6666-0.6667 0-0.3666 0.3-0.6666 0.6666-0.6666 0.3667 0 0.6667 0.3 0.6667 0.6666 0 0.3667-0.3 0.6667-0.6667 0.6667zm-7.3333-8h5.3333c0.225 0 0.4459 0.01667 0.6625 0.03333 0-0.0125 0.0042-0.02083 0.0042-0.03333 0-2.2083-1.7917-4-4-4s-4 1.7917-4 4c0 0.0875 0.02084 0.17083 0.025 0.25833 0.63334-0.1625 1.2917-0.25833 1.975-0.25833z" fill="currentColor"/>
</svg>
