<svg fill="none" viewBox="0 0 24 24" xmlns="http://www.w3.org/2000/svg">
    <path d="m13.507 18.572c-0.9318-0.5415-2.0825-0.5415-3.0144 0l-1.3394 0.7782c-0.57051 0.3315-1.3 0.0294-1.469-0.6085l-0.39679-1.4974c-0.27605-1.0418-1.0897-1.8554-2.1315-2.1315l-1.4974-0.3968c-0.63782-0.169-0.93999-0.8985-0.6085-1.469l0.77827-1.3394c0.54145-0.9319 0.54145-2.0825 0-3.0144l-0.77827-1.3394c-0.33149-0.57051-0.02932-1.3 0.6085-1.469l1.4974-0.39679c1.0418-0.27605 1.8554-1.0897 2.1315-2.1315l0.39679-1.4974c0.16901-0.63782 0.89853-0.93999 1.469-0.6085l1.3394 0.77827c0.9319 0.54145 2.0826 0.54145 3.0144 0l1.3394-0.77827c0.5705-0.33149 1.3-0.02932 1.469 0.6085l0.3968 1.4974c0.2761 1.0418 1.0897 1.8554 2.1315 2.1315l1.4974 0.39679c0.6379 0.16901 0.94 0.89853 0.6085 1.469l-0.7782 1.3394c-0.5415 0.93186-0.5415 2.0825 0 3.0144l0.7782 1.3394c0.3315 0.5705 0.0294 1.3-0.6084 1.469l-1.4975 0.3968c-1.0418 0.2761-1.8554 1.0897-2.1315 2.1315l-0.3968 1.4974c-0.169 0.6379-0.8985 0.94-1.469 0.6085l-1.3394-0.7782z" clip-rule="evenodd" fill-rule="evenodd" stroke="currentColor" stroke-linecap="round" stroke-width="2"/>
    <path d="m12 13.6c1.7673 0 3.2-1.4327 3.2-3.2s-1.4327-3.2-3.2-3.2-3.2 1.4327-3.2 3.2 1.4327 3.2 3.2 3.2z" clip-rule="evenodd" fill-rule="evenodd" stroke="currentColor" stroke-linecap="round" stroke-width="2"/>
    <path d="m10.4 18.8-1.9011 3.4853c-0.27218 0.499-0.905 0.6711-1.3924 0.3787l-2.2262-1.3358c-0.48241-0.2894-0.6312-0.9197-0.32916-1.3943l2.2488-3.5339" stroke="currentColor" stroke-linecap="round" stroke-width="2"/>
    <path d="m13.6 18.8 1.9011 3.4853c0.2721 0.499 0.905 0.6711 1.3924 0.3787l2.2261-1.3358c0.4825-0.2894 0.6312-0.9197 0.3292-1.3943l-2.2488-3.5339" stroke="currentColor" stroke-linecap="round" stroke-width="2"/>
</svg>
