<svg fill="none" viewBox="0 0 24 24" xmlns="http://www.w3.org/2000/svg">
    <path d="m12 7.5c-2.4797 0-4.5 2.0203-4.5 4.5 0 2.4797 2.0203 4.5 4.5 4.5 2.4797 0 4.5-2.0203 4.5-4.5 0-2.4797-2.0203-4.5-4.5-4.5zm11.55 3.7734-4.4391-2.2172 1.5704-4.7062c0.2109-0.6375-0.3938-1.2422-1.0266-1.0266l-4.7063 1.5703-2.2218-4.4438c-0.3-0.6-1.1532-0.6-1.4532 0l-2.2172 4.4391-4.7109-1.5703c-0.6375-0.21094-1.2422 0.39375-1.0266 1.0266l1.5703 4.7062-4.4391 2.2218c-0.6 0.3-0.6 1.1532 0 1.4532l4.4391 2.2171-1.5703 4.711c-0.21094 0.6375 0.39375 1.2422 1.0266 1.0266l4.7062-1.5704 2.2172 4.4391c0.3 0.6 1.1531 0.6 1.4531 0l2.2172-4.4391 4.7062 1.5704c0.6375 0.2109 1.2422-0.3938 1.0266-1.0266l-1.5703-4.7063 4.439-2.2171c0.6094-0.3047 0.6094-1.1579 0.0094-1.4579zm-7.3078 4.9688c-2.3391 2.339-6.1453 2.339-8.4844 0-2.3391-2.3391-2.3391-6.1453 0-8.4844 2.3391-2.3391 6.1453-2.3391 8.4844 0 2.3391 2.3391 2.3391 6.1453 0 8.4844z" fill="currentColor"/>
</svg>
