<svg fill="none" viewBox="0 0 20 16" xmlns="http://www.w3.org/2000/svg">
    <path d="m19.5 6.5h-2v-2c0-0.275-0.225-0.5-0.5-0.5h-1c-0.275 0-0.5 0.225-0.5 0.5v2h-2c-0.275 0-0.5 0.225-0.5 0.5v1c0 0.275 0.225 0.5 0.5 0.5h2v2c0 0.275 0.225 0.5 0.5 0.5h1c0.275 0 0.5-0.225 0.5-0.5v-2h2c0.275 0 0.5-0.225 0.5-0.5v-1c0-0.275-0.225-0.5-0.5-0.5zm-12.5 1.5c2.2094 0 4-1.7906 4-4s-1.7906-4-4-4c-2.2094 0-4 1.7906-4 4s1.7906 4 4 4zm2.8 1h-0.52188c-0.69375 0.31875-1.4656 0.5-2.2781 0.5s-1.5812-0.18125-2.2781-0.5h-0.52188c-2.3188 0-4.2 1.8813-4.2 4.2v1.3c0 0.8281 0.67188 1.5 1.5 1.5h11c0.8281 0 1.5-0.6719 1.5-1.5v-1.3c0-2.3187-1.8813-4.2-4.2-4.2z" fill="currentColor"/>
</svg>
