<svg width="24" height="24" viewBox="0 0 24 24" xmlns="http://www.w3.org/2000/svg">
    <path d="m22.8 14h-2.4v2.4h0.84c0.1988 0 0.36 0.135 0.36 0.3v0.6c0 0.165-0.1612 0.3-0.36 0.3h-18.48c-0.19875 0-0.36-0.135-0.36-0.3v-0.6c0-0.165 0.16125-0.3 0.36-0.3h0.84v-2.4h-2.4c-0.66375 0-1.2 0.5362-1.2 1.2v3.6c0 0.6637 0.53625 1.2 1.2 1.2h21.6c0.6638 0 1.2-0.5363 1.2-1.2v-3.6c0-0.6638-0.5362-1.2-1.2-1.2zm-3.6 2.4v-11.989c0-0.67125-0.5437-1.2112-1.2112-1.2112h-11.974c-0.67125 0-1.215 0.54375-1.215 1.2112v11.989h14.4zm-11.28-6.825 0.95625-0.94875c0.1575-0.1575 0.4125-0.1575 0.57 0.00375l1.5488 1.56 3.57-3.54c0.1575-0.1575 0.4125-0.1575 0.57 0.00375l0.9487 0.95625c0.1576 0.1575 0.1576 0.4125-0.0037 0.57l-4.8112 4.77c-0.1575 0.1575-0.4126 0.1575-0.5701-0.0038l-2.7787-2.8012c-0.16125-0.15755-0.1575-0.41255 0-0.57005z" fill="currentColor"/>
</svg>
