<svg width="24" height="22" viewBox="0 0 24 22" xmlns="http://www.w3.org/2000/svg">
    <path d="m21.619 5h-17.869c-0.41438 0-0.75-0.33563-0.75-0.75 0-0.41438 0.33562-0.75 0.75-0.75h18c0.4144 0 0.75-0.33562 0.75-0.75 0-1.2427-1.0073-2.25-2.25-2.25h-17.25c-1.657 0-3 1.343-3 3v15c0 1.657 1.343 3 3 3h18.619c1.3134 0 2.3812-1.0092 2.3812-2.25v-12c0-1.2408-1.0678-2.25-2.3812-2.25zm-2.1188 9.75c-0.8283 0-1.5-0.6717-1.5-1.5s0.6717-1.5 1.5-1.5 1.5 0.6717 1.5 1.5-0.6717 1.5-1.5 1.5z" fill="currentColor"/>
</svg>
