<svg fill="none" viewBox="0 0 40 40" xmlns="http://www.w3.org/2000/svg">
    <path d="m20 39.672c10.865 0 19.672-8.8075 19.672-19.672 0-10.865-8.8075-19.672-19.672-19.672-10.865 0-19.672 8.8075-19.672 19.672 0 10.865 8.8075 19.672 19.672 19.672z" fill="#fff" stroke="#FFCE45" stroke-miterlimit="10"/>
    <path d="m20 4.6035 15.069 15.069-15.069 15.07-15.07-15.07 15.07-15.069z" fill="#FFCE45"/>
    <path d="m20 24.59-15.082-4.918 15.082-15.069 15.082 15.069-15.082 4.918z" fill="#FEBE44"/>
    <path d="m10.164 18.688h6.8852l2.9508-3.2787 3.2787 3.2787h6.8852l-10.164-10.983-9.836 10.983z" fill="#fff"/>
    <path d="M20 34.741V4.60254L35.0691 19.6718L20 34.741Z" fill="#D9A547" opacity=".42"/>
</svg>
