<svg width="32" height="32" viewBox="0 0 32 32" fill="none" xmlns="http://www.w3.org/2000/svg">
    <g clip-path="url(#clip0)">
        <path d="M16.0002 31.7377C24.6919 31.7377 31.7379 24.6917 31.7379 16C31.7379 7.30824 24.6919 0.262207 16.0002 0.262207C7.30846 0.262207 0.262451 7.30824 0.262451 16C0.262451 24.6917 7.30846 31.7377 16.0002 31.7377Z"
              fill="white" stroke="#FFCE45" stroke-miterlimit="10"/>
        <path d="M16.0002 3.68262L28.0558 15.7382L16.0002 27.794L3.94458 15.7382L16.0002 3.68262Z" fill="#FFCE45"/>
        <path d="M16.0001 19.6722L3.93457 15.7378L16.0001 3.68237L28.0657 15.7378L16.0001 19.6722Z" fill="#FEBE44"/>
        <path d="M8.1311 14.9507H13.6393L15.9999 12.3278L18.6229 14.9507H24.131L15.9999 6.16406L8.1311 14.9507Z"
              fill="white"/>
        <path opacity="0.42" d="M16 27.7932V3.68237L28.0553 15.7378L16 27.7932Z" fill="#D9A547"/>
    </g>
    <defs>
        <clipPath id="clip0">
            <rect width="32" height="32" fill="white"/>
        </clipPath>
    </defs>
</svg>
