<svg width="32" height="32" viewBox="0 0 32 32" xmlns="http://www.w3.org/2000/svg">
    <path d="m16 31.738c8.6917 0 15.738-7.046 15.738-15.738 0-8.6918-7.046-15.738-15.738-15.738-8.6917 0-15.738 7.046-15.738 15.738 0 8.6917 7.046 15.738 15.738 15.738z" fill="#fff" stroke="#FFCE45" stroke-miterlimit="10"/>
    <path d="m16 3.6826 12.056 12.056-12.056 12.056-12.056-12.056 12.056-12.056z" fill="#FFCE45"/>
    <path d="m16 19.672-12.066-3.9344 12.066-12.055 12.066 12.055-12.066 3.9344z" fill="#FEBE44"/>
    <path d="m8.1311 14.951h5.5082l2.3606-2.6229 2.623 2.6229h5.5081l-8.1311-8.7866-7.8688 8.7866z" fill="#fff"/>
    <path d="m16 27.793v-24.111l12.055 12.055-12.055 12.055z" fill="#D9A547" opacity=".42"/>
</svg>
