<svg width="32" height="32" viewBox="0 0 32 32" xmlns="http://www.w3.org/2000/svg">
    <path d="m0 16c0 8.8366 7.1634 16 16 16 8.8366 0 16-7.1634 16-16 0-8.8366-7.1634-16-16-16-8.8366 0-16 7.1634-16 16z" fill="#1E1A31"/>
    <path d="m16.742 15.238c0.4341 0 0.786 0.3518 0.786 0.7859 0 0.434-0.3519 0.7859-0.786 0.7859h-2.0405c-1.9762 0-3.5783-1.6017-3.5783-3.5775s1.6021-3.5775 3.5783-3.5775h5.2622c0.4341 0 0.7861 0.35191 0.7861 0.78591 0 0.4341-0.352 0.7859-0.7861 0.7859h-5.2622c-1.1079 0-2.0061 0.898-2.0061 2.0057s0.8982 2.0057 2.0061 2.0057h2.0405z" clip-rule="evenodd" fill="#fff" fill-rule="evenodd"/>
    <path d="m15.131 16.81c-0.4341 0-0.7861-0.3519-0.7861-0.7859 0-0.4341 0.352-0.7859 0.7861-0.7859h2.0404c1.9763 0 3.5783 1.6017 3.5783 3.5775s-1.602 3.5775-3.5783 3.5775h-5.2621c-0.4342 0-0.7861-0.3519-0.7861-0.7859 0-0.4341 0.3519-0.786 0.7861-0.786h5.2621c1.108 0 2.0061-0.8979 2.0061-2.0056s-0.8981-2.0057-2.0061-2.0057h-2.0404z" clip-rule="evenodd" fill="#fff" fill-rule="evenodd"/>
    <path d="m12.53 22.076-1.2779-0.9156 8.0378-11.215 1.2779 0.91554-8.0378 11.215z" clip-rule="evenodd" fill="#fff" fill-opacity=".5" fill-rule="evenodd"/>
</svg>
