<svg fill="none" viewBox="0 0 40 40" xmlns="http://www.w3.org/2000/svg">
    <path d="m0 20c0 11.046 8.9543 20 20 20 11.046 0 20-8.9543 20-20 0-11.046-8.9543-20-20-20-11.046 0-20 8.9543-20 20z" fill="#1E1A31"/>
    <path d="m20.927 19.047c0.5427 0 0.9826 0.4399 0.9826 0.9824 0 0.5426-0.4399 0.9824-0.9826 0.9824h-2.5506c-2.4702 0-4.4728-2.0021-4.4728-4.4719 0-2.4697 2.0026-4.4718 4.4728-4.4718h6.5778c0.5426 0 0.9826 0.4398 0.9826 0.9824 0 0.5425-0.44 0.9823-0.9826 0.9823h-6.5778c-1.3849 0-2.5076 1.1225-2.5076 2.5071 0 1.3847 1.1227 2.5071 2.5076 2.5071h2.5506z" clip-rule="evenodd" fill="#fff" fill-rule="evenodd"/>
    <path d="m18.914 21.012c-0.5426 0-0.9826-0.4399-0.9826-0.9824 0-0.5426 0.44-0.9824 0.9826-0.9824h2.5506c2.4703 0 4.4728 2.0021 4.4728 4.4718 0 2.4698-2.0025 4.4719-4.4728 4.4719h-6.5778c-0.5426 0-0.9826-0.4398-0.9826-0.9824 0-0.5425 0.44-0.9824 0.9826-0.9824h6.5778c1.3849 0 2.5076-1.1224 2.5076-2.5071 0-1.3846-1.1227-2.507-2.5076-2.507h-2.5506z" clip-rule="evenodd" fill="#fff" fill-rule="evenodd"/>
    <path d="m15.663 27.594-1.5974-1.1444 10.047-14.018 1.5974 1.1445-10.047 14.018z" clip-rule="evenodd" fill="#fff" fill-opacity=".5" fill-rule="evenodd"/>
</svg>
