<svg width="42" height="42" viewBox="0 0 40 42" xmlns="http://www.w3.org/2000/svg">
    <rect y="6" width="32" height="32" rx="16" fill="#FF4339"/>
    <path d="m15.53 21.336h-0.0909c-1.1512 0-2.0903 0.9694-2.0903 2.1509v2.3326l2.1509-1.6056 2.1508 1.6056v-2.3326c-0.0302-1.1815-0.9694-2.1509-2.1205-2.1509z" fill="#fff"/>
    <path d="m6.4421 13.46v17.54l5.4226-4.0594v-4.6349l-0.9997-0.7877 4.635-3.4838 4.6046 3.4838-0.9997 0.7877v4.6349l5.4529 4.0594v-17.54h-18.116z" fill="#fff"/>
    <rect x="21" y="23" width="18" height="18" rx="9" fill="#FF4339" stroke="#fff" stroke-width="2"/>
    <rect x="21" y="1" width="18" height="18" rx="9" fill="#FF4339" stroke="#fff" stroke-width="2"/>
    <path d="m28.111 4.827c-0.1409-0.0228-0.1469-0.02548-0.0806-0.03611 0.1271-0.02039 0.4271 0.0074 0.6339 0.0587 0.4826 0.11973 0.9218 0.42644 1.3906 0.97116l0.1245 0.14472 0.1782-0.0299c0.7506-0.12588 1.5142-0.02583 2.1529 0.28207 0.1756 0.0847 0.4527 0.25333 0.4873 0.29665 0.011 0.01381 0.0313 0.1027 0.045 0.19756 0.0474 0.32816 0.0236 0.57971-0.0725 0.76758-0.0524 0.10224-0.0553 0.13464-0.0201 0.22213 0.0281 0.06983 0.1064 0.1215 0.184 0.12139 0.1586-2.3e-4 0.3295-0.26797 0.4087-0.64053l0.0314-0.14798 0.0623 0.07363c0.3416 0.40395 0.61 0.95484 0.6561 1.347l0.0119 0.10225-0.0573-0.09295c-0.0989-0.15993-0.1982-0.26881-0.3254-0.35662-0.2292-0.15829-0.4716-0.21215-1.1134-0.24745-0.5798-0.03188-0.9079-0.08356-1.2332-0.19427-0.5535-0.18834-0.8326-0.43918-1.4901-1.3395-0.292-0.39988-0.4725-0.62112-0.6521-0.79929-0.408-0.40485-0.8089-0.61717-1.3221-0.70024z" fill="#fff"/>
    <path d="m33.128 5.7201c0.0146-0.26796 0.0493-0.4447 0.1194-0.6061 0.0277-0.06389 0.0536-0.11618 0.0577-0.11618 0.0039 0-0.0081 0.04716-0.0268 0.10479-0.0509 0.15664-0.0593 0.37089-0.0242 0.62017 0.0445 0.31628 0.0698 0.36192 0.3901 0.70357 0.1502 0.16026 0.325 0.36237 0.3883 0.44915l0.1153 0.15778-0.1153-0.11276c-0.1408-0.1379-0.4648-0.40682-0.5363-0.44526-0.048-0.02578-0.0551-0.02533-0.0847 0.00541-0.0273 0.02833-0.0331 0.07089-0.0368 0.27214-0.0059 0.31365-0.0469 0.51496-0.1457 0.71625-0.0535 0.10888-0.062 0.08564-0.0136-0.03725 0.0361-0.09175 0.0398-0.13208 0.0396-0.43571-6e-4 -0.61006-0.07-0.75673-0.477-1.008-0.1031-0.06365-0.273-0.15544-0.3775-0.20399-0.1045-0.04856-0.1876-0.09085-0.1846-0.09401 0.0116-0.01196 0.4084 0.10893 0.5683 0.17307 0.2376 0.09539 0.2768 0.10775 0.3056 0.09624 0.0194-0.00771 0.0288-0.06651 0.0382-0.23934z" fill="#fff"/>
    <path d="m28.385 6.7637c-0.286-0.41093-0.463-1.041-0.4247-1.512l0.0119-0.14575 0.0651 0.01239c0.1222 0.02327 0.333 0.10516 0.4317 0.16773 0.2709 0.17168 0.3882 0.39772 0.5075 0.97815 0.035 0.17001 0.0808 0.36241 0.1019 0.42754 0.034 0.10484 0.1623 0.34973 0.2667 0.50877 0.0751 0.11454 0.0252 0.16882-0.141 0.15317-0.2537-0.0239-0.5974-0.27145-0.8191-0.59001z" fill="#fff"/>
    <path d="m32.781 9.8223c-1.3367-0.56164-1.8074-1.0491-1.8074-1.8717 0-0.12105 4e-3 -0.22009 0.0088-0.22009 0.0049 0 0.0566 0.03995 0.115 0.08878 0.271 0.22687 0.5745 0.32378 1.4147 0.4517 0.4945 0.07529 0.7728 0.13609 1.0294 0.22492 0.8158 0.28237 1.3206 0.85538 1.441 1.6358 0.035 0.2268 0.0144 0.6521-0.0423 0.8762-0.0447 0.1771-0.1814 0.4962-0.2176 0.5085-0.0101 0.0033-0.0199-0.0369-0.0225-0.0915-0.0137-0.2931-0.1556-0.5784-0.3939-0.7921-0.271-0.243-0.635-0.4365-1.5252-0.81053z" fill="#fff"/>
    <path d="m31.843 10.055c-0.0167-0.10405-0.0457-0.23687-0.0645-0.29521l-0.0341-0.10604 0.0633 0.0742c0.0877 0.10269 0.157 0.23409 0.2157 0.40915 0.0448 0.1335 0.0498 0.1733 0.0495 0.3903-3e-4 0.2131-0.0059 0.2578-0.0473 0.378-0.0652 0.1896-0.1462 0.324-0.2821 0.4683-0.2442 0.2594-0.5581 0.403-1.0111 0.4625-0.0787 0.0103-0.3082 0.0278-0.51 0.0387-0.5085 0.0276-0.8431 0.0847-1.1438 0.1949-0.0433 0.0158-0.0819 0.0254-0.0858 0.0214-0.0122-0.0127 0.1926-0.1401 0.3617-0.2251 0.2384-0.1199 0.4758-0.1853 1.0076-0.2777 0.2627-0.0457 0.5341-0.1011 0.603-0.1231 0.6506-0.2082 0.985-0.7454 0.8779-1.4103z" fill="#fff"/>
    <path d="m32.456 11.191c-0.1776-0.3984-0.2184-0.7831-0.1211-1.1418 0.0105-0.0384 0.0272-0.06975 0.0373-0.06975 0.01 0 0.0519 0.02365 0.0931 0.05255 0.0818 0.0575 0.246 0.1543 0.6832 0.4031 0.5456 0.3105 0.8568 0.5509 1.0684 0.8255 0.1852 0.2406 0.2999 0.5146 0.3551 0.8487 0.0312 0.1891 0.0129 0.6445-0.0337 0.835-0.1466 0.6008-0.4876 1.0728-0.9739 1.3482-0.0713 0.0403-0.1352 0.0734-0.1421 0.0736-7e-3 2e-4 0.019-0.0687 0.0577-0.1531 0.1635-0.3569 0.1822-0.704 0.0585-1.0904-0.0758-0.2367-0.2302-0.5254-0.5419-1.0133-0.3626-0.5673-0.4514-0.7183-0.5406-0.9183z" fill="#fff"/>
    <path d="m27.435 13.341c0.496-0.437 1.1132-0.7475 1.6754-0.8429 0.2423-0.041 0.6459-0.0248 0.8702 0.0352 0.3597 0.096 0.6814 0.3112 0.8487 0.5675 0.1635 0.2505 0.2336 0.4688 0.3067 0.9544 0.0288 0.1917 0.0601 0.384 0.0696 0.4276 0.0548 0.2517 0.1616 0.4529 0.2938 0.554 0.2101 0.1604 0.5718 0.1703 0.9277 0.0255 0.0604-0.0246 0.1128-0.0416 0.1165-0.0377 0.0129 0.0133-0.1663 0.1385-0.2927 0.2044-0.1701 0.0887-0.3054 0.123-0.4851 0.123-0.3259 0-0.5965-0.173-0.8222-0.5258-0.0445-0.0695-0.1443-0.2774-0.222-0.4622-0.2383-0.5674-0.3561-0.7402-0.6328-0.9294-0.2409-0.1646-0.5516-0.1941-0.7852-0.0745-0.307 0.1571-0.3927 0.5664-0.1728 0.8259 0.0874 0.1031 0.2503 0.192 0.3836 0.2093 0.2493 0.0324 0.4635-0.1655 0.4635-0.4282 0-0.1705-0.0628-0.2678-0.2209-0.3423-0.216-0.1017-0.4481 0.0172-0.447 0.2289 4e-4 0.0903 0.0381 0.1469 0.1248 0.1879 0.0557 0.0263 0.057 0.0283 0.0116 0.0185-0.1982-0.0429-0.2446-0.2922-0.0853-0.4577 0.1913-0.1986 0.5869-0.111 0.7227 0.1603 0.0571 0.1139 0.0637 0.3408 0.0139 0.4777-0.1113 0.3067-0.436 0.4678-0.7653 0.3801-0.2242-0.0598-0.3155-0.1244-0.5859-0.415-0.4698-0.505-0.6521-0.6029-1.3294-0.7132l-0.1297-0.0212 0.1476-0.1301z" fill="#fff"/>
    <path d="m25.231 4.3021c1.5688 1.9871 2.6494 2.8069 2.7694 2.9801 0.0992 0.14302 0.0619 0.2716-0.108 0.37238-0.0944 0.05602-0.2886 0.11279-0.3858 0.11279-0.11 0-0.1478-0.04427-0.1478-0.04427-0.0637-0.06311-0.0996-0.05208-0.4271-0.65861-0.4545-0.73611-0.835-1.3468-0.8453-1.357-0.024-0.02364-0.0236-0.02284 0.799 1.5132 0.1329 0.32015 0.0264 0.43767 0.0264 0.48326 0 0.09276-0.0242 0.14151-0.1339 0.26915-0.1827 0.2128-0.2645 0.45191-0.3234 0.94675-0.0662 0.55473-0.2521 0.94657-0.7674 1.6172-0.3016 0.3925-0.3509 0.4645-0.4271 0.6227-0.0958 0.1993-0.1222 0.3109-0.1329 0.5625-0.0113 0.266 0.0107 0.4379 0.0886 0.6922 0.0682 0.2227 0.1394 0.3697 0.3213 0.6638 0.157 0.2538 0.2474 0.4424 0.2474 0.5162 0 0.0587 0.0108 0.0588 0.2541 0.0014 0.5822-0.1372 1.055-0.3785 1.3209-0.6743 0.1646-0.1831 0.2032-0.2841 0.2045-0.5349 8e-4 -0.1641-0.0047-0.1985-0.0472-0.2929-0.0692-0.1536-0.1952-0.2814-0.4728-0.4794-0.3637-0.2595-0.519-0.4684-0.5619-0.7557-0.0352-0.2357 0.0056-0.402 0.2068-0.8421 0.2083-0.45557 0.2599-0.64969 0.2948-1.1089 0.0226-0.29666 0.0538-0.41365 0.1355-0.50756 0.0851-0.09792 0.1618-0.13109 0.3726-0.16115 0.3437-0.04899 0.5625-0.14178 0.7424-0.31477 0.1561-0.15007 0.2214-0.29467 0.2314-0.51235l0.0076-0.16498-0.0872-0.10611c-0.3158-0.38426-3.3663-3.1408-3.3858-3.1408-0.0041 0 0.0998 0.13594 0.2309 0.30207zm0.7307 7.7212c0.0714-0.132 0.0335-0.3016-0.086-0.3845-0.1128-0.0783-0.2881-0.0414-0.2881 0.0606 0 0.0312 0.0165 0.0538 0.0537 0.0738 0.0626 0.0336 0.0671 0.0715 0.0179 0.1487-0.0499 0.0783-0.0459 0.1471 0.0113 0.1938 0.0923 0.0754 0.2228 0.0339 0.2912-0.0924z" clip-rule="evenodd" fill="#fff" fill-rule="evenodd"/>
    <path d="m28.69 8.3256c-0.1614 0.05171-0.3182 0.23016-0.3668 0.41728-0.0296 0.11415-0.0128 0.31439 0.0316 0.37623 0.0717 0.09988 0.141 0.12619 0.3286 0.12482 0.3675-0.00268 0.6869-0.16713 0.724-0.37271 0.0305-0.16853-0.1098-0.40208-0.3031-0.50462-0.0997-0.05288-0.3117-0.07386-0.4143-0.041zm0.4295 0.35051c0.0567-0.08403 0.0319-0.17483-0.0645-0.23624-0.1835-0.11695-0.461-0.02017-0.461 0.16075 0 0.09006 0.1447 0.18832 0.2773 0.18832 0.0883 0 0.2092-0.05495 0.2482-0.11283z" clip-rule="evenodd" fill="#fff" fill-rule="evenodd"/>
    <path d="m26.857 33.23v0.77h-3.612v-0.609l1.946-1.848c0.2193-0.21 0.3663-0.392 0.441-0.546 0.0793-0.1587 0.119-0.315 0.119-0.469 0-0.2287-0.077-0.4037-0.231-0.525s-0.3803-0.182-0.679-0.182c-0.4993 0-0.882 0.1703-1.148 0.511l-0.637-0.49c0.1913-0.2567 0.448-0.455 0.77-0.595 0.3267-0.1447 0.6907-0.217 1.092-0.217 0.532 0 0.9567 0.126 1.274 0.378s0.476 0.595 0.476 1.029c0 0.266-0.056 0.5157-0.168 0.749s-0.3267 0.4993-0.644 0.798l-1.309 1.246h2.31zm1.1396 0.819c-0.1587 0-0.294-0.0537-0.406-0.161-0.112-0.112-0.168-0.252-0.168-0.42 0-0.1727 0.0536-0.3127 0.161-0.42 0.112-0.1073 0.2496-0.161 0.413-0.161 0.1633 0 0.2986 0.0537 0.406 0.161 0.112 0.1073 0.168 0.2473 0.168 0.42 0 0.168-0.056 0.308-0.168 0.42-0.112 0.1073-0.2474 0.161-0.406 0.161zm2.696-3.052c0.6906 0 1.2016 0.1353 1.533 0.406 0.3313 0.266 0.497 0.63 0.497 1.092 0 0.294-0.0724 0.56-0.217 0.798-0.1447 0.238-0.3617 0.427-0.651 0.567-0.2894 0.14-0.6464 0.21-1.071 0.21-0.35 0-0.6884-0.049-1.015-0.147-0.3267-0.1027-0.602-0.2427-0.826-0.42l0.385-0.707c0.182 0.1493 0.399 0.2683 0.651 0.357 0.2566 0.084 0.5203 0.126 0.791 0.126 0.322 0 0.574-0.0653 0.756-0.196 0.1866-0.1353 0.28-0.3197 0.28-0.553 0-0.252-0.1004-0.441-0.301-0.567-0.196-0.1307-0.5344-0.196-1.015-0.196h-1.183l0.252-2.667h2.877v0.763h-2.107l-0.105 1.134h0.469zm5.1325 3.003-0.959-1.295-0.966 1.295h-0.966l1.456-1.897-1.393-1.841h0.973l0.917 1.225 0.917-1.225h0.945l-1.4 1.827 1.463 1.911h-0.987z" fill="#fff"/>
</svg>
