<svg fill="none" viewBox="0 0 42 44" xmlns="http://www.w3.org/2000/svg">
    <rect y="2" width="40" height="40" rx="20" fill="#FF4339"/>
    <path d="m19.414 21.17h-0.1136c-1.4389 0-2.6128 1.2118-2.6128 2.6886v2.9158l2.6885-2.007 2.6886 2.007v-2.9158c-0.0379-1.4768-1.2117-2.6886-2.6507-2.6886z" fill="#fff"/>
    <path d="m8.053 11.325v21.925l6.7782-5.0742v-5.7937l-1.2496-0.9845 5.7937-4.3548 5.7558 4.3548-1.2496 0.9845v5.7937l6.8161 5.0742v-21.925h-22.645z" fill="#fff"/>
    <rect x="23" y="1" width="18" height="18" rx="9" fill="#FF4339" stroke="#fff" stroke-width="2"/>
    <path d="m30.111 4.8525c-0.1409-0.02351-0.1469-0.02626-0.0806-0.03723 0.1271-0.02101 0.4271 0.00763 0.6339 0.06051 0.4826 0.1234 0.9218 0.43953 1.3906 1.001l0.1246 0.14916 0.1781-0.03081c0.7506-0.12975 1.5142-0.02663 2.1529 0.29072 0.1757 0.08731 0.4527 0.26111 0.4873 0.30577 0.0111 0.01423 0.0313 0.10585 0.045 0.20362 0.0474 0.33824 0.0237 0.59751-0.0725 0.79116-0.0523 0.10537-0.0552 0.13877-0.02 0.22895 0.0281 0.07196 0.1064 0.12523 0.1839 0.12511 0.1587-2.3e-4 0.3295-0.2762 0.4087-0.6602l0.0315-0.15252 0.0622 0.07589c0.3417 0.41635 0.61 0.98416 0.6561 1.3883l0.012 0.10539-0.0574-0.0958c-0.0988-0.16485-0.1982-0.27707-0.3253-0.36758-0.2293-0.16314-0.4716-0.21866-1.1135-0.25505-0.5797-0.03285-0.9078-0.08611-1.2332-0.20023-0.5535-0.19412-0.8325-0.45266-1.4901-1.3806-0.292-0.41216-0.4725-0.64019-0.6521-0.82383-0.408-0.41728-0.8089-0.63612-1.3221-0.72174z" fill="#fff"/>
    <path d="m35.128 5.7728c0.0146-0.27618 0.0494-0.45835 0.1194-0.62472 0.0277-0.06584 0.0537-0.11974 0.0577-0.11974s-0.0081 0.0486-0.0268 0.108c-0.0509 0.16146-0.0593 0.38229-0.0242 0.63923 0.0445 0.326 0.0698 0.37304 0.3902 0.72519 0.1502 0.16518 0.325 0.3735 0.3883 0.46294l0.1152 0.16263-0.1152-0.11622c-0.1409-0.14213-0.4648-0.41932-0.5364-0.45894-0.048-0.02657-0.0551-0.02611-0.0847 0.00558-0.0273 0.02919-0.0331 0.07307-0.0368 0.28049-0.0059 0.32329-0.0469 0.53079-0.1457 0.73827-0.0535 0.11221-0.062 0.08826-0.0136-0.0384 0.0361-0.09457 0.0398-0.13614 0.0396-0.4491-6e-4 -0.62881-0.07-0.77998-0.477-1.0389-0.103-0.0656-0.273-0.16021-0.3775-0.21026-0.1045-0.05004-0.1875-0.09363-0.1845-0.09689 0.0115-0.01233 0.4084 0.11227 0.5682 0.17838 0.2376 0.09832 0.2768 0.11107 0.3057 0.09921 0.0194-0.00796 0.0287-0.06856 0.0381-0.24671z" fill="#fff"/>
    <path d="m30.385 6.8485c-0.286-0.42355-0.463-1.073-0.4247-1.5584l0.0119-0.15023 0.0651 0.01278c0.1222 0.02398 0.3331 0.10838 0.4318 0.17287 0.2708 0.17696 0.3881 0.40994 0.5074 1.0082 0.035 0.17523 0.0808 0.37353 0.1019 0.44067 0.034 0.10806 0.1623 0.36046 0.2667 0.52438 0.0752 0.11807 0.0252 0.17401-0.1409 0.15788-0.2538-0.02463-0.5975-0.27978-0.8192-0.60812z" fill="#fff"/>
    <path d="m34.781 10.001c-1.3367-0.57887-1.8074-1.0814-1.8074-1.9292 0-0.12477 4e-3 -0.22685 0.0088-0.22685 0.0049 0 0.0566 0.04117 0.115 0.09151 0.271 0.23384 0.5745 0.33372 1.4148 0.46557 0.4944 0.0776 0.7727 0.14028 1.0294 0.23183 0.8158 0.29104 1.3205 0.88165 1.4409 1.6861 0.035 0.2337 0.0145 0.6721-0.0423 0.9031-0.0447 0.1825-0.1813 0.5114-0.2176 0.524-0.01 0.0035-0.0199-0.0379-0.0225-0.0943-0.0137-0.302-0.1556-0.5961-0.3939-0.8164-0.271-0.2505-0.635-0.4499-1.5252-0.8354z" fill="#fff"/>
    <path d="m33.843 10.241c-0.0167-0.1072-0.0458-0.2441-0.0645-0.30422l-0.0341-0.1093 0.0633 0.07648c0.0877 0.10584 0.157 0.24124 0.2157 0.42164 0.0448 0.1377 0.0498 0.1786 0.0495 0.4024-3e-4 0.2196-0.0059 0.2657-0.0473 0.3896-0.0653 0.1954-0.1462 0.3339-0.2821 0.4827-0.2442 0.2673-0.5581 0.4153-1.0111 0.4766-0.0787 0.0107-0.3082 0.0287-0.51 0.0399-0.5085 0.0285-0.8431 0.0873-1.1438 0.2009-0.0433 0.0163-0.0819 0.0262-0.0858 0.022-0.0122-0.013 0.1926-0.1443 0.3617-0.2319 0.2384-0.1236 0.4758-0.191 1.0076-0.2863 0.2627-0.0471 0.534-0.1042 0.6029-0.1269 0.6506-0.2145 0.9851-0.7682 0.878-1.4536z" fill="#fff"/>
    <path d="m34.456 11.412c-0.1776-0.4106-0.2184-0.8071-0.1211-1.1769 0.0104-0.0395 0.0271-0.0718 0.0372-0.0718s0.052 0.0244 0.0931 0.0541c0.0819 0.0593 0.246 0.1591 0.6832 0.4155 0.5457 0.32 0.8568 0.5678 1.0684 0.8509 0.1853 0.2479 0.2999 0.5303 0.3551 0.8747 0.0313 0.195 0.0129 0.6643-0.0336 0.8607-0.1467 0.6193-0.4877 1.1057-0.974 1.3895-0.0712 0.0416-0.1352 0.0758-0.1421 0.0759-7e-3 2e-4 0.019-0.0708 0.0577-0.1578 0.1635-0.3678 0.1822-0.7256 0.0585-1.1239-0.0757-0.2439-0.2302-0.5415-0.5419-1.0444-0.3625-0.5847-0.4514-0.7403-0.5405-0.9465z" fill="#fff"/>
    <path d="m29.435 13.628c0.496-0.4505 1.1132-0.7706 1.6754-0.8688 0.2423-0.0424 0.6459-0.0256 0.8702 0.0362 0.3596 0.099 0.6813 0.3208 0.8486 0.5849 0.1635 0.2582 0.2337 0.4832 0.3067 0.9838 0.0288 0.1975 0.0602 0.3958 0.0697 0.4407 0.0548 0.2595 0.1615 0.4668 0.2938 0.571 0.2101 0.1654 0.5718 0.1756 0.9276 0.0263 0.0604-0.0254 0.1129-0.0429 0.1165-0.0389 0.013 0.0138-0.1662 0.1428-0.2926 0.2107-0.1701 0.0914-0.3054 0.1268-0.4851 0.1268-0.3259 0-0.5965-0.1783-0.8223-0.542-0.0444-0.0716-0.1443-0.2859-0.2219-0.4763-0.2384-0.5849-0.3561-0.763-0.6329-0.958-0.2408-0.1696-0.5515-0.2001-0.7852-0.0768-0.3069 0.1619-0.3926 0.5839-0.1727 0.8513 0.0874 0.1063 0.2503 0.1979 0.3836 0.2157 0.2492 0.0334 0.4635-0.1706 0.4635-0.4413 0-0.1758-0.0628-0.2761-0.221-0.3529-0.2159-0.1048-0.4481 0.0178-0.447 0.236 5e-4 0.0931 0.0382 0.1514 0.1249 0.1937 0.0557 0.0271 0.0569 0.0292 0.0116 0.019-0.1982-0.0441-0.2446-0.3011-0.0853-0.4717 0.1913-0.2047 0.5868-0.1144 0.7227 0.1652 0.057 0.1174 0.0637 0.3512 0.0139 0.4924-0.1113 0.316-0.436 0.4822-0.7653 0.3918-0.2243-0.0617-0.3156-0.1283-0.5859-0.4278-0.4698-0.5206-0.6521-0.6214-1.3294-0.7351l-0.1297-0.0218 0.1476-0.1341z" fill="#fff"/>
    <path d="m27.231 4.3113c1.5688 2.0481 2.6493 2.8931 2.7694 3.0717 0.0992 0.14742 0.0618 0.27994-0.108 0.38381-0.0944 0.05775-0.2886 0.11626-0.3859 0.11626-0.1099 0-0.1477-0.04563-0.1477-0.04563-0.0637-0.06505-0.0996-0.05368-0.4271-0.67884-0.4545-0.75872-0.835-1.3881-0.8453-1.3986-0.024-0.02437-0.0236-0.02355 0.799 1.5597 0.1329 0.32998 0.0264 0.45111 0.0264 0.4981 0 0.09561-0.0242 0.14586-0.1339 0.27742-0.1828 0.21933-0.2645 0.46578-0.3234 0.97583-0.0662 0.57176-0.2521 0.97564-0.7674 1.6668-0.3016 0.4047-0.3509 0.4788-0.4271 0.6419-0.0958 0.2054-0.1222 0.3204-0.1329 0.5797-0.0113 0.2743 0.0107 0.4514 0.0886 0.7136 0.0682 0.2295 0.1394 0.381 0.3213 0.6841 0.157 0.2616 0.2474 0.456 0.2474 0.5321 0 0.0605 0.0108 0.0606 0.2541 0.0014 0.5822-0.1414 1.055-0.3901 1.3209-0.695 0.1646-0.1887 0.2032-0.2929 0.2045-0.5513 8e-4 -0.1692-0.0047-0.2046-0.0472-0.3019-0.0692-0.1584-0.1952-0.29-0.4728-0.4941-0.3637-0.2675-0.519-0.4828-0.5619-0.7789-0.0352-0.243 0.0056-0.4144 0.2068-0.868 0.2083-0.46957 0.2599-0.66966 0.2948-1.1429 0.0225-0.30577 0.0538-0.42636 0.1354-0.52315 0.0852-0.10094 0.1619-0.13512 0.3727-0.1661 0.3437-0.0505 0.5625-0.14614 0.7424-0.32444 0.1561-0.15468 0.2214-0.30372 0.2314-0.52808l0.0076-0.17006-0.0872-0.10936c-0.3158-0.39607-3.3663-3.2373-3.3858-3.2373-0.0041 0 0.0998 0.14011 0.2309 0.31134zm0.7307 7.9584c0.0714-0.136 0.0335-0.3108-0.086-0.3963-0.1128-0.0807-0.2881-0.0426-0.2881 0.0625 0 0.0321 0.0165 0.0555 0.0537 0.0761 0.0626 0.0346 0.0671 0.0736 0.0179 0.1532-0.0499 0.0807-0.0459 0.1516 0.0113 0.1998 0.0923 0.0777 0.2228 0.035 0.2912-0.0953z" clip-rule="evenodd" fill="#fff" fill-rule="evenodd"/>
    <path d="m30.69 8.4584c-0.1614 0.05335-0.3182 0.23746-0.3668 0.43051-0.0296 0.11777-0.0128 0.32435 0.0316 0.38815 0.0717 0.10304 0.141 0.13019 0.3287 0.12877 0.3674-0.00276 0.6868-0.17242 0.7239-0.38452 0.0305-0.17387-0.1098-0.41482-0.303-0.5206-0.0998-0.05457-0.3118-0.07621-0.4144-0.04231zm0.4295 0.36162c0.0567-0.08669 0.0319-0.18037-0.0645-0.24373-0.1835-0.12065-0.461-0.02081-0.461 0.16585 0 0.09291 0.1447 0.19428 0.2774 0.19428 0.0883 0 0.2091-0.05669 0.2481-0.1164z" clip-rule="evenodd" fill="#fff" fill-rule="evenodd"/>
    <path d="m32 43c4.9856 0 9-4.0144 9-9s-4.0144-9-9-9-9 4.0144-9 9 4.0144 9 9 9z" fill="#FF4339" stroke="#fff" stroke-width="2"/>
    <path d="m34.2 35.267c0-1.1666-0.7-1.5666-2.1-1.7332-1-0.1334-1.2-0.4-1.2-0.8668 0-0.4667 0.3334-0.7666 1-0.7666 0.6 0 0.9334 0.2 1.1 0.7 0.0334 0.1 0.1334 0.1666 0.2334 0.1666h0.5333c0.1333 0 0.2333-0.1 0.2333-0.2332v-0.0334c-0.1333-0.7334-0.7333-1.3-1.5-1.3666v-0.8c0-0.1334-0.1-0.2334-0.2666-0.2667h-0.5c-0.1334 0-0.2334 0.1-0.2667 0.2667v0.7666c-1 0.1334-1.6333 0.8-1.6333 1.6334 0 1.1 0.6666 1.5332 2.0666 1.7 0.9334 0.1666 1.2334 0.3666 1.2334 0.9 0 0.5333-0.4667 0.9-1.1 0.9-0.8667 0-1.1667-0.3668-1.2667-0.8668-0.0333-0.1332-0.1333-0.2-0.2333-0.2h-0.5667c-0.1333 0-0.2333 0.1-0.2333 0.2334v0.0334c0.1333 0.8332 0.6666 1.4332 1.7666 1.6v0.8c0 0.1332 0.1 0.2332 0.2667 0.2666h0.5c0.1333 0 0.2333-0.1 0.2667-0.2666v-0.8c1-0.1668 1.6666-0.8668 1.6666-1.7668z" fill="#fff"/>
    <path d="m30.3 38.766c-2.6-0.9332-3.9334-3.8332-2.9667-6.4 0.5-1.4 1.6-2.4666 2.9667-2.9666 0.1333-0.0666 0.2-0.1666 0.2-0.3334v-0.4666c0-0.1334-0.0667-0.2334-0.2-0.2666-0.0334 0-0.1 0-0.1334 0.0332-3.1666 1-4.9 4.3668-3.9 7.5334 0.6 1.8666 2.0334 3.3 3.9 3.9 0.1334 0.0666 0.2667 0 0.3-0.1334 0.0334-0.0332 0.0334-0.0666 0.0334-0.1332v-0.4668c0-0.1-0.1-0.2332-0.2-0.3zm3.5333-10.4c-0.1333-0.0666-0.2667 0-0.3 0.1334-0.0333 0.0334-0.0333 0.0666-0.0333 0.1334v0.4666c0 0.1334 0.1 0.2666 0.2 0.3334 2.6 0.9332 3.9333 3.8332 2.9666 6.4-0.5 1.4-1.6 2.4666-2.9666 2.9666-0.1334 0.0666-0.2 0.1666-0.2 0.3334v0.4666c0 0.1334 0.0666 0.2334 0.2 0.2666 0.0333 0 0.1 0 0.1333-0.0332 3.1667-1 4.9-4.3668 3.9-7.5334-0.6-1.9-2.0667-3.3334-3.9-3.9334z" fill="#fff"/>
</svg>
