<svg fill="none" viewBox="0 0 40 40" xmlns="http://www.w3.org/2000/svg">
    <path d="m20 40c11.082 0 20-8.918 20-20s-8.918-20-20-20-20 8.918-20 20 8.918 20 20 20z" fill="#2775c9"/>
    <path d="m25.5 23.168c0-2.918-1.75-3.918-5.25-4.3359-2.5-0.33203-3-1-3-2.1641 0-1.168 0.83203-1.918 2.5-1.918 1.5 0 2.332 0.5 2.75 1.75 0.082031 0.25 0.33203 0.41797 0.58203 0.41797h1.3359c0.33203 0 0.58203-0.25 0.58203-0.58594v-0.082031c-0.33203-1.832-1.832-3.25-3.75-3.418v-2c0-0.33203-0.25-0.58203-0.66797-0.66406h-1.25c-0.33203 0-0.58203 0.25-0.66406 0.66406v1.918c-2.5 0.33203-4.0859 2-4.0859 4.082 0 2.75 1.668 3.8359 5.168 4.25 2.332 0.41797 3.082 0.91797 3.082 2.25 0 1.3359-1.1641 2.25-2.75 2.25-2.1641 0-2.9141-0.91406-3.1641-2.1641-0.085938-0.33594-0.33594-0.5-0.58594-0.5h-1.4141c-0.33594 0-0.58594 0.25-0.58594 0.58203v0.082031c0.33594 2.0859 1.668 3.5859 4.418 4v2c0 0.33594 0.25 0.58594 0.66797 0.66797h1.25c0.33203 0 0.58203-0.25 0.66406-0.66797v-2c2.5-0.41406 4.168-2.1641 4.168-4.4141z" fill="#fff"/>
    <path d="m15.75 31.918c-6.5-2.3359-9.832-9.5859-7.418-16 1.25-3.5 4-6.168 7.418-7.418 0.33203-0.16797 0.5-0.41797 0.5-0.83203v-1.168c0-0.33203-0.16797-0.58203-0.5-0.66797-0.082031 0-0.25 0-0.33203 0.085938-7.918 2.5-12.25 10.914-9.75 18.832 1.5 4.668 5.082 8.25 9.75 9.75 0.33203 0.16797 0.66406 0 0.75-0.33203 0.082031-0.085938 0.082031-0.16797 0.082031-0.33594v-1.1641c0-0.25-0.25-0.58594-0.5-0.75zm8.832-26c-0.33203-0.16797-0.66406 0-0.75 0.33203-0.082031 0.082031-0.082031 0.16797-0.082031 0.33203v1.168c0 0.33203 0.25 0.66797 0.5 0.83203 6.5 2.3359 9.832 9.5859 7.418 16-1.25 3.5-4 6.168-7.418 7.418-0.33203 0.16797-0.5 0.41797-0.5 0.83203v1.168c0 0.33203 0.16797 0.58203 0.5 0.66797 0.082031 0 0.25 0 0.33203-0.085938 7.918-2.5 12.25-10.914 9.75-18.832-1.5-4.75-5.1641-8.332-9.75-9.832z" fill="#fff"/>
</svg>
