<svg width="596" height="596" viewBox="0 0 596 596" xmlns="http://www.w3.org/2000/svg">
    <g transform="translate(0 596) scale(.1 -.1)" fill="#FF4C2F">
        <path d="m1870 4964c-300-96-602-192-673-214l-127-41v-882c0-528 4-926 10-992 44-462 244-900 578-1264 76-83 1282-1134 1316-1147 14-5 1074 899 1248 1065 302 287 538 707 622 1109 44 212 47 291 44 1231l-3 884-679 214c-373 117-680 212-682 211-1-2 55-113 126-248l129-245 193-62c106-34 266-85 356-113l163-51-4-812c-3-780-4-816-24-907-76-343-233-634-474-880-46-47-280-254-519-459-239-206-447-385-462-399l-26-24-459 395c-561 484-645 566-779 772-103 159-179 330-225 507-45 180-49 247-49 1049v757l143 45c78 25 238 76 355 113 116 37 212 71 212 74s56 113 125 244c69 132 125 241 125 243 0 6-12 2-560-173z"/>
        <path d="m2954 5108c-9-18-261-499-559-1068l-542-1035 8-84c18-172 82-354 186-519 37-60 48-71 58-60 6 7 204 381 440 831 235 449 430 817 434 817 3 0 201-364 439-808s437-815 443-825c10-17 12-16 28 5 103 135 188 358 212 555l12 100-568 1059c-312 582-569 1061-571 1062-1 2-10-11-20-30z"/>
        <path d="m2700 2561-275-549 155-135c85-74 210-181 277-237l123-102 27 22c16 12 139 119 274 238l247 216-274 548c-151 301-275 548-277 548-1 0-126-247-277-549z"/>
    </g>
</svg>
