<svg width="109" height="26" viewBox="0 0 109 26" fill="none" xmlns="http://www.w3.org/2000/svg">
    <path d="M43.3959 19.3421L40.6076 14.8112L39.4652 15.9923V19.3421H36.8512V5.49756H39.4652V13.1653L42.9893 9.40888H46.1454L42.4858 13.1847L46.5908 19.3421H43.3959Z"
          fill="#13202B"/>
    <path d="M51.4072 19.6325C49.8065 19.6325 48.5479 19.142 47.6314 18.161C46.7149 17.167 46.2566 15.9019 46.2566 14.3658C46.2566 12.8813 46.7149 11.6421 47.6314 10.6481C48.5479 9.64124 49.7226 9.1378 51.1555 9.1378C52.7174 9.1378 53.9244 9.67997 54.7763 10.7643C55.6283 11.8486 56.0543 13.3008 56.0543 15.121H48.8513C48.9545 15.9084 49.2192 16.5216 49.6451 16.9605C50.0711 17.3864 50.652 17.5994 51.3878 17.5994C52.356 17.5994 52.9949 17.1928 53.3048 16.3796H55.8994C55.7058 17.309 55.2152 18.0835 54.4278 18.7031C53.6404 19.3227 52.6335 19.6325 51.4072 19.6325ZM51.1942 11.1709C49.9162 11.1709 49.1482 11.8809 48.89 13.3008H53.3048C53.266 12.6683 53.053 12.1584 52.6658 11.7712C52.2785 11.371 51.788 11.1709 51.1942 11.1709Z"
          fill="#13202B"/>
    <path d="M57.2025 22.5951V20.5232H58.1319C59.1129 20.5232 59.6035 20.0714 59.6035 19.1678C59.6035 18.7289 59.3518 17.8318 58.8483 16.4764L56.1762 9.40888H58.9451L60.4167 13.8817L61.0557 16.0504H61.0944C61.2752 15.2113 61.4688 14.4884 61.6753 13.8817L63.0695 9.40888H65.7222L62.2562 19.5938C61.8689 20.7298 61.4301 21.5108 60.9395 21.9367C60.4619 22.3756 59.7326 22.5951 58.7515 22.5951H57.2025Z"
          fill="#13202B"/>
    <path d="M70.5472 19.6325C69.1273 19.6325 68.0171 19.3227 67.2168 18.7031C66.4164 18.0706 65.9775 17.2122 65.9001 16.1278H68.3398C68.5076 17.2251 69.2305 17.7737 70.5085 17.7737C71.0894 17.7737 71.5347 17.6704 71.8445 17.4639C72.1672 17.2574 72.3286 16.9798 72.3286 16.6313C72.3286 16.5022 72.3028 16.386 72.2511 16.2827C72.2124 16.1795 72.135 16.0891 72.0188 16.0117C71.9155 15.9213 71.8187 15.8503 71.7283 15.7987C71.6509 15.747 71.5089 15.6954 71.3024 15.6438C71.0958 15.5921 70.9345 15.5534 70.8183 15.5276C70.715 15.5018 70.5278 15.4695 70.2568 15.4308C69.9986 15.3791 69.8179 15.3404 69.7146 15.3146C69.1724 15.2113 68.7271 15.1081 68.3785 15.0048C68.0429 14.8886 67.6879 14.7273 67.3136 14.5207C66.9392 14.3013 66.6552 14.0108 66.4616 13.6494C66.2809 13.275 66.1905 12.8297 66.1905 12.3133C66.1905 11.2806 66.5649 10.4932 67.3136 9.95105C68.0752 9.40889 69.0498 9.1378 70.2374 9.1378C71.5154 9.1378 72.5158 9.4347 73.2387 10.0285C73.9745 10.6094 74.394 11.4097 74.4973 12.4295H72.1156C72.0123 11.4614 71.3734 10.9773 70.1987 10.9773C69.6694 10.9773 69.2499 11.0741 68.9401 11.2677C68.6432 11.4614 68.4947 11.7324 68.4947 12.081C68.4947 12.1972 68.5141 12.3069 68.5528 12.4102C68.6044 12.5005 68.6819 12.5844 68.7852 12.6619C68.9013 12.7264 69.0111 12.7845 69.1143 12.8361C69.2176 12.8749 69.3661 12.92 69.5597 12.9717C69.7533 13.0104 69.9211 13.0491 70.0631 13.0879C70.2051 13.1137 70.3988 13.1524 70.644 13.204C70.8893 13.2428 71.0829 13.275 71.2249 13.3008C71.638 13.3912 71.9736 13.4751 72.2318 13.5526C72.5029 13.6171 72.8127 13.7333 73.1612 13.9011C73.5097 14.056 73.7808 14.2367 73.9745 14.4433C74.181 14.6369 74.3553 14.908 74.4973 15.2565C74.6522 15.5921 74.7296 15.9858 74.7296 16.4377C74.7296 17.4187 74.3424 18.1997 73.5678 18.7806C72.8062 19.3486 71.7993 19.6325 70.5472 19.6325Z"
          fill="#13202B"/>
    <path d="M75.1476 11.1516V9.40888H76.5224V6.3108H79.0976V9.40888H80.8016V11.1516H79.0976V16.4183C79.0976 17.0766 79.4268 17.4058 80.0851 17.4058L80.8597 17.3864V19.3227C80.4595 19.3486 79.9109 19.3615 79.2138 19.3615C78.4522 19.3615 77.8132 19.1807 77.2969 18.8193C76.7805 18.445 76.5224 17.8318 76.5224 16.9798V11.1516H75.1476Z"
          fill="#13202B"/>
    <path d="M90.5053 18.1416C89.5372 19.1356 88.2915 19.6325 86.7683 19.6325C85.245 19.6325 83.9993 19.1356 83.0312 18.1416C82.063 17.1347 81.579 15.8826 81.579 14.3852C81.579 12.8878 82.063 11.6421 83.0312 10.6481C83.9993 9.64124 85.245 9.1378 86.7683 9.1378C88.2915 9.1378 89.5372 9.64124 90.5053 10.6481C91.4735 11.6421 91.9575 12.8878 91.9575 14.3852C91.9575 15.8826 91.4735 17.1347 90.5053 18.1416ZM86.7683 17.6188C87.5557 17.6188 88.1688 17.3284 88.6077 16.7475C89.0595 16.1537 89.2854 15.3662 89.2854 14.3852C89.2854 13.4041 89.0595 12.6167 88.6077 12.0229C88.1688 11.4291 87.5557 11.1322 86.7683 11.1322C85.9679 11.1322 85.3483 11.4291 84.9094 12.0229C84.4705 12.6038 84.2511 13.3912 84.2511 14.3852C84.2511 15.3662 84.4705 16.1537 84.9094 16.7475C85.3483 17.3284 85.9679 17.6188 86.7683 17.6188Z"
          fill="#13202B"/>
    <path d="M95.7182 9.40888V10.9967H95.7763C96.0861 10.4158 96.4282 9.98977 96.8025 9.71869C97.1769 9.4347 97.648 9.29271 98.216 9.29271C98.4871 9.29271 98.6936 9.31852 98.8356 9.37016V11.6744H98.7775C97.8869 11.584 97.1704 11.7776 96.6283 12.2552C96.0861 12.7329 95.815 13.4816 95.815 14.5014V19.3421H93.1816V9.40888H95.7182Z"
          fill="#13202B"/>
    <path d="M104.353 19.6325C102.752 19.6325 101.494 19.142 100.577 18.161C99.6606 17.167 99.2023 15.9019 99.2023 14.3658C99.2023 12.8813 99.6606 11.6421 100.577 10.6481C101.494 9.64124 102.668 9.1378 104.101 9.1378C105.663 9.1378 106.87 9.67997 107.722 10.7643C108.574 11.8486 109 13.3008 109 15.121H101.797C101.9 15.9084 102.165 16.5216 102.591 16.9605C103.017 17.3864 103.598 17.5994 104.334 17.5994C105.302 17.5994 105.941 17.1928 106.25 16.3796H108.845C108.651 17.309 108.161 18.0835 107.374 18.7031C106.586 19.3227 105.579 19.6325 104.353 19.6325ZM104.14 11.1709C102.862 11.1709 102.094 11.8809 101.836 13.3008H106.25C106.212 12.6683 105.999 12.1584 105.611 11.7712C105.224 11.371 104.734 11.1709 104.14 11.1709Z"
          fill="#13202B"/>
    <path d="M7.95899 25.0482V22.3183C6.4279 22.4758 5.61131 22.1083 5.61131 20.3496V16.3072C5.61131 14.5485 5.04991 13.5248 3.95263 12.9735C5.04991 12.4486 5.61131 11.4248 5.61131 9.66614V5.62375C5.61131 3.86505 6.4279 3.49756 7.95899 3.6813V0.951378C4.53955 0.688886 2.85534 2.34259 2.85534 5.62375V9.66614C2.85534 11.4248 2.03876 11.6873 0.635254 11.6086V14.3648C2.03876 14.286 2.85534 14.5485 2.85534 16.3072V20.3496C2.85534 23.657 4.53955 25.3107 7.95899 25.0482Z"
          fill="#13202B"/>
    <path d="M14.0176 7.11996C14.9873 7.11996 15.7783 6.27998 15.7783 5.30876C15.7783 4.31128 14.9873 3.49756 14.0176 3.49756C13.0479 3.49756 12.2568 4.31128 12.2568 5.30876C12.2568 6.27998 13.0479 7.11996 14.0176 7.11996ZM12.6396 22.2133H15.3956V9.08865H12.6396V22.2133Z"
          fill="#13202B"/>
    <path d="M20.0501 25.0482C23.4695 25.3107 25.1537 23.657 25.1537 20.3496V16.3072C25.1537 14.5485 25.9703 14.286 27.3738 14.3648V11.6086C25.9703 11.6873 25.1537 11.4248 25.1537 9.66614V5.62375C25.1537 2.34259 23.4695 0.688886 20.0501 0.951378V3.6813C21.5812 3.49756 22.3977 3.86505 22.3977 5.62375V9.66614C22.3977 11.4248 22.9591 12.4486 24.0564 12.9735C22.9591 13.5248 22.3977 14.5485 22.3977 16.3072V20.3496C22.3977 22.1083 21.5812 22.4758 20.0501 22.3183V25.0482Z"
          fill="#13202B"/>
</svg>
