<svg width="30" height="30" viewBox="0 0 30 30" xmlns="http://www.w3.org/2000/svg">
    <path d="m25.086 0.20166h-13.612v18.268h18.268v-13.515c0.0074-2.5662-2.0902-4.753-4.6564-4.753zm-17.792 0h-2.2835c-2.5662 0-4.7605 2.0901-4.7605 4.7605v2.2835h7.044v-7.044zm-7.044 11.321h7.044v7.044h-7.044v-7.044zm22.456 18.268h2.2835c2.5662 0 4.7605-2.0901 4.7605-4.7604v-2.2761h-7.044v7.0365zm-11.232-7.0365h7.044v7.044h-7.044v-7.044zm-11.224 0v2.2835c0 2.5662 2.0901 4.7605 4.7605 4.7605h2.2835v-7.044h-7.044z" fill="#000"/>
</svg>
