<svg width="600" height="185" xmlns="http://www.w3.org/2000/svg">
    <style type="text/css">
        .st0{fill:#133444;}
        .st1{fill:#C42370;}
        .st2{fill:#1C4D6B;}
        .st3{fill:#1D4259;}
        .st4{fill:#4B6B9A;}
        .st5{fill:#343535;}
        .st6{fill:#3E5578;}
        .st7{fill:#6DB2D8;}
        .st8{fill:#335F8A;}
        .st9{fill:#529BBA;}
    </style>
    <g>
        <rect fill="none" id="canvas_background" height="187" width="602" y="-1" x="-1"/>
    </g>
    <g>
        <g>
            <polygon id="svg_3"
                     points="1.9000000953674316,105.42501068115234 6.299999237060547,103.52498626708984 60.5,79.92501068115234 119.0999984741211,105.42501068115234 97.0999984741211,150.92501831054688 43.30000305175781,158.52499389648438 2.799999713897705,114.82500457763672 "
                     class="st0"/>
            <path id="svg_4"
                  d="m107,77.425c-9.7,-11.7 -23.4,-19.2 -38.4,-21.2l-1,-0.1c-4.7,-0.6 -9.4,-0.6 -14.1,0l-1,0.1c-15,2 -28.7,9.6 -38.4,21.2l0,0l-2.4,4l-4.1,6.7l-3,4.9l0,0c0,0.1 -0.1,0.3 -0.2,0.4l0,0.1l6.5,3.9l41.5,24.6l8,4.7l0,-58.7l-8,3.6l0,-8.8l8,-3.6l8,3.6l40.8,18.6l-2.2,-4z"
                  class="st1"/>
            <path id="svg_5"
                  d="m120.9,120.025c-0.1,19.3 -8.8,37.5 -23.7,49.7c-5.7,4.7 -12.1,8.2 -19.1,10.6c-5.7,1.9 -11.6,2.8 -17.6,2.8c-33.4,0 -60.5,-29.7 -60.5,-63.1c0,-4.9 0.6,-9.8 1.8,-14.6l58.6,34.7l58.6,-34.7c1.3,4.8 2,9.7 1.9,14.6z"
                  class="st2"/>
            <polygon id="svg_6"
                     points="53.5,56.12499237060547 60.5,59.224998474121094 52.5,62.925010681152344 52.5,55.62499237060547 "/>
            <polygon id="svg_7"
                     points="52.5,71.7249984741211 60.5,68.02498626708984 60.5,126.82501220703125 52.5,122.02498626708984 "/>
            <polygon id="svg_8"
                     points="60.5,68.02498626708984 60.5,126.82501220703125 116.70000457763672,93.62499237060547 "
                     class="st3"/>
            <polygon id="svg_9"
                     points="60.5,0.42499685287475586 60.5,68.02498626708984 116.70000457763672,93.62499237060547 "
                     class="st4"/>
            <path id="svg_10"
                  d="m60.5,68.025l0,58.7l-8,-4.7l-48.1,-28.4l-0.1,0l0.1,0c0,-0.1 0.1,-0.3 0.2,-0.4l0,0l7,-11.7l40.8,-18.5l0,8.7l8.1,-3.7z"
                  class="st5"/>
            <polygon id="svg_11"
                     points="60.5,68.02498626708984 60.5,126.82501220703125 52.5,122.02498626708984 4.400000095367432,93.62499237060547 4.400000095367432,93.62499237060547 4.500000476837158,93.52498626708984 52.5,71.7249984741211 "
                     class="st6"/>
            <polygon id="svg_12"
                     points="60.5,0.42499685287475586 60.5,68.02498626708984 4.400000095367432,93.62499237060547 "
                     class="st7"/>
            <path id="svg_13" d="m37.8,178.325c0.8,0.4 1.7,0.7 2.5,1c-0.8,-0.3 -1.6,-0.7 -2.5,-1z" class="st8"/>
            <path id="svg_14" d="m40.3,179.325c0.8,0.3 1.7,0.7 2.6,0.9c-0.8,-0.2 -1.7,-0.5 -2.6,-0.9z" class="st8"/>
            <path id="svg_15" d="m45.2,180.925c0.7,0.2 1.3,0.4 2,0.5c-0.7,-0.1 -1.4,-0.3 -2,-0.5z" class="st8"/>
            <path id="svg_16"
                  d="m1.9,105.425l58.6,34.7c-0.8,5.3 -2.2,10.4 -4.2,15.4c-4.7,11.4 -14.1,23.4 -32.5,14.2l0,0c-14.9,-12.2 -23.6,-30.4 -23.7,-49.7c0,-4.9 0.6,-9.8 1.8,-14.6z"
                  class="st7"/>
            <path id="svg_17"
                  d="m97.2,169.725l-0.2,0.1c-0.3,0.2 -0.6,0.5 -0.9,0.7l-0.1,0.1c-0.3,0.3 -0.7,0.5 -1,0.8c-0.4,0.3 -0.7,0.6 -1.1,0.8c-0.4,0.2 -0.8,0.5 -1.1,0.8c-0.4,0.3 -0.7,0.4 -1,0.7l-0.2,0.1c-0.4,0.2 -0.7,0.4 -1,0.7c0,0 -0.1,0 -0.1,0.1c-0.4,0.2 -0.7,0.4 -1.1,0.7c-0.4,0.2 -0.8,0.4 -1.2,0.7c-0.4,0.2 -0.8,0.4 -1.2,0.6l0,0l-1.2,0.6c-0.4,0.2 -0.8,0.4 -1.2,0.6c-0.4,0.2 -0.8,0.4 -1.2,0.6c-0.8,0.4 -1.7,0.7 -2.5,1c-0.8,0.3 -1.7,0.6 -2.6,0.9c-0.3,0.1 -0.7,0.2 -1,0.3l-1.2,0.4c-0.7,0.2 -1.3,0.4 -2,0.5c-0.2,0.1 -0.5,0.1 -0.8,0.2l-0.4,0.1l-1.1,0.2c-0.4,0.1 -0.6,0.1 -1,0.2c-0.3,0.1 -0.6,0.1 -0.9,0.2c-0.3,0 -0.7,0.1 -1,0.2c-0.2,0 -0.3,0 -0.5,0.1l-0.8,0.1l-0.4,0c-0.3,0 -0.6,0.1 -0.8,0.1c-0.3,0 -0.7,0.1 -1,0.1c-0.3,0 -0.5,0 -0.8,0s-0.5,0 -0.7,0l0,0c-0.3,0 -0.6,0 -0.8,0c-0.2,0 -0.8,0 -1.1,0l-2.4,0c-0.4,0 -0.8,0 -1.1,0c-0.3,0 -0.6,0 -0.8,0l0,0c-0.2,0 -0.5,0 -0.7,0s-0.5,0 -0.8,0c-0.3,0 -0.7,-0.1 -1,-0.1c-0.3,0 -0.6,0 -0.8,-0.1l-0.4,0c-0.2,0 -0.5,-0.1 -0.8,-0.1c-0.2,0 -0.3,0 -0.5,-0.1c-0.3,0 -0.7,-0.1 -1,-0.2c-0.3,0 -0.6,-0.1 -0.9,-0.2c-0.3,0 -0.7,-0.1 -1,-0.2c-0.3,-0.1 -0.7,-0.2 -1.1,-0.2l-0.4,-0.1c-0.3,0 -0.6,-0.1 -0.8,-0.1c-0.7,-0.2 -1.4,-0.4 -2,-0.5l-1.2,-0.4c-0.4,-0.1 -0.7,-0.2 -1,-0.3c-0.9,-0.3 -1.7,-0.6 -2.6,-0.9c-0.9,-0.3 -1.7,-0.7 -2.5,-1c-0.4,-0.2 -0.8,-0.4 -1.2,-0.6l-1.2,-0.6l-1.2,-0.6l0,0c-0.4,-0.2 -0.8,-0.4 -1.2,-0.6c-0.4,-0.2 -0.8,-0.4 -1.2,-0.7c-0.4,-0.2 -0.7,-0.4 -1.1,-0.7l-0.1,-0.1c-0.4,-0.2 -0.7,-0.4 -1,-0.7l-0.2,-0.1c-0.3,-0.2 -0.7,-0.4 -1,-0.7c-0.3,-0.2 -0.8,-0.5 -1.1,-0.8c-0.4,-0.3 -0.8,-0.5 -1.1,-0.8l-1,-0.8l-0.1,-0.1c-0.3,-0.2 -0.6,-0.5 -0.9,-0.7l-0.2,-0.1c18.3,9.1 27.8,-2.9 32.5,-14.2c2,-4.9 3.4,-10.1 4.2,-15.4c0.8,5.3 2.2,10.4 4.2,15.4c4.1,11.2 13.6,23.2 31.9,14.1z"
                  class="st9"/>
            <path id="svg_18" d="m73.9,181.525c0.7,-0.2 1.4,-0.4 2,-0.5c-0.6,0.1 -1.3,0.3 -2,0.5z" class="st8"/>
            <path id="svg_19" d="m78.1,180.225c0.9,-0.3 1.7,-0.6 2.6,-0.9c-0.8,0.4 -1.7,0.7 -2.6,0.9z" class="st8"/>
            <path id="svg_20" d="m80.7,179.325c0.8,-0.3 1.7,-0.7 2.5,-1c-0.8,0.3 -1.6,0.7 -2.5,1z" class="st8"/>
            <path id="svg_21"
                  d="m120.9,120.025c-0.1,19.3 -8.8,37.5 -23.7,49.7c-18.3,9.1 -27.8,-2.9 -32.5,-14.2c-2,-4.9 -3.4,-10.1 -4.2,-15.4l58.6,-34.7c1.2,4.8 1.8,9.7 1.8,14.6z"
                  class="st4"/>
        </g>
        <path id="svg_22"
              d="m185.6,181.325l-19.9,0l0,-132.7l19.9,0l0,9.4c7.9,-7.9 16.7,-11.7 26.6,-11.7c11.8,0 21.6,4.3 29.2,13.1c7.8,8.7 11.6,19.5 11.6,32.7c0,12.9 -3.9,23.6 -11.6,32.1c-7.3,8.3 -17.8,13 -28.9,12.8c-10,0 -19.1,-4.1 -27,-12.1l0,56.4l0.1,0zm47.2,-89.3c0,-8.2 -2.3,-14.9 -6.7,-20.1c-4.2,-5.1 -10.5,-8 -17.1,-7.9c-7.3,0 -13.2,2.5 -17.7,7.6c-4.5,5.1 -6.8,11.7 -6.8,20c0,8 2.3,14.7 6.8,20c4.5,5.2 10.4,7.7 17.6,7.7c6.5,0.1 12.8,-2.7 17,-7.8c4.6,-5.2 6.9,-11.7 6.9,-19.5z"
              class="st7"/>
        <path id="svg_23"
              d="m270,91.025c-0.2,-12 4.6,-23.4 13.3,-31.7c8.6,-8.6 20.3,-13.3 32.4,-13.1c12.8,0 23.7,4.4 32.6,13.2c8.9,8.8 13.2,19.5 13.2,32.2c0,12.9 -4.4,23.7 -13.3,32.3c-8.9,8.7 -19.9,13 -32.9,13c-13,0 -23.7,-4.4 -32.3,-13.2s-13,-19.6 -13,-32.7zm20.4,0.3c0,8.6 2.3,15.4 6.9,20.4c4.6,5.1 10.9,7.6 18.6,7.6s14,-2.5 18.6,-7.5c4.6,-5 7,-11.6 7,-20s-2.3,-15 -7,-20c-4.6,-5.1 -10.9,-7.6 -18.6,-7.6s-13.7,2.5 -18.4,7.6c-4.8,5 -7.1,11.5 -7.1,19.5z"
              class="st7"/>
        <path id="svg_24"
              d="m382.7,48.625l19.9,0l0,7.7c3.6,-3.8 6.9,-6.4 9.7,-7.9c3.2,-1.5 6.7,-2.2 10.2,-2.2c5.2,0 10.7,1.7 16.4,5.1l-9.1,18.2c-3.8,-2.7 -7.4,-4.1 -11,-4.1c-10.8,0 -16.3,8.1 -16.3,24.5l0,44.5l-19.9,0l0.1,-85.8l0,0z"
              class="st7"/>
        <path id="svg_25"
              d="m470.7,67.125l0,67.4l-19.9,0l0,-67.4l-8.5,0l0,-18.5l8.5,0l0,-31.5l19.9,0l0,31.5l15.4,0l0,18.5l-15.4,0z"
              class="st7"/>
        <path id="svg_26"
              d="m496.6,12.825c0,-3.4 1.3,-6.7 3.8,-9c5.1,-5.1 13.3,-5.1 18.3,0c2.5,2.4 3.9,5.7 3.8,9.1c0.1,3.5 -1.3,6.8 -3.8,9.2c-2.4,2.5 -5.7,3.9 -9.1,3.8c-3.5,0.1 -6.8,-1.3 -9.2,-3.8c-2.5,-2.4 -3.9,-5.8 -3.8,-9.3zm22.9,35.8l0,85.9l-19.9,0l0,-85.9l19.9,0z"
              class="st7"/>
        <path id="svg_27"
              d="m594.5,63.225l-16.5,8.8c-2.6,-5.3 -5.8,-7.9 -9.6,-7.9c-1.7,0 -3.4,0.6 -4.7,1.8c-1.3,1.2 -2,2.9 -1.9,4.6c0,3.3 3.8,6.6 11.5,9.8c10.6,4.5 17.6,8.7 21.2,12.6c3.6,3.9 5.5,8.9 5.5,15.4c0.2,7.9 -3.2,15.6 -9.2,20.8c-5.9,5.3 -13.6,8.1 -21.5,7.9c-14.4,0 -24.6,-7 -30.6,-21l17,-7.9c2.3,4.2 4.2,6.8 5.4,7.9c2.3,2.2 5.5,3.4 8.7,3.3c6.7,0 10,-3.1 10,-9.2c0,-3.5 -2.6,-6.9 -7.8,-9.8c-2,-1 -4,-2 -6,-2.9c-2,-0.9 -4.1,-1.9 -6.1,-2.9c-5.8,-2.8 -9.8,-5.6 -12.2,-8.5c-3,-3.6 -4.5,-8.2 -4.5,-13.8c0,-7.5 2.5,-13.6 7.7,-18.5c5.1,-4.8 12,-7.5 19.1,-7.3c11,-0.2 19.1,5.5 24.5,16.8z"
              class="st7"/>
    </g>
</svg>
