<svg width="24" height="24" viewBox="0 0 24 24" fill="none" xmlns="http://www.w3.org/2000/svg">
<g clip-path="url(#clip0_35_21513)">
<rect opacity="0.7" x="14.7" y="14.7" width="9" height="9" fill="#E90101"/>
<path d="M19.1812 18.8445C19.1812 19.3174 19.0985 19.7411 18.9331 20.1154C18.7676 20.488 18.5412 20.7696 18.2538 20.9601C17.9663 21.1506 17.6355 21.2459 17.2611 21.2459C16.8333 21.2459 16.4991 21.1231 16.2585 20.8774C16.0195 20.6301 15.9 20.2875 15.9 19.8497C15.9 19.4068 15.9827 18.9999 16.1482 18.629C16.3136 18.2563 16.5417 17.9705 16.8325 17.7717C17.1233 17.5728 17.4592 17.4734 17.8402 17.4734C18.2663 17.4734 18.5963 17.5937 18.8303 17.8343C19.0642 18.075 19.1812 18.4117 19.1812 18.8445ZM17.7775 18.1201C17.5753 18.1201 17.3898 18.197 17.221 18.3507C17.0522 18.5028 16.9194 18.7125 16.8225 18.9799C16.7272 19.2473 16.6796 19.5372 16.6796 19.8497C16.6796 20.0953 16.7347 20.2808 16.845 20.4062C16.957 20.5315 17.1141 20.5942 17.3163 20.5942C17.5185 20.5942 17.7023 20.5215 17.8677 20.3761C18.0349 20.2307 18.1652 20.0252 18.2588 19.7595C18.3524 19.4937 18.3992 19.1955 18.3992 18.8646C18.3992 18.6273 18.3448 18.4443 18.2362 18.3156C18.1276 18.1853 17.9747 18.1201 17.7775 18.1201Z" fill="white"/>
<path d="M22.5 18.5989C22.5 19.0016 22.358 19.3183 22.0739 19.5489C21.7915 19.7778 21.4013 19.8923 20.9033 19.8923H20.5123L20.239 21.1958H19.4745L20.2491 17.531H21.2718C21.6762 17.531 21.982 17.6204 22.1892 17.7993C22.3964 17.9781 22.5 18.2446 22.5 18.5989ZM20.6501 19.2556H20.9634C21.2007 19.2556 21.3871 19.198 21.5224 19.0827C21.6595 18.9673 21.728 18.8128 21.728 18.6189C21.728 18.4635 21.687 18.3499 21.6052 18.278C21.5249 18.2045 21.4038 18.1677 21.2417 18.1677H20.8807L20.6501 19.2556Z" fill="white"/>
</g>
<path fill-rule="evenodd" clip-rule="evenodd" d="M11.8154 0C5.28993 0 0 5.28993 0 11.8154C0 18.3408 5.28993 23.6308 11.8154 23.6308C13.0765 23.6308 14.2916 23.4332 15.4311 23.0673C14.4249 22.0864 13.8 20.7162 13.8 19.2C13.8 16.2177 16.2177 13.8 19.2 13.8C20.7162 13.8 22.0864 14.4249 23.0673 15.4311C23.4332 14.2916 23.6308 13.0765 23.6308 11.8154C23.6308 5.28993 18.3408 0 11.8154 0Z" fill="#FF4339"/>
<mask id="mask0_35_21513" style="mask-type:alpha" maskUnits="userSpaceOnUse" x="2" y="2" width="19" height="19">
<circle cx="11.8154" cy="11.8154" r="8.86154" fill="#C4C4C4"/>
</mask>
<g mask="url(#mask0_35_21513)">
<path d="M11.8599 10.6226H11.7747C10.6244 10.6226 9.72974 11.5598 9.72974 12.7527V15.0533L11.8173 13.477L13.9049 15.0533V12.7527C13.9049 11.6024 12.9676 10.6652 11.8599 10.6226Z" fill="white"/>
<path fill-rule="evenodd" clip-rule="evenodd" d="M2.95386 20.0805V2.95386H20.6769V13.3831C20.2045 13.2635 19.7097 13.2 19.2 13.2C17.7353 13.2 16.3932 13.7248 15.3515 14.5967V11.6024L16.3314 10.8355L11.8154 7.42723L7.29942 10.8355L8.2793 11.6024V16.1184L2.95386 20.0805Z" fill="white"/>
</g>
<defs>
<clipPath id="clip0_35_21513">
<rect x="14.7" y="14.7" width="9" height="9" rx="4.5" fill="white"/>
</clipPath>
</defs>
</svg>
