<svg width="24" height="24" viewBox="0 0 24 24" fill="none" xmlns="http://www.w3.org/2000/svg">
<path d="M19.2 23.7C21.6852 23.7 23.7 21.6852 23.7 19.2C23.7 16.7147 21.6852 14.7 19.2 14.7C16.7147 14.7 14.7 16.7147 14.7 19.2C14.7 21.6852 16.7147 23.7 19.2 23.7Z" fill="#627EEA"/>
<path d="M19.2104 15.825V18.3196L21.319 19.2618L19.2104 15.825Z" fill="white" fill-opacity="0.602"/>
<path d="M19.2096 15.825L17.1008 19.2618L19.2096 18.3196V15.825Z" fill="white"/>
<path d="M19.2104 20.8784V22.5735L21.3204 19.6544L19.2104 20.8784Z" fill="white" fill-opacity="0.602"/>
<path d="M19.2096 22.5735V20.8781L17.1008 19.6544L19.2096 22.5735Z" fill="white"/>
<path d="M19.2104 20.4861L21.319 19.2618L19.2104 18.3202V20.4861Z" fill="white" fill-opacity="0.2"/>
<path d="M17.1008 19.2618L19.2096 20.4861V18.3202L17.1008 19.2618Z" fill="white" fill-opacity="0.602"/>
<path fill-rule="evenodd" clip-rule="evenodd" d="M11.8154 0C5.28993 0 0 5.28993 0 11.8154C0 18.3408 5.28993 23.6308 11.8154 23.6308C13.0765 23.6308 14.2916 23.4332 15.4311 23.0673C14.4249 22.0864 13.8 20.7162 13.8 19.2C13.8 16.2177 16.2177 13.8 19.2 13.8C20.7162 13.8 22.0864 14.4249 23.0673 15.4311C23.4332 14.2916 23.6308 13.0765 23.6308 11.8154C23.6308 5.28993 18.3408 0 11.8154 0Z" fill="#FF4339"/>
<mask id="mask0_60_8233" style="mask-type:alpha" maskUnits="userSpaceOnUse" x="2" y="2" width="19" height="19">
<circle cx="11.8154" cy="11.8154" r="8.86154" fill="#C4C4C4"/>
</mask>
<g mask="url(#mask0_60_8233)">
<path d="M11.8599 10.6226H11.7747C10.6244 10.6226 9.72974 11.5598 9.72974 12.7527V15.0533L11.8173 13.477L13.9049 15.0533V12.7527C13.9049 11.6024 12.9676 10.6652 11.8599 10.6226Z" fill="white"/>
<path fill-rule="evenodd" clip-rule="evenodd" d="M2.95386 20.0805V2.95386H20.6769V13.3831C20.2045 13.2635 19.7097 13.2 19.2 13.2C17.7353 13.2 16.3932 13.7248 15.3515 14.5967V11.6024L16.3314 10.8355L11.8154 7.42723L7.29942 10.8355L8.2793 11.6024V16.1184L2.95386 20.0805Z" fill="white"/>
</g>
</svg>
