<svg width="100" height="22" viewBox="0 0 100 22" fill="none" xmlns="http://www.w3.org/2000/svg">
    <path fill-rule="evenodd" clip-rule="evenodd"
          d="M7.78333 19.075C8.55833 19.075 9.28333 18.9333 9.96667 18.6583C9.96667 18.6833 11.3583 20.8417 11.3833 20.85C10.1516 21.5099 8.7722 21.8454 7.375 21.825C3.1 21.8333 0 19.0083 0 14.5167C0 9.99167 3.25 7.18333 7.375 7.18333C8.83333 7.18333 9.99167 7.5 11.15 8.11667L9.81667 10.3667C9.11667 10.0917 8.4 9.96667 7.65 9.96667C5.125 9.96667 3.16667 11.575 3.16667 14.5167C3.16667 17.3 5.05833 19.075 7.78333 19.075ZM18.5583 7.18333C22.7583 7.18333 25.8 10.1583 25.8 14.5167C25.8 18.85 22.7583 21.825 18.55 21.825C14.3833 21.825 11.3417 18.85 11.3417 14.5167C11.3417 10.1583 14.3833 7.18333 18.5583 7.18333ZM18.5583 9.86667C16.2167 9.86667 14.5083 11.675 14.5083 14.5167C14.5083 17.3333 16.2167 19.1417 18.5583 19.1417C20.9583 19.1417 22.6417 17.3333 22.6417 14.5167C22.6417 11.675 20.9583 9.86667 18.5583 9.86667ZM27.7917 21.5083V7.5H30.925V21.5H27.7917V21.5083ZM27.375 3.19167C27.4075 2.69328 27.6284 2.22593 27.9929 1.88445C28.3573 1.54297 28.8381 1.35295 29.3375 1.35295C29.8369 1.35295 30.3177 1.54297 30.6821 1.88445C31.0466 2.22593 31.2675 2.69328 31.3 3.19167C31.3001 3.71496 31.0951 4.21745 30.729 4.59135C30.3629 4.96525 29.8648 5.18076 29.3417 5.19167C28.8185 5.18076 28.3204 4.96525 27.9543 4.59135C27.5882 4.21745 27.3832 3.71496 27.3833 3.19167H27.375ZM33.6583 8.38333C35.7108 7.61188 37.8825 7.20575 40.075 7.18333C43.6583 7.18333 45.925 8.54167 45.925 12.4917V21.5083H42.8333V12.7833C42.8333 10.7583 41.575 10.0333 39.8333 10.0333C38.725 10.0333 37.6167 10.1833 36.7917 10.4417V21.5H33.6667V8.38333H33.6583ZM48.55 0H51.6833V7.875C52.35 7.525 53.6417 7.18333 54.875 7.18333C58.925 7.18333 61.9583 9.76667 61.9583 14.2667C61.9583 18.7917 58.9583 21.825 53.775 21.825C51.75 21.825 49.975 21.4083 48.55 20.9083V0ZM51.6833 18.85C52.2833 19.0417 53.075 19.1417 53.8667 19.1417C56.7417 19.1417 58.8 17.5583 58.8 14.3333C58.8 11.6083 56.8667 10 54.5 10C53.2667 10 52.3167 10.3167 51.6833 10.6667V18.85ZM71.0167 12.1167C71.0167 10.6 69.8667 9.9 68.3167 9.9C66.7083 9.9 65.4417 10.375 64.275 11.0417V8.31667C65.6706 7.5582 67.2366 7.16813 68.825 7.18333C71.8917 7.18333 74.075 8.45 74.075 11.9583V21.225C72.7417 21.575 70.85 21.7917 69.2667 21.7917C65.6333 21.7917 62.975 20.6917 62.975 17.525C62.975 14.675 65.4083 13.2833 69.4583 13.2833H71.0083V12.1167H71.0167ZM71.0167 15.3667H69.6833C67.5 15.3667 66.075 16.0083 66.075 17.4333C66.075 18.8833 67.4083 19.45 69.3 19.45C69.775 19.45 70.4417 19.3917 71.0083 19.3V15.375L71.0167 15.3667ZM76.35 17.7167C77.5712 18.6842 79.0682 19.2387 80.625 19.3C82.0167 19.3 82.9333 18.825 82.9333 17.7167C82.9333 16.575 82.1083 16.1667 80.3083 15.6917C77.3917 15.025 76.1667 13.8583 76.1667 11.4167C76.1667 8.575 78.3167 7.18333 81.1667 7.18333C82.75 7.18333 84.0083 7.525 85.1833 8.25833V11.1333C84.0666 10.242 82.6869 9.74406 81.2583 9.71667C79.9 9.71667 79.175 10.3833 79.175 11.3C79.175 12.2167 79.7667 12.6833 81.3833 13.1333C84.5833 13.825 85.9667 15.025 85.9667 17.55C85.9667 20.5 83.725 21.825 80.6917 21.825C79.1702 21.8554 77.6701 21.463 76.3583 20.6917V17.7167H76.35ZM90.2583 15.2167V15.275C90.45 17.775 92.5917 19.1417 94.7833 19.1417C96.7083 19.1417 98.1 18.6917 99.4917 17.775V20.525C98.225 21.4167 96.3583 21.825 94.5583 21.825C90.1917 21.825 87.225 19.0417 87.225 14.6167C87.225 10.1583 90.1333 7.18333 93.9917 7.18333C98.075 7.18333 100 9.80833 100 13.6333V15.2167H90.25H90.2583ZM97.0583 13.1917C96.9917 11.0083 95.9167 9.80833 93.8917 9.80833C92.0917 9.80833 90.7667 11.075 90.35 13.1917H97.0583Z"
          fill="#1652F0"/>
</svg>
