<svg width="24" height="24" viewBox="0 0 24 24" fill="none" xmlns="http://www.w3.org/2000/svg">
    <path fill="currentColor"
          d="M11.625 0.375C5.20453 0.375 0 5.57953 0 12C0 18.4205 5.20453 23.625 11.625 23.625C18.0455 23.625 23.25 18.4205 23.25 12C23.25 5.57953 18.0455 0.375 11.625 0.375ZM15.4823 17.1375C15.2995 17.3194 15.1078 17.5102 14.9522 17.6663C14.812 17.8069 14.7131 17.9803 14.663 18.1683C14.5922 18.4336 14.535 18.7017 14.4394 18.9591L13.6242 21.1552C12.9792 21.2958 12.3117 21.375 11.625 21.375V20.0916C11.7042 19.5 11.2669 18.3919 10.5642 17.6892C10.283 17.408 10.125 17.0264 10.125 16.6284V15.128C10.125 14.5823 9.83109 14.0808 9.35344 13.8169C8.67984 13.4442 7.72172 12.9234 7.06547 12.593C6.52734 12.322 6.02953 11.977 5.58187 11.5734L5.54437 11.5397C5.22425 11.2507 4.94002 10.9243 4.69781 10.5675C4.25812 9.92203 3.54187 8.86031 3.07641 8.17031C4.03594 6.0375 5.76516 4.32469 7.91391 3.39422L9.03938 3.95719C9.53813 4.20656 10.125 3.84422 10.125 3.28641V2.75672C10.4995 2.69625 10.8806 2.65781 11.2683 2.64328L12.5948 3.96984C12.8878 4.26281 12.8878 4.73766 12.5948 5.03062L12.375 5.25L11.8903 5.73469C11.7441 5.88094 11.7441 6.11859 11.8903 6.26484L12.1102 6.48469C12.2564 6.63094 12.2564 6.86859 12.1102 7.01484L11.7352 7.38984C11.6647 7.46012 11.5693 7.49957 11.4698 7.49953H11.0484C10.9509 7.49953 10.8572 7.5375 10.7869 7.60594L10.3219 8.05828C10.2649 8.11379 10.227 8.18597 10.2137 8.26441C10.2004 8.34284 10.2123 8.42348 10.2478 8.49469L10.9786 9.95672C11.1033 10.2061 10.9219 10.4995 10.6434 10.4995H10.3791C10.2886 10.4995 10.2014 10.4667 10.1334 10.4077L9.69844 10.0298C9.6 9.94445 9.48103 9.88614 9.35323 9.86066C9.22542 9.83519 9.09319 9.84341 8.96953 9.88453L7.50844 10.3716C7.39689 10.4088 7.29987 10.4801 7.23114 10.5755C7.1624 10.6709 7.12543 10.7855 7.12547 10.9031C7.12547 11.1155 7.24547 11.3091 7.43531 11.4042L7.95469 11.6639C8.39578 11.8847 8.88234 11.9995 9.37547 11.9995C9.86859 11.9995 10.4344 13.2787 10.8755 13.4995H14.0044C14.4023 13.4995 14.7834 13.6575 15.0652 13.9387L15.7069 14.5805C15.975 14.8487 16.1255 15.2124 16.1255 15.5916C16.1254 15.8789 16.0685 16.1634 15.9581 16.4287C15.8478 16.694 15.6861 16.9349 15.4823 17.1375ZM19.5469 12.8555C19.2755 12.7875 19.0387 12.6211 18.8836 12.3881L18.0408 11.1239C17.9175 10.9392 17.8516 10.7221 17.8516 10.5C17.8516 10.2779 17.9175 10.0608 18.0408 9.87609L18.9591 8.49891C19.0678 8.33625 19.2169 8.20406 19.3922 8.11688L20.0006 7.81266C20.6344 9.07453 21 10.4939 21 12C21 12.4064 20.9653 12.8044 20.9147 13.1972L19.5469 12.8555Z"
    />
</svg>
