<svg width="24" height="24" viewBox="0 0 24 24" fill="none" xmlns="http://www.w3.org/2000/svg">
    <path fill="currentColor"
          d="M11.6822 7.1667L4.00014 13.4828V20.2997C4.00014 20.4762 4.07037 20.6455 4.1954 20.7703C4.32042 20.8951 4.48999 20.9652 4.6668 20.9652L9.33597 20.9532C9.5122 20.9523 9.68091 20.8818 9.80522 20.7571C9.92952 20.6324 9.9993 20.4636 9.9993 20.2877V16.3067C9.9993 16.1302 10.0695 15.9609 10.1946 15.8361C10.3196 15.7113 10.4892 15.6412 10.666 15.6412H13.3326C13.5094 15.6412 13.679 15.7113 13.804 15.8361C13.9291 15.9609 13.9993 16.1302 13.9993 16.3067V20.2848C13.999 20.3723 14.0161 20.4591 14.0494 20.5401C14.0828 20.6211 14.1319 20.6947 14.1938 20.7567C14.2558 20.8187 14.3293 20.8679 14.4104 20.9015C14.4914 20.9351 14.5782 20.9523 14.666 20.9523L19.3335 20.9652C19.5103 20.9652 19.6798 20.8951 19.8049 20.7703C19.9299 20.6455 20.0001 20.4762 20.0001 20.2997V13.4782L12.3197 7.1667C12.2294 7.09404 12.1169 7.05442 12.001 7.05442C11.885 7.05442 11.7725 7.09404 11.6822 7.1667ZM23.8168 11.4597L20.3335 8.59339V2.83214C20.3335 2.69976 20.2808 2.57281 20.187 2.4792C20.0933 2.3856 19.9661 2.33301 19.8335 2.33301H17.5001C17.3675 2.33301 17.2403 2.3856 17.1466 2.4792C17.0528 2.57281 17.0001 2.69976 17.0001 2.83214V5.85231L13.2697 2.78847C12.9117 2.49439 12.4625 2.3336 11.9989 2.3336C11.5353 2.3336 11.086 2.49439 10.7281 2.78847L0.180969 11.4597C0.130339 11.5014 0.0884508 11.5528 0.0576975 11.6107C0.0269442 11.6686 0.0079287 11.7321 0.00173762 11.7973C-0.00445347 11.8626 0.00230116 11.9285 0.0216156 11.9912C0.04093 12.0538 0.0724256 12.1121 0.114303 12.1626L1.1768 13.452C1.21857 13.5027 1.26993 13.5447 1.32797 13.5756C1.386 13.6064 1.44956 13.6255 1.51501 13.6318C1.58045 13.6381 1.6465 13.6315 1.70937 13.6123C1.77224 13.593 1.83069 13.5616 1.88139 13.5198L11.6822 5.46133C11.7725 5.38867 11.885 5.34905 12.001 5.34905C12.1169 5.34905 12.2294 5.38867 12.3197 5.46133L22.121 13.5198C22.1716 13.5616 22.2299 13.5931 22.2927 13.6124C22.3555 13.6316 22.4215 13.6384 22.4869 13.6322C22.5523 13.626 22.6158 13.607 22.6738 13.5763C22.7319 13.5456 22.7833 13.5038 22.8251 13.4533L23.8876 12.1639C23.9295 12.113 23.9608 12.0545 23.9799 11.9915C23.999 11.9286 24.0054 11.8625 23.9989 11.7971C23.9923 11.7316 23.9728 11.6681 23.9416 11.6102C23.9103 11.5523 23.8679 11.5012 23.8168 11.4597Z"
    />
</svg>
