<svg xmlns="http://www.w3.org/2000/svg">
    <defs>
        <!-- BARNBRIDGE -->
        <symbol id="icon__barnbridge" viewBox="0 0 174 37" fill="none">
            <path d="m12.232 10.553c3.2469 0 5.3213 1.2627 5.3213 3.8783 0 1.8038-0.9921 2.8861-2.345 3.337 1.5333 0.451 2.8861 1.5333 2.8861 3.7881 0 3.4272-3.337 4.2389-5.9526 4.2389h-6.5839v-15.242h6.6741zm0 8.6584h-3.4273v3.9684h3.2469c1.4431 0 2.796-0.2706 2.796-1.9842 0-1.6234-1.3529-1.9842-2.6156-1.9842zm-0.3608-6.0428h-3.1566v3.5174h3.337c1.2627 0 2.1646-0.5411 2.1646-1.7136 0-1.2627-0.9019-1.8038-2.345-1.8038z"
                  fill="currentColor"/>
            <path d="m20.62 25.795 6.2232-15.242h3.5174l6.2232 15.242h-3.3371l-1.1725-2.8861h-6.9447l-1.1725 2.8861h-3.337zm5.5016-5.5918h4.9605l-2.1645-5.5017c-0.0902-0.2705-0.1804-0.6313-0.3608-1.1725-0.0902 0.6314-0.1804 0.902-0.3608 1.1725l-2.0744 5.5017z"
                  fill="currentColor"/>
            <path d="m40.462 25.795v-15.242h6.3134c2.9763 0 6.0427 1.0823 6.0427 4.9605 0 2.6156-1.443 3.9685-3.337 4.5096l4.6 5.7722h-3.788l-4.149-5.3212h-2.4352v5.3212h-3.2469zm3.2469-8.1172h3.1567c1.3529 0 2.6155-0.6313 2.6155-2.1646 0-1.5332-1.1725-2.1645-2.6155-2.1645h-3.1567v4.3291z"
                  fill="currentColor"/>
            <path d="m58.05 25.795v-15.242h3.067l7.125 9.9211c0-0.6314-0.09-1.3529-0.09-2.0744v-7.8467h3.247v15.242h-3.067l-7.125-9.921c0 0.6314 0.09 1.3529 0.09 2.0744v7.8466h-3.247z"
                  fill="currentColor"/>
            <path d="m83.57 10.553c3.247 0 5.322 1.2627 5.322 3.8783 0 1.8038-0.993 2.8861-2.345 3.337 1.533 0.451 2.886 1.5333 2.886 3.7881 0 3.4272-3.337 4.2389-5.953 4.2389h-6.584v-15.242h6.674zm0 8.6584h-3.427v3.9684h3.247c1.443 0 2.796-0.2706 2.796-1.9842 0-1.6234-1.263-1.9842-2.616-1.9842zm-0.27-6.0428h-3.157v3.5174h3.337c1.263 0 2.165-0.5411 2.165-1.7136-0.09-1.2627-0.902-1.8038-2.345-1.8038z"
                  fill="currentColor"/>
            <path d="m94.04 25.795v-15.242h6.314c2.976 0 6.043 1.0823 6.043 4.9605 0 2.6156-1.443 3.9685-3.337 4.5096l4.599 5.7722h-3.788l-4.149-5.3212h-2.435v5.3212h-3.247zm3.247-8.1172h3.157c1.353 0 2.616-0.6313 2.616-2.1646 0-1.5332-1.173-2.1645-2.616-2.1645h-3.157v4.3291z"
                  fill="currentColor"/>
            <path d="m114.87 10.553v15.242h-3.246v-15.242h3.246z" fill="currentColor"/>
            <path d="m126.05 10.553c5.412 0 8.027 3.2469 8.027 7.6663s-2.615 7.6662-8.027 7.6662h-5.682v-15.332h5.682zm0 2.796h-2.435v9.47h2.435c3.067 0 4.69-1.6234 4.69-4.7801s-1.713-4.6899-4.69-4.6899z"
                  fill="currentColor"/>
            <path d="m146.17 10.192c1.623 0 3.247 0.3608 4.69 0.9921v3.1567c-1.173-0.7215-2.706-1.1725-4.239-1.1725-2.706 0-5.412 1.4431-5.412 5.0507 0 4.0586 2.977 5.0507 5.231 5.0507 0.632 0 1.263-0.0902 1.714-0.2706v-5.4114h3.157v7.576c-1.533 0.6314-3.247 0.9921-4.961 0.9921-4.239 0-8.387-2.3449-8.387-7.9368-0.091-5.5918 3.968-8.027 8.207-8.027z"
                  fill="currentColor"/>
            <path d="m166.91 10.553v2.8862h-7.486v3.2468h6.854v2.8862h-6.854v3.4272h7.576v2.8861h-10.913v-15.332h10.823z"
                  fill="currentColor"/>
        </symbol>
        <!-- BOND TOKEN -->
        <symbol id="icon__bond-token" viewBox="0 0 40 40" fill="none">
            <rect width="40" height="40" rx="20" fill="#FF4339"/>
            <path d="m19.414 19.171h-0.1136c-1.4389 0-2.6128 1.2118-2.6128 2.6886v2.9158l2.6886-2.007 2.6886 2.007v-2.9158c-0.0379-1.4768-1.2118-2.6886-2.6508-2.6886z"
                  fill="#fff"/>
            <path d="m8.0527 9.3252v21.925l6.7783-5.0742v-5.7937l-1.2497-0.9845 5.7938-4.3547 5.7558 4.3547-1.2497 0.9845v5.7937l6.8162 5.0742v-21.925h-22.645z"
                  fill="#fff"/>
        </symbol>
        <!-- BOND SQUARE TOKEN -->
        <symbol id="icon__bond-square-token" viewBox="0 0 37 37" fill="none">
            <path d="m18.85 16.234h-0.1803c-2.4352 0-4.3292 1.9842-4.3292 4.5095v4.8704l4.4193-3.3371 4.4194 3.3371v-4.8704c0-2.4351-1.9842-4.4193-4.3292-4.5095z"
                  fill="#FF4339"/>
            <path d="M0 0V36.2568L11.2739 27.8691V18.3088L9.1995 16.6854L18.7598 9.47007L28.32 16.6854L26.2456 18.3088V27.8691L37.5195 36.2568V0H0Z"
                  fill="#FF4339"/>
        </symbol>
        <!-- DAI TOKEN -->
        <symbol id="icon__dai-token" viewBox="0 0 40 40" fill="none">
            <path d="m20 39.672c10.865 0 19.672-8.8075 19.672-19.672 0-10.865-8.8075-19.672-19.672-19.672-10.865 0-19.672 8.8075-19.672 19.672 0 10.865 8.8075 19.672 19.672 19.672z"
                  fill="#fff" stroke="#FFCE45" stroke-miterlimit="10"/>
            <path d="m20 4.6035 15.069 15.069-15.069 15.07-15.07-15.07 15.07-15.069z" fill="#FFCE45"/>
            <path d="m20 24.59-15.082-4.918 15.082-15.069 15.082 15.069-15.082 4.918z" fill="#FEBE44"/>
            <path d="m10.164 18.688h6.8852l2.9508-3.2787 3.2787 3.2787h6.8852l-10.164-10.983-9.836 10.983z"
                  fill="#fff"/>
            <path d="M20 34.741V4.60254L35.0691 19.6718L20 34.741Z" fill="#D9A547" opacity=".42"/>
        </symbol>
        <!-- SUSD TOKEN -->
        <symbol id="icon__susd-token" viewBox="0 0 40 40" fill="none">
            <path d="m0 20c0 11.046 8.9543 20 20 20 11.046 0 20-8.9543 20-20 0-11.046-8.9543-20-20-20-11.046 0-20 8.9543-20 20z"
                  fill="#1E1A31"/>
            <path d="m20.927 19.047c0.5427 0 0.9826 0.4399 0.9826 0.9824 0 0.5426-0.4399 0.9824-0.9826 0.9824h-2.5506c-2.4702 0-4.4728-2.0021-4.4728-4.4719 0-2.4697 2.0026-4.4718 4.4728-4.4718h6.5778c0.5426 0 0.9826 0.4398 0.9826 0.9824 0 0.5425-0.44 0.9823-0.9826 0.9823h-6.5778c-1.3849 0-2.5076 1.1225-2.5076 2.5071 0 1.3847 1.1227 2.5071 2.5076 2.5071h2.5506z"
                  fill="#fff"/>
            <path d="m18.914 21.012c-0.5426 0-0.9826-0.4399-0.9826-0.9824 0-0.5426 0.44-0.9824 0.9826-0.9824h2.5506c2.4703 0 4.4728 2.0021 4.4728 4.4718 0 2.4698-2.0025 4.4719-4.4728 4.4719h-6.5778c-0.5426 0-0.9826-0.4398-0.9826-0.9824 0-0.5425 0.44-0.9824 0.9826-0.9824h6.5778c1.3849 0 2.5076-1.1224 2.5076-2.5071 0-1.3846-1.1227-2.507-2.5076-2.507h-2.5506z"
                  fill="#fff"/>
            <path d="m15.663 27.594-1.5974-1.1444 10.047-14.018 1.5974 1.1445-10.047 14.018z"
                  fill="#fff" fill-opacity=".5"/>
        </symbol>
        <!-- USDC TOKEN -->
        <symbol id="icon__usdc-token" viewBox="0 0 40 40" fill="none">
            <path d="m20 40c11.082 0 20-8.918 20-20s-8.918-20-20-20-20 8.918-20 20 8.918 20 20 20z" fill="#2775c9"/>
            <path d="m25.5 23.168c0-2.918-1.75-3.918-5.25-4.3359-2.5-0.33203-3-1-3-2.1641 0-1.168 0.83203-1.918 2.5-1.918 1.5 0 2.332 0.5 2.75 1.75 0.082031 0.25 0.33203 0.41797 0.58203 0.41797h1.3359c0.33203 0 0.58203-0.25 0.58203-0.58594v-0.082031c-0.33203-1.832-1.832-3.25-3.75-3.418v-2c0-0.33203-0.25-0.58203-0.66797-0.66406h-1.25c-0.33203 0-0.58203 0.25-0.66406 0.66406v1.918c-2.5 0.33203-4.0859 2-4.0859 4.082 0 2.75 1.668 3.8359 5.168 4.25 2.332 0.41797 3.082 0.91797 3.082 2.25 0 1.3359-1.1641 2.25-2.75 2.25-2.1641 0-2.9141-0.91406-3.1641-2.1641-0.085938-0.33594-0.33594-0.5-0.58594-0.5h-1.4141c-0.33594 0-0.58594 0.25-0.58594 0.58203v0.082031c0.33594 2.0859 1.668 3.5859 4.418 4v2c0 0.33594 0.25 0.58594 0.66797 0.66797h1.25c0.33203 0 0.58203-0.25 0.66406-0.66797v-2c2.5-0.41406 4.168-2.1641 4.168-4.4141z"
                  fill="#fff"/>
            <path d="m15.75 31.918c-6.5-2.3359-9.832-9.5859-7.418-16 1.25-3.5 4-6.168 7.418-7.418 0.33203-0.16797 0.5-0.41797 0.5-0.83203v-1.168c0-0.33203-0.16797-0.58203-0.5-0.66797-0.082031 0-0.25 0-0.33203 0.085938-7.918 2.5-12.25 10.914-9.75 18.832 1.5 4.668 5.082 8.25 9.75 9.75 0.33203 0.16797 0.66406 0 0.75-0.33203 0.082031-0.085938 0.082031-0.16797 0.082031-0.33594v-1.1641c0-0.25-0.25-0.58594-0.5-0.75zm8.832-26c-0.33203-0.16797-0.66406 0-0.75 0.33203-0.082031 0.082031-0.082031 0.16797-0.082031 0.33203v1.168c0 0.33203 0.25 0.66797 0.5 0.83203 6.5 2.3359 9.832 9.5859 7.418 16-1.25 3.5-4 6.168-7.418 7.418-0.33203 0.16797-0.5 0.41797-0.5 0.83203v1.168c0 0.33203 0.16797 0.58203 0.5 0.66797 0.082031 0 0.25 0 0.33203-0.085938 7.918-2.5 12.25-10.914 9.75-18.832-1.5-4.75-5.1641-8.332-9.75-9.832z"
                  fill="#fff"/>
        </symbol>
        <!-- UNISWAP TOKEN -->
        <symbol id="icon__uniswap-token" viewBox="0 0 42 44" fill="none">
            <rect y="2" width="40" height="40" rx="20" fill="#FF4339"/>
            <path d="m19.414 21.17h-0.1136c-1.4389 0-2.6128 1.2118-2.6128 2.6886v2.9158l2.6885-2.007 2.6886 2.007v-2.9158c-0.0379-1.4768-1.2117-2.6886-2.6507-2.6886z"
                  fill="#fff"/>
            <path d="m8.053 11.325v21.925l6.7782-5.0742v-5.7937l-1.2496-0.9845 5.7937-4.3548 5.7558 4.3548-1.2496 0.9845v5.7937l6.8161 5.0742v-21.925h-22.645z"
                  fill="#fff"/>
            <rect x="23" y="1" width="18" height="18" rx="9" fill="#FF4339" stroke="#fff" stroke-width="2"/>
            <path d="m30.111 4.8525c-0.1409-0.02351-0.1469-0.02626-0.0806-0.03723 0.1271-0.02101 0.4271 0.00763 0.6339 0.06051 0.4826 0.1234 0.9218 0.43953 1.3906 1.001l0.1246 0.14916 0.1781-0.03081c0.7506-0.12975 1.5142-0.02663 2.1529 0.29072 0.1757 0.08731 0.4527 0.26111 0.4873 0.30577 0.0111 0.01423 0.0313 0.10585 0.045 0.20362 0.0474 0.33824 0.0237 0.59751-0.0725 0.79116-0.0523 0.10537-0.0552 0.13877-0.02 0.22895 0.0281 0.07196 0.1064 0.12523 0.1839 0.12511 0.1587-2.3e-4 0.3295-0.2762 0.4087-0.6602l0.0315-0.15252 0.0622 0.07589c0.3417 0.41635 0.61 0.98416 0.6561 1.3883l0.012 0.10539-0.0574-0.0958c-0.0988-0.16485-0.1982-0.27707-0.3253-0.36758-0.2293-0.16314-0.4716-0.21866-1.1135-0.25505-0.5797-0.03285-0.9078-0.08611-1.2332-0.20023-0.5535-0.19412-0.8325-0.45266-1.4901-1.3806-0.292-0.41216-0.4725-0.64019-0.6521-0.82383-0.408-0.41728-0.8089-0.63612-1.3221-0.72174z"
                  fill="#fff"/>
            <path d="m35.128 5.7728c0.0146-0.27618 0.0494-0.45835 0.1194-0.62472 0.0277-0.06584 0.0537-0.11974 0.0577-0.11974s-0.0081 0.0486-0.0268 0.108c-0.0509 0.16146-0.0593 0.38229-0.0242 0.63923 0.0445 0.326 0.0698 0.37304 0.3902 0.72519 0.1502 0.16518 0.325 0.3735 0.3883 0.46294l0.1152 0.16263-0.1152-0.11622c-0.1409-0.14213-0.4648-0.41932-0.5364-0.45894-0.048-0.02657-0.0551-0.02611-0.0847 0.00558-0.0273 0.02919-0.0331 0.07307-0.0368 0.28049-0.0059 0.32329-0.0469 0.53079-0.1457 0.73827-0.0535 0.11221-0.062 0.08826-0.0136-0.0384 0.0361-0.09457 0.0398-0.13614 0.0396-0.4491-6e-4 -0.62881-0.07-0.77998-0.477-1.0389-0.103-0.0656-0.273-0.16021-0.3775-0.21026-0.1045-0.05004-0.1875-0.09363-0.1845-0.09689 0.0115-0.01233 0.4084 0.11227 0.5682 0.17838 0.2376 0.09832 0.2768 0.11107 0.3057 0.09921 0.0194-0.00796 0.0287-0.06856 0.0381-0.24671z"
                  fill="#fff"/>
            <path d="m30.385 6.8485c-0.286-0.42355-0.463-1.073-0.4247-1.5584l0.0119-0.15023 0.0651 0.01278c0.1222 0.02398 0.3331 0.10838 0.4318 0.17287 0.2708 0.17696 0.3881 0.40994 0.5074 1.0082 0.035 0.17523 0.0808 0.37353 0.1019 0.44067 0.034 0.10806 0.1623 0.36046 0.2667 0.52438 0.0752 0.11807 0.0252 0.17401-0.1409 0.15788-0.2538-0.02463-0.5975-0.27978-0.8192-0.60812z"
                  fill="#fff"/>
            <path d="m34.781 10.001c-1.3367-0.57887-1.8074-1.0814-1.8074-1.9292 0-0.12477 4e-3 -0.22685 0.0088-0.22685 0.0049 0 0.0566 0.04117 0.115 0.09151 0.271 0.23384 0.5745 0.33372 1.4148 0.46557 0.4944 0.0776 0.7727 0.14028 1.0294 0.23183 0.8158 0.29104 1.3205 0.88165 1.4409 1.6861 0.035 0.2337 0.0145 0.6721-0.0423 0.9031-0.0447 0.1825-0.1813 0.5114-0.2176 0.524-0.01 0.0035-0.0199-0.0379-0.0225-0.0943-0.0137-0.302-0.1556-0.5961-0.3939-0.8164-0.271-0.2505-0.635-0.4499-1.5252-0.8354z"
                  fill="#fff"/>
            <path d="m33.843 10.241c-0.0167-0.1072-0.0458-0.2441-0.0645-0.30422l-0.0341-0.1093 0.0633 0.07648c0.0877 0.10584 0.157 0.24124 0.2157 0.42164 0.0448 0.1377 0.0498 0.1786 0.0495 0.4024-3e-4 0.2196-0.0059 0.2657-0.0473 0.3896-0.0653 0.1954-0.1462 0.3339-0.2821 0.4827-0.2442 0.2673-0.5581 0.4153-1.0111 0.4766-0.0787 0.0107-0.3082 0.0287-0.51 0.0399-0.5085 0.0285-0.8431 0.0873-1.1438 0.2009-0.0433 0.0163-0.0819 0.0262-0.0858 0.022-0.0122-0.013 0.1926-0.1443 0.3617-0.2319 0.2384-0.1236 0.4758-0.191 1.0076-0.2863 0.2627-0.0471 0.534-0.1042 0.6029-0.1269 0.6506-0.2145 0.9851-0.7682 0.878-1.4536z"
                  fill="#fff"/>
            <path d="m34.456 11.412c-0.1776-0.4106-0.2184-0.8071-0.1211-1.1769 0.0104-0.0395 0.0271-0.0718 0.0372-0.0718s0.052 0.0244 0.0931 0.0541c0.0819 0.0593 0.246 0.1591 0.6832 0.4155 0.5457 0.32 0.8568 0.5678 1.0684 0.8509 0.1853 0.2479 0.2999 0.5303 0.3551 0.8747 0.0313 0.195 0.0129 0.6643-0.0336 0.8607-0.1467 0.6193-0.4877 1.1057-0.974 1.3895-0.0712 0.0416-0.1352 0.0758-0.1421 0.0759-7e-3 2e-4 0.019-0.0708 0.0577-0.1578 0.1635-0.3678 0.1822-0.7256 0.0585-1.1239-0.0757-0.2439-0.2302-0.5415-0.5419-1.0444-0.3625-0.5847-0.4514-0.7403-0.5405-0.9465z"
                  fill="#fff"/>
            <path d="m29.435 13.628c0.496-0.4505 1.1132-0.7706 1.6754-0.8688 0.2423-0.0424 0.6459-0.0256 0.8702 0.0362 0.3596 0.099 0.6813 0.3208 0.8486 0.5849 0.1635 0.2582 0.2337 0.4832 0.3067 0.9838 0.0288 0.1975 0.0602 0.3958 0.0697 0.4407 0.0548 0.2595 0.1615 0.4668 0.2938 0.571 0.2101 0.1654 0.5718 0.1756 0.9276 0.0263 0.0604-0.0254 0.1129-0.0429 0.1165-0.0389 0.013 0.0138-0.1662 0.1428-0.2926 0.2107-0.1701 0.0914-0.3054 0.1268-0.4851 0.1268-0.3259 0-0.5965-0.1783-0.8223-0.542-0.0444-0.0716-0.1443-0.2859-0.2219-0.4763-0.2384-0.5849-0.3561-0.763-0.6329-0.958-0.2408-0.1696-0.5515-0.2001-0.7852-0.0768-0.3069 0.1619-0.3926 0.5839-0.1727 0.8513 0.0874 0.1063 0.2503 0.1979 0.3836 0.2157 0.2492 0.0334 0.4635-0.1706 0.4635-0.4413 0-0.1758-0.0628-0.2761-0.221-0.3529-0.2159-0.1048-0.4481 0.0178-0.447 0.236 5e-4 0.0931 0.0382 0.1514 0.1249 0.1937 0.0557 0.0271 0.0569 0.0292 0.0116 0.019-0.1982-0.0441-0.2446-0.3011-0.0853-0.4717 0.1913-0.2047 0.5868-0.1144 0.7227 0.1652 0.057 0.1174 0.0637 0.3512 0.0139 0.4924-0.1113 0.316-0.436 0.4822-0.7653 0.3918-0.2243-0.0617-0.3156-0.1283-0.5859-0.4278-0.4698-0.5206-0.6521-0.6214-1.3294-0.7351l-0.1297-0.0218 0.1476-0.1341z"
                  fill="#fff"/>
            <path d="m27.231 4.3113c1.5688 2.0481 2.6493 2.8931 2.7694 3.0717 0.0992 0.14742 0.0618 0.27994-0.108 0.38381-0.0944 0.05775-0.2886 0.11626-0.3859 0.11626-0.1099 0-0.1477-0.04563-0.1477-0.04563-0.0637-0.06505-0.0996-0.05368-0.4271-0.67884-0.4545-0.75872-0.835-1.3881-0.8453-1.3986-0.024-0.02437-0.0236-0.02355 0.799 1.5597 0.1329 0.32998 0.0264 0.45111 0.0264 0.4981 0 0.09561-0.0242 0.14586-0.1339 0.27742-0.1828 0.21933-0.2645 0.46578-0.3234 0.97583-0.0662 0.57176-0.2521 0.97564-0.7674 1.6668-0.3016 0.4047-0.3509 0.4788-0.4271 0.6419-0.0958 0.2054-0.1222 0.3204-0.1329 0.5797-0.0113 0.2743 0.0107 0.4514 0.0886 0.7136 0.0682 0.2295 0.1394 0.381 0.3213 0.6841 0.157 0.2616 0.2474 0.456 0.2474 0.5321 0 0.0605 0.0108 0.0606 0.2541 0.0014 0.5822-0.1414 1.055-0.3901 1.3209-0.695 0.1646-0.1887 0.2032-0.2929 0.2045-0.5513 8e-4 -0.1692-0.0047-0.2046-0.0472-0.3019-0.0692-0.1584-0.1952-0.29-0.4728-0.4941-0.3637-0.2675-0.519-0.4828-0.5619-0.7789-0.0352-0.243 0.0056-0.4144 0.2068-0.868 0.2083-0.46957 0.2599-0.66966 0.2948-1.1429 0.0225-0.30577 0.0538-0.42636 0.1354-0.52315 0.0852-0.10094 0.1619-0.13512 0.3727-0.1661 0.3437-0.0505 0.5625-0.14614 0.7424-0.32444 0.1561-0.15468 0.2214-0.30372 0.2314-0.52808l0.0076-0.17006-0.0872-0.10936c-0.3158-0.39607-3.3663-3.2373-3.3858-3.2373-0.0041 0 0.0998 0.14011 0.2309 0.31134zm0.7307 7.9584c0.0714-0.136 0.0335-0.3108-0.086-0.3963-0.1128-0.0807-0.2881-0.0426-0.2881 0.0625 0 0.0321 0.0165 0.0555 0.0537 0.0761 0.0626 0.0346 0.0671 0.0736 0.0179 0.1532-0.0499 0.0807-0.0459 0.1516 0.0113 0.1998 0.0923 0.0777 0.2228 0.035 0.2912-0.0953z"
                  fill="#fff"/>
            <path d="m30.69 8.4584c-0.1614 0.05335-0.3182 0.23746-0.3668 0.43051-0.0296 0.11777-0.0128 0.32435 0.0316 0.38815 0.0717 0.10304 0.141 0.13019 0.3287 0.12877 0.3674-0.00276 0.6868-0.17242 0.7239-0.38452 0.0305-0.17387-0.1098-0.41482-0.303-0.5206-0.0998-0.05457-0.3118-0.07621-0.4144-0.04231zm0.4295 0.36162c0.0567-0.08669 0.0319-0.18037-0.0645-0.24373-0.1835-0.12065-0.461-0.02081-0.461 0.16585 0 0.09291 0.1447 0.19428 0.2774 0.19428 0.0883 0 0.2091-0.05669 0.2481-0.1164z"
                  fill="#fff"/>
            <path d="m32 43c4.9856 0 9-4.0144 9-9s-4.0144-9-9-9-9 4.0144-9 9 4.0144 9 9 9z" fill="#FF4339" stroke="#fff"
                  stroke-width="2"/>
            <path d="m34.2 35.267c0-1.1666-0.7-1.5666-2.1-1.7332-1-0.1334-1.2-0.4-1.2-0.8668 0-0.4667 0.3334-0.7666 1-0.7666 0.6 0 0.9334 0.2 1.1 0.7 0.0334 0.1 0.1334 0.1666 0.2334 0.1666h0.5333c0.1333 0 0.2333-0.1 0.2333-0.2332v-0.0334c-0.1333-0.7334-0.7333-1.3-1.5-1.3666v-0.8c0-0.1334-0.1-0.2334-0.2666-0.2667h-0.5c-0.1334 0-0.2334 0.1-0.2667 0.2667v0.7666c-1 0.1334-1.6333 0.8-1.6333 1.6334 0 1.1 0.6666 1.5332 2.0666 1.7 0.9334 0.1666 1.2334 0.3666 1.2334 0.9 0 0.5333-0.4667 0.9-1.1 0.9-0.8667 0-1.1667-0.3668-1.2667-0.8668-0.0333-0.1332-0.1333-0.2-0.2333-0.2h-0.5667c-0.1333 0-0.2333 0.1-0.2333 0.2334v0.0334c0.1333 0.8332 0.6666 1.4332 1.7666 1.6v0.8c0 0.1332 0.1 0.2332 0.2667 0.2666h0.5c0.1333 0 0.2333-0.1 0.2667-0.2666v-0.8c1-0.1668 1.6666-0.8668 1.6666-1.7668z"
                  fill="#fff"/>
            <path d="m30.3 38.766c-2.6-0.9332-3.9334-3.8332-2.9667-6.4 0.5-1.4 1.6-2.4666 2.9667-2.9666 0.1333-0.0666 0.2-0.1666 0.2-0.3334v-0.4666c0-0.1334-0.0667-0.2334-0.2-0.2666-0.0334 0-0.1 0-0.1334 0.0332-3.1666 1-4.9 4.3668-3.9 7.5334 0.6 1.8666 2.0334 3.3 3.9 3.9 0.1334 0.0666 0.2667 0 0.3-0.1334 0.0334-0.0332 0.0334-0.0666 0.0334-0.1332v-0.4668c0-0.1-0.1-0.2332-0.2-0.3zm3.5333-10.4c-0.1333-0.0666-0.2667 0-0.3 0.1334-0.0333 0.0334-0.0333 0.0666-0.0333 0.1334v0.4666c0 0.1334 0.1 0.2666 0.2 0.3334 2.6 0.9332 3.9333 3.8332 2.9666 6.4-0.5 1.4-1.6 2.4666-2.9666 2.9666-0.1334 0.0666-0.2 0.1666-0.2 0.3334v0.4666c0 0.1334 0.0666 0.2334 0.2 0.2666 0.0333 0 0.1 0 0.1333-0.0332 3.1667-1 4.9-4.3668 3.9-7.5334-0.6-1.9-2.0667-3.3334-3.9-3.9334z"
                  fill="#fff"/>
        </symbol>
        <!-- RIGHT ARROW CIRCLE OUTLINED -->
        <symbol id="icon__right-arrow-circle-outlined" viewBox="0 0 24 24" fill="none">
            <path d="M12.9066 6.47135C12.6146 6.17753 12.1397 6.17603 11.8459 6.46799C11.5521 6.75996 11.5506 7.23483 11.8426 7.52865L12.9066 6.47135ZM16.7575 11.4107L16.2255 11.9394L16.7575 11.4107ZM16.7575 12.5893L16.2255 12.0606L16.7575 12.5893ZM11.8426 16.4714C11.5506 16.7652 11.5521 17.24 11.8459 17.532C12.1397 17.824 12.6146 17.8225 12.9066 17.5286L11.8426 16.4714ZM16.5149 12.75C16.9291 12.75 17.2649 12.4142 17.2649 12C17.2649 11.5858 16.9291 11.25 16.5149 11.25V12.75ZM7 11.25C6.58579 11.25 6.25 11.5858 6.25 12C6.25 12.4142 6.58579 12.75 7 12.75L7 11.25ZM11.8426 7.52865L16.2255 11.9394L17.2895 10.8821L12.9066 6.47135L11.8426 7.52865ZM16.2255 12.0606L11.8426 16.4714L12.9066 17.5286L17.2895 13.1179L16.2255 12.0606ZM16.2255 11.9394C16.2582 11.9723 16.2582 12.0277 16.2255 12.0606L17.2895 13.1179C17.9035 12.5 17.9035 11.5 17.2895 10.8821L16.2255 11.9394ZM16.5149 11.25L7 11.25L7 12.75L16.5149 12.75V11.25Z"
                  fill="currentColor"/>
            <path d="M21.25 12C21.25 17.1086 17.1086 21.25 12 21.25V22.75C17.9371 22.75 22.75 17.9371 22.75 12H21.25ZM12 21.25C6.89137 21.25 2.75 17.1086 2.75 12H1.25C1.25 17.9371 6.06294 22.75 12 22.75V21.25ZM2.75 12C2.75 6.89137 6.89137 2.75 12 2.75V1.25C6.06294 1.25 1.25 6.06294 1.25 12H2.75ZM12 2.75C17.1086 2.75 21.25 6.89137 21.25 12H22.75C22.75 6.06294 17.9371 1.25 12 1.25V2.75Z"
                  fill="currentColor"/>
        </symbol>
        <!-- LEFT ARROW -->
        <symbol id="icon__left-arrow" viewBox="0 0 21 24" fill="none">
            <path d="M12.0709 20.8637L11.0303 21.9043C10.5897 22.3449 9.8772 22.3449 9.44126 21.9043L0.32876 12.7965C-0.111865 12.3559 -0.111865 11.6434 0.32876 11.2074L9.44126 2.09493C9.88188 1.65431 10.5944 1.65431 11.0303 2.09493L12.0709 3.13556C12.5163 3.58087 12.5069 4.30743 12.0522 4.74337L6.40376 10.1246H19.8756C20.4991 10.1246 21.0006 10.6262 21.0006 11.2496V12.7496C21.0006 13.3731 20.4991 13.8746 19.8756 13.8746H6.40376L12.0522 19.2559C12.5116 19.6918 12.5209 20.4184 12.0709 20.8637Z"
                  fill="currentColor"/>
        </symbol>
        <!-- BELL -->
        <symbol id="icon__bell" viewBox="0 0 21 24" fill="none">
            <path d="m10.499 24c1.6556 0 2.9986-1.343 2.9986-3h-5.9972c0 1.657 1.343 3 2.9986 3zm10.096-7.0177c-0.9056-0.9731-2.6002-2.437-2.6002-7.2323 0-3.6422-2.5537-6.5578-5.9972-7.2731v-0.97688c0-0.82828-0.6712-1.5-1.499-1.5-0.82783 0-1.4991 0.67172-1.4991 1.5v0.97688c-3.4434 0.71531-5.9972 3.6309-5.9972 7.2731 0 4.7953-1.6945 6.2592-2.6002 7.2323-0.28125 0.3024-0.40594 0.6638-0.40359 1.0177 0.0051562 0.7687 0.60844 1.5 1.5047 1.5h17.991c0.8962 0 1.5-0.7313 1.5047-1.5 0.0023-0.3539-0.1224-0.7158-0.4036-1.0177z"
                  fill="currentColor"/>
        </symbol>
        <!-- CHEVRON RIGHT -->
        <symbol id="icon__chevron-right" viewBox="0 0 16 14" fill="none">
            <path d="m11.921 7.5303-6.0732 6.0733c-0.29291 0.2929-0.76778 0.2929-1.0607 0l-0.70834-0.7084c-0.29241-0.2924-0.29297-0.7663-0.00125-1.0594l4.8132-4.8358-4.8132-4.8358c-0.29172-0.2931-0.29116-0.767 0.00125-1.0594l0.70834-0.70834c0.29291-0.29291 0.76778-0.29291 1.0607 0l6.0732 6.0732c0.2929 0.2929 0.2929 0.76778 0 1.0607z"
                  fill="currentColor"/>
        </symbol>
        <!-- CLOSE CIRCLE OUTLINED -->
        <symbol id="icon__close-circle-outlined" viewBox="0 0 40 40" fill="none">
            <path d="m20 40c11.046 0 20-8.9543 20-20 0-11.046-8.9543-20-20-20-11.046 0-20 8.9543-20 20 0 11.046 8.9543 20 20 20z"
                  fill="currentColor" fill-opacity=".08"/>
            <path d="m26.222 13.778-3.8225 3.8225" stroke="currentColor" stroke-linecap="round" stroke-width="2"/>
            <path d="m24.675 15.323-10.899 10.899" stroke="currentColor" stroke-linecap="round" stroke-width="2"/>
            <path d="m26.223 26.222-12.445-12.445" stroke="currentColor" stroke-linecap="round" stroke-width="2"/>
        </symbol>
        <!-- CHECK CIRCLE OUTLINED -->
        <symbol id="icon__check-circle-outlined" viewBox="0 0 40 40" fill="none">
            <path d="m20 40c11.046 0 20-8.9543 20-20 0-11.046-8.9543-20-20-20-11.046 0-20 8.9543-20 20 0 11.046 8.9543 20 20 20z"
                  fill="currentColor" fill-opacity=".08"/>
            <path d="m27 15.667-8.6262 8.6263c-0.3906 0.3905-1.0237 0.3905-1.4142 0l-3.9596-3.9596"
                  stroke="currentColor" stroke-linecap="round" stroke-linejoin="round" stroke-width="1.5"/>
        </symbol>
        <!-- HISTORY CIRCLE OUTLINED -->
        <symbol id="icon__history-circle-outlined" viewBox="0 0 40 40" fill="none">
            <path d="m20 40c11.046 0 20-8.9543 20-20 0-11.046-8.9543-20-20-20-11.046 0-20 8.9543-20 20 0 11.046 8.9543 20 20 20z"
                  fill="currentColor" fill-opacity=".08"/>
            <path d="m25 13h-10m10 14h-10m5.2026-7.0507c-0.133 0.0333-0.2722 0.0333-0.4052 0-2.2318-0.5579-3.7974-2.5631-3.7974-4.8635v-1.0858c0-0.5523 0.4477-1 1-1h6c0.5523 0 1 0.4477 1 1v1.0858c0 2.3004-1.5656 4.3056-3.7974 4.8635zm0 0.1014c-0.133-0.0333-0.2722-0.0333-0.4052 0-2.2318 0.5579-3.7974 2.5631-3.7974 4.8635v1.0858c0 0.5523 0.4477 1 1 1h6c0.5523 0 1-0.4477 1-1v-1.0858c0-2.3004-1.5656-4.3056-3.7974-4.8635z"
                  stroke="currentColor" stroke-linecap="round" stroke-linejoin="round" stroke-width="1.5"/>
        </symbol>
        <!-- CLOSE -->
        <symbol id="icon__close" viewBox="0 0 12 16" fill="none">
            <path d="m8.2518 8 3.1272-3.1272c0.3838-0.38375 0.3838-1.0059 0-1.39l-0.695-0.695c-0.3837-0.38375-1.0059-0.38375-1.39 0l-3.1272 3.1272-3.1272-3.1272c-0.38375-0.38375-1.0059-0.38375-1.39 0l-0.695 0.695c-0.38375 0.38375-0.38375 1.0059 0 1.39l3.1272 3.1272-3.1272 3.1272c-0.38375 0.3837-0.38375 1.0059 0 1.39l0.695 0.695c0.38375 0.3837 1.0062 0.3837 1.39 0l3.1272-3.1272 3.1272 3.1272c0.38375 0.3837 1.0063 0.3837 1.39 0l0.695-0.695c0.3838-0.3838 0.3838-1.0059 0-1.39l-3.1272-3.1272z"
                  fill="currentColor"/>
        </symbol>
        <!-- DROPDOWN ARROW -->
        <symbol id="icon__dropdown-arrow" viewBox="0 0 24 24" fill="none">
            <path d="M11.2947 14.2929L7.70896 10.7071C7.079 10.0771 7.52516 9 8.41607 9H15.5876C16.4785 9 16.9247 10.0771 16.2947 10.7071L12.709 14.2929C12.3184 14.6834 11.6853 14.6834 11.2947 14.2929Z"
                  fill="currentColor"/>
        </symbol>
        <!-- WARNING OUTLINED -->
        <symbol id="icon__warning-outlined" viewBox="0 0 39 34" fill="none">
            <path d="m37.744 28.98c1.2017 2.0829-0.3067 4.6866-2.7069 4.6866h-31.243c-2.4048 0-3.9062-2.6077-2.7068-4.6866l15.622-27.085c1.2023-2.0839 4.2135-2.0801 5.4137 0l15.621 27.085zm-18.328-5.5998c-1.6539 0-2.9948 1.3408-2.9948 2.9948 0 1.6539 1.3409 2.9948 2.9948 2.9948 1.654 0 2.9948-1.3409 2.9948-2.9948 0-1.654-1.3408-2.9948-2.9948-2.9948zm-2.8433-10.765 0.483 8.8541c0.0226 0.4143 0.3651 0.7387 0.78 0.7387h3.1606c0.4149 0 0.7575-0.3244 0.7801-0.7387l0.4829-8.8541c0.0244-0.4476-0.3319-0.8239-0.7801-0.8239h-4.1265c-0.4481 0-0.8044 0.3763-0.78 0.8239z"
                  fill="currentColor"/>
        </symbol>
        <!-- GEAR -->
        <symbol id="icon__gear" viewBox="0 0 24 24" fill="none">
            <path d="m9.5996 3.5312v-0.33125c0-0.88366 0.71639-1.6 1.6-1.6h1.6c0.8837 0 1.6 0.71634 1.6 1.6v0.33125c0.6657 0.18827 1.2993 0.45292 1.8908 0.78387l0.2347-0.23472c0.6248-0.62484 1.6379-0.62484 2.2627 0l1.1314 1.1314c0.6248 0.62484 0.6248 1.6379 0 2.2627l-0.2347 0.23473c0.3309 0.59148 0.5956 1.2251 0.7839 1.8908h0.3312c0.8837 0 1.6 0.71632 1.6 1.6v1.6c0 0.8836-0.7163 1.6-1.6 1.6h-0.3312c-0.1883 0.6656-0.453 1.2993-0.7839 1.8907l0.2347 0.2348c0.6248 0.6248 0.6248 1.6379 0 2.2627l-1.1314 1.1314c-0.6248 0.6248-1.6379 0.6248-2.2627 0l-0.2347-0.2348c-0.5915 0.331-1.2251 0.5956-1.8908 0.7839v0.3313c0 0.8836-0.7163 1.6-1.6 1.6h-1.6c-0.8836 0-1.6-0.7164-1.6-1.6v-0.3313c-0.66567-0.1883-1.2993-0.4529-1.8908-0.7839l-0.23472 0.2348c-0.62484 0.6248-1.6379 0.6248-2.2628 0l-1.1314-1.1314c-0.62484-0.6248-0.62484-1.6379 0-2.2627l0.23473-0.2348c-0.33096-0.5914-0.5956-1.2251-0.78388-1.8907h-0.33125c-0.88366 0-1.6-0.7164-1.6-1.6v-1.6c0-0.8837 0.71634-1.6 1.6-1.6h0.33125c0.18828-0.66568 0.45292-1.2993 0.78388-1.8908l-0.23473-0.23473c-0.62484-0.62484-0.62484-1.6379 0-2.2627l1.1314-1.1314c0.62484-0.62484 1.6379-0.62484 2.2628 0l0.23472 0.23472c0.59148-0.33095 1.2251-0.5956 1.8908-0.78387zm2.4 11.669c1.7673 0 3.2-1.4327 3.2-3.2s-1.4327-3.2-3.2-3.2-3.2 1.4327-3.2 3.2 1.4327 3.2 3.2 3.2z"
                  stroke="currentColor" stroke-linecap="round" stroke-width="1.5"/>
        </symbol>
        <!-- EARTH -->
        <symbol id="icon__earth" viewBox="0 0 24 24" fill="none">
            <path d="m11.625 0.375c-6.4205 0-11.625 5.2045-11.625 11.625s5.2045 11.625 11.625 11.625 11.625-5.2045 11.625-11.625-5.2045-11.625-11.625-11.625zm3.8573 16.762c-0.1828 0.1819-0.3745 0.3727-0.5301 0.5288-0.1402 0.1406-0.2391 0.314-0.2892 0.502-0.0708 0.2653-0.128 0.5334-0.2236 0.7908l-0.8152 2.1961c-0.645 0.1406-1.3125 0.2198-1.9992 0.2198v-1.2834c0.0792-0.5916-0.3581-1.6997-1.0608-2.4024-0.2812-0.2812-0.4392-0.6628-0.4392-1.0608v-1.5004c0-0.5457-0.29391-1.0472-0.77156-1.3111-0.6736-0.3727-1.6317-0.8935-2.288-1.2239-0.53813-0.271-1.0359-0.616-1.4836-1.0196l-0.0375-0.0337c-0.32012-0.289-0.60435-0.6154-0.84656-0.9722-0.43969-0.64547-1.1559-1.7072-1.6214-2.3972 0.95953-2.1328 2.6888-3.8456 4.8375-4.7761l1.1255 0.56297c0.49875 0.24937 1.0856-0.11297 1.0856-0.67078v-0.52969c0.3745-0.06047 0.7556-0.09891 1.1433-0.11344l1.3265 1.3266c0.293 0.29297 0.293 0.76782 0 1.0608l-0.2198 0.21938-0.4847 0.48469c-0.1462 0.14625-0.1462 0.3839 0 0.53015l0.2199 0.21985c0.1462 0.14625 0.1462 0.3839 0 0.53015l-0.375 0.375c-0.0705 0.07028-0.1659 0.10973-0.2654 0.10969h-0.4214c-0.0975 0-0.1912 0.03797-0.2615 0.10641l-0.465 0.45234c-0.057 0.05551-0.0949 0.12769-0.1082 0.20613-0.0133 0.07843-0.0014 0.15907 0.0341 0.23028l0.7308 1.462c0.1247 0.24938-0.0567 0.54278-0.3352 0.54278h-0.2643c-0.0905 0-0.1777-0.0328-0.2457-0.0918l-0.43496-0.3779c-0.09844-0.08535-0.21741-0.14366-0.34521-0.16914-0.12781-0.02547-0.26004-0.01725-0.3837 0.02387l-1.4611 0.48707c-0.11155 0.0372-0.20857 0.1085-0.2773 0.2039-0.06874 0.0954-0.10571 0.21-0.10567 0.3276 0 0.2124 0.12 0.406 0.30984 0.5011l0.51938 0.2597c0.44109 0.2208 0.92765 0.3356 1.4208 0.3356 0.49312 0 1.0589 1.2792 1.5 1.5h3.1289c0.3979 0 0.779 0.158 1.0608 0.4392l0.6417 0.6418c0.2681 0.2682 0.4186 0.6319 0.4186 1.0111-1e-4 0.2873-0.057 0.5718-0.1674 0.8371-0.1103 0.2653-0.272 0.5062-0.4758 0.7088zm4.0646-4.282c-0.2714-0.068-0.5082-0.2344-0.6633-0.4674l-0.8428-1.2642c-0.1233-0.1847-0.1892-0.4018-0.1892-0.6239s0.0659-0.4392 0.1892-0.62391l0.9183-1.3772c0.1087-0.16266 0.2578-0.29485 0.4331-0.38203l0.6084-0.30422c0.6338 1.2619 0.9994 2.6812 0.9994 4.1873 0 0.4064-0.0347 0.8044-0.0853 1.1972l-1.3678-0.3417z"
                  fill="currentColor"/>
        </symbol>
        <!-- INFO OUTLINED -->
        <symbol id="icon__info-outlined" viewBox="0 0 24 24" fill="none">
            <path d="m10.312 16.5h0.5625v-5.625h-0.5625c-0.3106 0-0.5625-0.2519-0.5625-0.5625v-0.375c0-0.31064 0.2519-0.5625 0.5625-0.5625h2.25c0.3106 0 0.5625 0.25186 0.5625 0.5625v6.5625h0.5625c0.3106 0 0.5625 0.2519 0.5625 0.5625v0.375c0 0.3106-0.2519 0.5625-0.5625 0.5625h-3.375c-0.3106 0-0.5625-0.2519-0.5625-0.5625v-0.375c0-0.3106 0.2519-0.5625 0.5625-0.5625zm1.6875-11.25c-0.8284 0-1.5 0.67158-1.5 1.5s0.6716 1.5 1.5 1.5 1.5-0.67158 1.5-1.5-0.6716-1.5-1.5-1.5z"
                  fill="currentColor"/>
            <path d="m12.001 23.2c6.1856 0 11.2-5.0144 11.2-11.2s-5.0144-11.2-11.2-11.2c-6.1856 0-11.2 5.0144-11.2 11.2s5.0144 11.2 11.2 11.2z"
                  stroke="currentColor" stroke-linecap="round" stroke-width="1.5"/>
        </symbol>
        <!-- PAPER BILL OUTLINED -->
        <symbol id="icon__paper-bill-outlined" viewBox="0 0 20 24" fill="none">
            <path d="m18.8 13.2v-9.4c0-1.6568-1.3432-3-3-3h-11.6c-1.6569 0-3 1.3431-3 3v16.4c0 1.6568 1.3431 2.9999 3 2.9999h7"
                  stroke="currentColor" stroke-linecap="round" stroke-width="1.5"/>
            <path d="m6.7998 8.8h6.4" stroke="currentColor" stroke-linecap="round" stroke-width="1.5"/>
            <path d="m6.7998 12h2.4" stroke="currentColor" stroke-linecap="round" stroke-width="1.5"/>
            <path d="m19.232 20.403c0 0.4992-0.1584 0.9264-0.4752 1.2816s-0.7568 0.5936-1.32 0.7152v1.084c0 0.2761-0.2239 0.5-0.5 0.5h-0.296c-0.2761 0-0.5-0.2239-0.5-0.5v-1.0168c-0.864-0.0768-1.5776-0.3904-2.1408-0.9408l0.9216-1.008c0.48 0.4096 1.0016 0.6144 1.5648 0.6144 0.2624 0 0.4592-0.0512 0.5904-0.1536s0.1968-0.24 0.1968-0.4128c0-0.128-0.0288-0.2352-0.0864-0.3216s-0.1584-0.1648-0.3024-0.2352-0.3568-0.1504-0.6384-0.24c-0.736-0.2304-1.2496-0.5088-1.5408-0.8352s-0.4368-0.7328-0.4368-1.2192c0-0.5056 0.1712-0.9248 0.5136-1.2576s0.7952-0.544 1.3584-0.6336v-0.9304c0-0.2762 0.2239-0.5 0.5-0.5h0.296c0.2761 0 0.5 0.2238 0.5 0.5v0.94c0.6528 0.1024 1.1968 0.3712 1.632 0.8064l-0.8256 0.9792c-0.4288-0.3392-0.8832-0.5088-1.3632-0.5088-0.224 0-0.3936 0.04-0.5088 0.12s-0.1728 0.1904-0.1728 0.3312c0 0.1088 0.032 0.1984 0.096 0.2688s0.1712 0.1376 0.3216 0.2016 0.392 0.1472 0.7248 0.2496c0.6656 0.2176 1.1472 0.4864 1.4448 0.8064s0.4464 0.7584 0.4464 1.3152z"
                  fill="currentColor"/>
        </symbol>
        <!-- CHATS OUTLINED -->
        <symbol id="icon__chats-outlined" viewBox="0 0 24 24" fill="none">
            <path d="m4.8006 6.3997h-0.2c-1.6569 0-3 1.3431-3 3v7c0 1.5464 1.2536 2.8 2.8 2.8v0" stroke="currentColor"
                  stroke-linecap="round" stroke-width="1.5"/>
            <path d="m14.4 19.2h-4.5459c-1.1363 0-2.1751 0.642-2.6833 1.6584l-0.77082 1.5416-2-3.2"
                  stroke="currentColor" stroke-linecap="round" stroke-linejoin="round" stroke-width="1.5"/>
            <path d="m17.601 19.2-0.6708 0.3354c0.1213 0.2426 0.3642 0.4009 0.6352 0.4137 0.271 0.0129 0.5278-0.1216 0.6716-0.3516l-0.636-0.3975zm1.7686-2.8298-0.636-0.3975 0.636 0.3975zm-2.5394 1.2881 0.6708-0.3354-0.6708 0.3354zm1.4416 1.2063-0.7708-1.5417-1.3417 0.6708 0.7709 1.5417 1.3416-0.6708zm-4.1249-3.6146h-6.3459v1.5h6.3459v-1.5zm-8.5959-2.25v-8.4h-1.5v8.4h1.5zm2.25-10.65h11.6v-1.5h-11.6v1.5zm13.85 2.25v9.0366h1.5v-9.0366h-1.5zm-3.414 14.998 1.7686-2.8298-1.272-0.795-1.7686 2.8298 1.272 0.795zm1.8006-4.3475c-0.5302 0-1.023 0.2731-1.304 0.7227l1.272 0.795c0.0069-0.011 0.019-0.0177 0.032-0.0177v-1.5zm1.6134-1.6134c0 0.891-0.7223 1.6134-1.6134 1.6134v1.5c1.7195 0 3.1134-1.3939 3.1134-3.1134h-1.5zm-2.25-11.287c1.2426 0 2.25 1.0074 2.25 2.25h1.5c0-2.0711-1.679-3.75-3.75-3.75v1.5zm-13.85 2.25c0-1.2426 1.0074-2.25 2.25-2.25v-1.5c-2.0711 0-3.75 1.6789-3.75 3.75h1.5zm2.25 10.65c-1.2426 0-2.25-1.0074-2.25-2.25h-1.5c0 2.071 1.6789 3.75 3.75 3.75v-1.5zm9.7 2.0729c-0.6352-1.2704-1.9337-2.0729-3.3541-2.0729v1.5c0.8522 0 1.6313 0.4815 2.0124 1.2437l1.3417-0.6708z"
                  fill="currentColor"/>
            <path d="m10.4 7.1999h6.4" stroke="currentColor" stroke-linecap="round" stroke-width="1.5"/>
            <path d="m10.4 10.4h6.4" stroke="currentColor" stroke-linecap="round" stroke-width="1.5"/>
        </symbol>
        <!-- FORUM OUTLINED -->
        <symbol id="icon__forum-outlined" viewBox="0 0 24 24" fill="none">
            <path 
                  d="M8.33333 9.09451H3.44444C2.09441 9.09451 1 10.186 1 11.5323V20.7787C1 21.8646 2.31651 22.4084 3.08646 21.6405L4.47452 20.2563C4.93294 19.7991 5.55469 19.5422 6.203 19.5422H13.2222C14.5723 19.5422 15.6667 18.4508 15.6667 17.1044V14.3184M8.33333 11.0099V5.43781C8.33333 4.09144 9.42775 3 10.7778 3H20.5556C21.9056 3 23 4.09144 23 5.43781V14.6841C23 15.7701 21.6835 16.3139 20.9135 15.546L19.5255 14.1618C19.0671 13.7046 18.4453 13.4477 17.797 13.4477H10.7778C9.42775 13.4477 8.33333 12.3563 8.33333 11.0099Z"
                  stroke="currentColor" stroke-width="1.5" stroke-linecap="round" stroke-linejoin="round"/>
        </symbol>
        <!-- BAR CHARTS OUTLINED -->
        <symbol id="icon__bar-charts-outlined" viewBox="0 0 24 24" fill="none">
            <rect x="1.5996" y="1.6" width="20.8" height="20.8" rx="3" stroke="currentColor" stroke-linecap="round"
                  stroke-width="1.5"/>
            <path d="m7.1998 6.4v11.2" stroke="currentColor" stroke-linecap="round" stroke-width="1.5"/>
            <path d="m12 12.8v4.8" stroke="currentColor" stroke-linecap="round" stroke-width="1.5"/>
            <path d="m16.799 9.6v8" stroke="currentColor" stroke-linecap="round" stroke-width="1.5"/>
        </symbol>
        <!-- SAVINGS OUTLINED -->
        <symbol id="icon__savings-outlined" viewBox="0 0 24 24" fill="none">
            <path d="m3.5998 11.2s1.2896-2.233 2-2.8c0.57795-0.46133-0.08695-2.5036 0.4-2.8 0.44101-0.26839 2.3793 1.1194 2.7457 0.98635 1.3855-0.50328 2.8703-0.69872 4.4543-0.58635 5.6381 0.4 10.8 5.8239 6.3836 11.682 0.3737 1.019 0.7014 3.7097 0.7918 4.4981 0.0135 0.1181-0.0791 0.2201-0.1979 0.2201h-3.6954c-0.0526 0-0.1031-0.0208-0.1405-0.0577l-1.5613-1.5423s-2.4082 0.4-3.9803 0c-0.94427 0.9442-1.3932 1.3932-1.5416 1.5416-0.0375 0.0375-0.08816 0.0584-0.14121 0.0584h-3.2866c-0.12171 0-0.21521-0.1078-0.19799-0.2283l0.36738-2.5717s-2-1.2-2.4-2.8c-1.2763-0.3444-2.2981-0.6484-2.6593-0.7573-0.084111-0.0254-0.1407-0.1027-0.1407-0.1905v-3.7014c0-0.0893 0.059195-0.1677 0.14506-0.1923l2.6549-0.7585z"
                  stroke="currentColor" stroke-linecap="round" stroke-width="1.5"/>
            <path d="m19.99 8.8077c0.9772-0.72929 1.6099-1.8946 1.6099-3.2077 0-2.2091-1.7909-4-4-4s-4 1.7909-4 4"
                  stroke="currentColor" stroke-linecap="round" stroke-width="1.5"/>
            <path d="m7.5994 13.6c0.66275 0 1.2-0.5373 1.2-1.2 0-0.6628-0.53725-1.2-1.2-1.2-0.66274 0-1.2 0.5372-1.2 1.2 0 0.6627 0.53726 1.2 1.2 1.2z"
                  fill="currentColor"/>
            <path d="m23.166 12.8s-0.2609 1.2-1.5669 1.2" stroke="currentColor" stroke-linecap="round"
                  stroke-width="1.5"/>
        </symbol>
        <!-- PROPOSAL OUTLINED -->
        <symbol id="icon__proposal-outlined" viewBox="0 0 24 24" fill="none">
            <path d="m20.134 22.4h-16.134c-1.3255 0-2.4-1.0745-2.4-2.4v0c0-1.3255 1.0745-2.4 2.4-2.4h12c0.8837 0 1.6 0.7163 1.6 1.6v0.9846c0 1.2235 0.9919 2.2154 2.2154 2.2154v0c1.4274 0 2.5846-1.1572 2.5846-2.5846v-15.215c0-1.6569-1.3431-3-3-3h-11.6c-1.6568 0-3 1.3431-3 3v13"
                  stroke="currentColor" stroke-linecap="round" stroke-width="1.5"/>
            <path d="m9.5996 8h8" stroke="currentColor" stroke-linecap="round" stroke-width="1.5"/>
            <path d="m9.5996 11.2h4.8" stroke="currentColor" stroke-linecap="round" stroke-width="1.5"/>
        </symbol>
        <!-- BANK OUTLINED -->
        <symbol id="icon__bank-outlined" viewBox="0 0 24 23" fill="none">
            <path d="m10.395 1.2166c0.9801-0.62072 2.2303-0.62072 3.2104 0l8.9384 5.661c0.423 0.26795 0.2332 0.92241-0.2676 0.92241h-20.552c-0.50078 0-0.6906-0.65446-0.26752-0.92241l8.9384-5.661z"
                  stroke="currentColor" stroke-linecap="round"
                  stroke-width="1.5"/>
            <rect x="1.5996" y="19" width="20.8" height="2.4" rx="1.2" stroke="currentColor" stroke-linecap="round"
                  stroke-width="1.5"/>
            <path d="m9.6002 7.8v11.2" stroke="currentColor" stroke-linecap="round" stroke-width="1.5"/>
            <path d="m14.4 7.8v11.2" stroke="currentColor" stroke-linecap="round" stroke-width="1.5"/>
            <path d="m19.2 7.8v11.2" stroke="currentColor" stroke-linecap="round" stroke-width="1.5"/>
            <path d="m4.8 7.8v11.2" stroke="currentColor" stroke-linecap="round" stroke-width="1.5"/>
        </symbol>
        <!-- WALLET OUTLINED -->
        <symbol id="icon__wallet-outlined" viewBox="0 0 24 24" fill="none">
            <path d="m22.4 16.8v2.6c0 1.6568-1.3431 3-3 3h-14.8c-1.6568 0-3-1.3432-3-3v-14.8c0-1.6569 1.3432-3 3-3h14.8c1.6569 0 3 1.3431 3 3v5.8"
                  stroke="currentColor" stroke-linecap="round" stroke-width="1.5"/>
            <path d="m12.8 13.4c0-1.6568 1.3432-3 3-3h6.6v6.4h-6.6c-1.6569 0-3-1.3431-3-3v-0.4z"
                  stroke="currentColor" stroke-linecap="round" stroke-width="1.5"/>
            <path d="m15.999 14.4c0.4418 0 0.8-0.3581 0.8-0.8 0-0.4418-0.3582-0.8-0.8-0.8s-0.8 0.3582-0.8 0.8c0 0.4419 0.3582 0.8 0.8 0.8z"
                  fill="currentColor"/>
            <path d="m2.3994 4.8h20" stroke="currentColor" stroke-linecap="round" stroke-width="1.5"/>
        </symbol>
        <!-- NETWORK -->
        <symbol id="icon__network" viewBox="0 0 24 20" fill="none">
            <path d="m24 9.9v-0.6c0-0.3315-0.2685-0.6-0.6-0.6h-10.5v-1.5h2.7c0.6626 0 1.2-0.53737 1.2-1.2v-4.8c0-0.66262-0.5374-1.2-1.2-1.2h-7.2c-0.66262 0-1.2 0.53738-1.2 1.2v4.8c0 0.66263 0.53738 1.2 1.2 1.2h2.7v1.5h-10.5c-0.3315 0-0.6 0.2685-0.6 0.6v0.6c0 0.3315 0.2685 0.6 0.6 0.6h3.9v1.5h-2.1c-0.66262 0-1.2 0.5374-1.2 1.2v4.8c0 0.6626 0.53738 1.2 1.2 1.2h6c0.66262 0 1.2-0.5374 1.2-1.2v-4.8c0-0.6626-0.53738-1.2-1.2-1.2h-2.1v-1.5h11.4v1.5h-2.1c-0.6626 0-1.2 0.5374-1.2 1.2v4.8c0 0.6626 0.5374 1.2 1.2 1.2h6c0.6626 0 1.2-0.5374 1.2-1.2v-4.8c0-0.6626-0.5374-1.2-1.2-1.2h-2.1v-1.5h3.9c0.3315 0 0.6-0.2685 0.6-0.6zm-14.4-5.1v-2.4h4.8v2.4h-4.8zm-2.4 12h-3.6v-2.4h3.6v2.4zm13.2 0h-3.6v-2.4h3.6v2.4z"
                  fill="currentColor"/>
        </symbol>
        <!-- PENCIL OUTLINED -->
        <symbol id="icon__pencil-outlined" viewBox="0 0 24 24" fill="none">
            <path d="M13.0003 7.84725L15.3045 10.1515L7.30231 18.8142L4.99805 18.8142L4.99805 16.5099L13.0003 7.84725Z"
                  stroke="currentColor" stroke-width="1.5"/>
            <path d="M17.9965 5.8964L17.0832 5.00702C16.6738 4.60841 16.0143 4.63321 15.636 5.06143L14.5003 6.34725L16.8482 8.63357L18.0483 7.27486C18.4015 6.87509 18.3787 6.26853 17.9965 5.8964Z"
                  stroke="currentColor" stroke-width="1.5"/>
        </symbol>
        <!-- RATE OUTLINED -->
        <symbol id="icon__rate-outlined" viewBox="0 0 24 24" fill="none">
            <path d="m12.828 21.376c-0.5258-0.2389-1.1292-0.2389-1.655 0l-1.8162 0.8255c-1.0541 0.479-2.2935-0.0343-2.7002-1.1185l-0.86014-2.2934c-0.10141-0.2704-0.31476-0.4837-0.58515-0.5851l-2.2934-0.8602c-1.0841-0.4066-1.5975-1.646-1.1184-2.7001l1.0135-2.2299c0.11948-0.2629 0.11948-0.5647 0-0.8276l-1.0135-2.2299c-0.47909-1.0541 0.0343-2.2935 1.1184-2.7002l2.2934-0.86014c0.27039-0.10141 0.48374-0.31476 0.58515-0.58515l0.86014-2.2934c0.40661-1.0841 1.646-1.5975 2.7002-1.1184l2.2299 1.0135c0.2629 0.11948 0.5647 0.11948 0.8276 0l2.2299-1.0135c1.0541-0.47909 2.2935 0.0343 2.7001 1.1184l0.8602 2.2934c0.1014 0.27039 0.3147 0.48374 0.5851 0.58515l2.2934 0.86014c1.0842 0.40661 1.5975 1.646 1.1185 2.7002l-1.0135 2.2299c-0.1195 0.2629-0.1195 0.5647 0 0.8276l1.0135 2.2299c0.479 1.0541-0.0343 2.2935-1.1185 2.7001l-2.2934 0.8602c-0.2704 0.1014-0.4837 0.3147-0.5851 0.5851l-0.8602 2.2934c-0.4066 1.0842-1.646 1.5975-2.7001 1.1185l-1.8162-0.8255z"
                  stroke="currentColor" stroke-linecap="round" stroke-width="1.5"/>
            <path d="m9.6 11.2c0.8837 0 1.6-0.7163 1.6-1.6 0-0.88366-0.7163-1.6-1.6-1.6-0.88366 0-1.6 0.71634-1.6 1.6 0 0.8837 0.71634 1.6 1.6 1.6zm4.8 4.8c0.8837 0 1.6-0.7163 1.6-1.6s-0.7163-1.6-1.6-1.6-1.6 0.7163-1.6 1.6 0.7163 1.6 1.6 1.6zm0.5657-6.9657c-0.3124-0.31241-0.819-0.31241-1.1314 0l-4.8 4.8c-0.31241 0.3124-0.31241 0.819 0 1.1314 0.31242 0.3124 0.81896 0.3124 1.1314 0l4.8-4.8c0.3124-0.31243 0.3124-0.81897 0-1.1314z"
                  fill="currentColor"/>
        </symbol>
        <!-- PLUS CIRCLE OUTLINED -->
        <symbol id="icon__plus-circle-outlined" viewBox="0 0 24 24" fill="none">
            <path d="m12.002 8.8v6.4" stroke="currentColor" stroke-linecap="round" stroke-width="1.5"/>
            <path d="m15.201 12h-6.4" stroke="currentColor" stroke-linecap="round" stroke-width="1.5"/>
            <path d="m12.001 23.2c6.1856 0 11.2-5.0144 11.2-11.2s-5.0144-11.2-11.2-11.2c-6.1856 0-11.2 5.0144-11.2 11.2s5.0144 11.2 11.2 11.2z"
                  stroke="currentColor" stroke-linecap="round" stroke-width="1.5"/>
        </symbol>
        <!-- PLUS SQUARE OUTLINED -->
        <symbol id="icon__plus-square-outlined" viewBox="0 0 16 16" fill="none">
            <path d="M8 5V11" stroke="currentColor" stroke-width="1.5" stroke-linecap="round"/>
            <path d="M11 8H5" stroke="currentColor" stroke-width="1.5" stroke-linecap="round"/>
            <rect x="1.06641" y="1.06689" width="13.8667" height="13.8667" rx="3" stroke="currentColor"
                  stroke-width="1.5" stroke-linecap="round"/>
        </symbol>
        <!-- RIBBON OUTLINED -->
        <symbol id="icon__ribbon-outlined" viewBox="0 0 24 24" fill="none">
            <path d="m13.507 18.572c-0.9318-0.5415-2.0825-0.5415-3.0144 0l-1.3394 0.7782c-0.57051 0.3315-1.3 0.0294-1.469-0.6085l-0.39679-1.4974c-0.27605-1.0418-1.0897-1.8554-2.1315-2.1315l-1.4974-0.3968c-0.63782-0.169-0.93999-0.8985-0.6085-1.469l0.77827-1.3394c0.54145-0.9319 0.54145-2.0825 0-3.0144l-0.77827-1.3394c-0.33149-0.57051-0.02932-1.3 0.6085-1.469l1.4974-0.39679c1.0418-0.27605 1.8554-1.0897 2.1315-2.1315l0.39679-1.4974c0.16901-0.63782 0.89853-0.93999 1.469-0.6085l1.3394 0.77827c0.9319 0.54145 2.0826 0.54145 3.0144 0l1.3394-0.77827c0.5705-0.33149 1.3-0.02932 1.469 0.6085l0.3968 1.4974c0.2761 1.0418 1.0897 1.8554 2.1315 2.1315l1.4974 0.39679c0.6379 0.16901 0.94 0.89853 0.6085 1.469l-0.7782 1.3394c-0.5415 0.93186-0.5415 2.0825 0 3.0144l0.7782 1.3394c0.3315 0.5705 0.0294 1.3-0.6084 1.469l-1.4975 0.3968c-1.0418 0.2761-1.8554 1.0897-2.1315 2.1315l-0.3968 1.4974c-0.169 0.6379-0.8985 0.94-1.469 0.6085l-1.3394-0.7782z"
                  stroke="currentColor" stroke-linecap="round"
                  stroke-width="2"/>
            <path d="m12 13.6c1.7673 0 3.2-1.4327 3.2-3.2s-1.4327-3.2-3.2-3.2-3.2 1.4327-3.2 3.2 1.4327 3.2 3.2 3.2z"
                  stroke="currentColor" stroke-linecap="round"
                  stroke-width="2"/>
            <path d="m10.4 18.8-1.9011 3.4853c-0.27218 0.499-0.905 0.6711-1.3924 0.3787l-2.2262-1.3358c-0.48241-0.2894-0.6312-0.9197-0.32916-1.3943l2.2488-3.5339"
                  stroke="currentColor" stroke-linecap="round" stroke-width="2"/>
            <path d="m13.6 18.8 1.9011 3.4853c0.2721 0.499 0.905 0.6711 1.3924 0.3787l2.2261-1.3358c0.4825-0.2894 0.6312-0.9197 0.3292-1.3943l-2.2488-3.5339"
                  stroke="currentColor" stroke-linecap="round" stroke-width="2"/>
        </symbol>
        <!-- MOON -->
        <symbol id="icon__moon" viewBox="0 0 24 24" fill="none">
            <path d="M22 12C22 17.5228 17.5228 22 12 22C6.47715 22 2 17.5228 2 12C2 6.47715 6.47715 2 12 2C14.6029 2 8 7.72522 12.6667 12C17.3333 16.2748 22 9.08007 22 12Z"
                  stroke="currentColor" stroke-width="1.5"/>
        </symbol>
        <!-- SUN -->
        <symbol id="icon__sun" viewBox="0 0 24 24" fill="none">
            <path d="M11.7297 2V3.62162M11.7297 20.3784V22M22 12H20.3784M3.62162 12H2M19.0711 19.0711L17.9244 17.9244M6.07559 6.07559L4.92893 4.92893M4.92894 19.0711L6.0756 17.9244M17.9244 6.0756L19.0711 4.92894M17.4054 12C17.4054 14.9853 14.9853 17.4054 12 17.4054C9.01468 17.4054 6.59459 14.9853 6.59459 12C6.59459 9.01468 9.01468 6.59459 12 6.59459C14.9853 6.59459 17.4054 9.01468 17.4054 12Z"
                  stroke="currentColor" stroke-width="1.5" stroke-linecap="round" stroke-linejoin="round"/>
        </symbol>
        <!-- BIN OUTLINED -->
        <symbol id="icon__bin-outlined" viewBox="0 0 24 24" fill="none">
            <path d="M5.91344 10.0959C5.85759 9.36988 6.43162 8.75 7.15975 8.75H15.8402C16.5684 8.75 17.1424 9.36988 17.0866 10.0959L16.5363 17.2493C16.4061 18.9425 14.9941 20.25 13.2959 20.25H9.70412C8.00588 20.25 6.59395 18.9425 6.4637 17.2493L5.91344 10.0959Z"
                  stroke="currentColor" stroke-width="1.5"/>
            <path d="M13 13L10 16M10 13L13 16" stroke="currentColor" stroke-width="1.5" stroke-linecap="round"
                  stroke-linejoin="round"/>
            <line x1="5.75" y1="6.25" x2="17.25" y2="6.25" stroke="currentColor" stroke-width="1.5"
                  stroke-linecap="round" stroke-linejoin="round"/>
            <path d="M9 5C9 4.44772 9.44772 4 10 4H13C13.5523 4 14 4.44772 14 5V6H9V5Z" stroke="currentColor"
                  stroke-width="1.5"/>
        </symbol>
        <!-- ADD USER -->
        <symbol id="icon__add-user" viewBox="0 0 20 16" fill="none">
            <path d="m19.5 6.5h-2v-2c0-0.275-0.225-0.5-0.5-0.5h-1c-0.275 0-0.5 0.225-0.5 0.5v2h-2c-0.275 0-0.5 0.225-0.5 0.5v1c0 0.275 0.225 0.5 0.5 0.5h2v2c0 0.275 0.225 0.5 0.5 0.5h1c0.275 0 0.5-0.225 0.5-0.5v-2h2c0.275 0 0.5-0.225 0.5-0.5v-1c0-0.275-0.225-0.5-0.5-0.5zm-12.5 1.5c2.2094 0 4-1.7906 4-4s-1.7906-4-4-4c-2.2094 0-4 1.7906-4 4s1.7906 4 4 4zm2.8 1h-0.52188c-0.69375 0.31875-1.4656 0.5-2.2781 0.5s-1.5812-0.18125-2.2781-0.5h-0.52188c-2.3188 0-4.2 1.8813-4.2 4.2v1.3c0 0.8281 0.67188 1.5 1.5 1.5h11c0.8281 0 1.5-0.6719 1.5-1.5v-1.3c0-2.3187-1.8813-4.2-4.2-4.2z"
                  fill="currentColor"/>
        </symbol>
        <!-- SEARCH OUTLINED -->
        <symbol id="icon__search-outlined" viewBox="0 0 16 16" fill="none">
            <path d="M7.46641 13.8669C11.001 13.8669 13.8664 11.0015 13.8664 7.46689C13.8664 3.93227 11.001 1.06689 7.46641 1.06689C3.93178 1.06689 1.06641 3.93227 1.06641 7.46689C1.06641 11.0015 3.93178 13.8669 7.46641 13.8669Z"
                  stroke="currentColor" stroke-width="1.5" stroke-linecap="round"/>
            <path d="M14.4 14.4L12 12" stroke="currentColor" stroke-width="1.5" stroke-linecap="round"/>
        </symbol>
        <!-- LINK OUTLINED -->
        <symbol id="icon__link-outlined" viewBox="0 0 16 16" fill="none">
            <path d="M14.6673 8.99992V11.6666C14.6673 13.3234 13.3242 14.6666 11.6673 14.6666H4.33398C2.67713 14.6666 1.33398 13.3234 1.33398 11.6666V4.33325C1.33398 2.6764 2.67713 1.33325 4.33398 1.33325H7.00065"
                  stroke="currentColor" stroke-width="1.5" stroke-linecap="round"/>
            <path d="M11.334 1.33325L14.534 1.33325V4.53325" stroke="currentColor" stroke-width="1.5"
                  stroke-linecap="round"/>
            <path d="M14.534 1.33325L11.334 4.53325" stroke="currentColor" stroke-width="1.5" stroke-linecap="round"/>
        </symbol>
        <!-- ARROW TOP RIGHT -->
        <symbol id="icon__arrow-top-right" viewBox="0 0 7 7" fill="none">
            <path d="M2.73242 1.06671L5.93242 1.06671V4.26671" stroke="currentColor" stroke-width="1.5"
                  stroke-linecap="round"/>
            <path d="M5.93339 1.06671L1 6.00011" stroke="currentColor" stroke-width="1.5" stroke-linecap="round"/>
        </symbol>
        <!-- HANDSHAKE OUTLINED -->
        <symbol id="icon__handshake-outlined" viewBox="0 0 25 24" fill="none">
            <path d="M23.2647 13.5998V7.21013C23.2647 6.46886 22.8561 5.78974 22.1802 5.48534C20.2042 4.59538 15.8642 2.9026 12.0009 3.19977C8.46378 3.47186 6.59235 5.96494 5.75718 7.53157C5.36565 8.26599 5.64612 9.1322 6.31297 9.63017V9.63017C6.93917 10.0978 7.78264 10.1508 8.46248 9.76531L12.5496 7.44774C12.6978 7.36368 12.884 7.38981 13.0034 7.51142L21.8237 16.4963C22.4345 17.1186 22.4622 18.1066 21.887 18.7621V18.7621C21.2852 19.4479 20.2435 19.522 19.5507 18.9281L15.2009 15.1998"
                  stroke="currentColor" stroke-width="1.5" stroke-linecap="round"/>
            <path d="M8.04098 4.39968L1.91061 3.72231C1.31844 3.65688 0.800781 4.12049 0.800781 4.71626V14.1519C0.800781 15.0874 1.12425 15.9932 1.76553 16.6742C3.82142 18.8576 8.6952 23.4547 11.7498 21.5997"
                  stroke="currentColor" stroke-width="1.5" stroke-linecap="round"/>
            <path d="M15.2008 15.2L18.1886 17.8201C18.8125 18.3672 18.8924 19.3096 18.3695 19.9539V19.9539C17.8174 20.6341 16.8106 20.7193 16.1521 20.1414L12.8008 17.2"
                  stroke="currentColor" stroke-width="1.5" stroke-linecap="round"/>
            <path d="M12.801 17.2L14.8278 18.9734C15.4803 19.5443 15.558 20.5315 15.003 21.1975V21.1975C14.4464 21.8654 13.4577 21.9653 12.7787 21.4221L10.001 19.2"
                  stroke="currentColor" stroke-width="1.5" stroke-linecap="round"/>
        </symbol>
        <!-- STAMP OUTLINED -->
        <symbol id="icon__stamp-outlined" viewBox="0 0 24 24" fill="none">
            <path d="M3.2002 18.2416C3.2002 17.3807 3.75106 16.6164 4.56774 16.3442L6.31924 15.7604C7.41645 15.3946 8.40663 14.719 8.84256 13.6477C9.22795 12.7007 9.6002 11.3365 9.6002 9.60005C9.6002 8.07352 9.31251 6.25931 8.98111 4.67587C8.57394 2.73035 10.0125 0.800049 12.0002 0.800049V0.800049C13.9879 0.800049 15.4265 2.73035 15.0193 4.67587C14.6879 6.25931 14.4002 8.07352 14.4002 9.60005C14.4002 11.3365 14.7724 12.7007 15.1578 13.6477C15.5938 14.719 16.5839 15.3946 17.6812 15.7604L19.4327 16.3442C20.2493 16.6164 20.8002 17.3807 20.8002 18.2416V20.2C20.8002 21.8569 19.457 23.2 17.8002 23.2H6.2002C4.54334 23.2 3.2002 21.8569 3.2002 20.2V18.2416Z"
                  stroke="currentColor" stroke-width="1.5" stroke-linecap="round"/>
            <path d="M3.20117 20.4002H20.8012" stroke="currentColor" stroke-width="1.5" stroke-linecap="round"/>
        </symbol>
        <!-- CIRCLE PLUS OUTLINED -->
        <symbol id="icon__circle-plus-outlined" viewBox="0 0 18 18" fill="none">
            <path d="M9.00007 6.8667V11.1334" stroke="currentColor" stroke-width="1.5" stroke-linecap="round"/>
            <path d="M11.1338 8.99994H6.86712" stroke="currentColor" stroke-width="1.5" stroke-linecap="round"/>
            <path d="M8.99987 16.4667C13.1236 16.4667 16.4665 13.1237 16.4665 8.99999C16.4665 4.87627 13.1236 1.53333 8.99987 1.53333C4.87614 1.53333 1.5332 4.87627 1.5332 8.99999C1.5332 13.1237 4.87614 16.4667 8.99987 16.4667Z"
                  stroke="currentColor" stroke-width="1.5" stroke-linecap="round"/>
        </symbol>
        <!-- CIRCLE MINUS OUTLINED -->
        <symbol id="icon__circle-minus-outlined" viewBox="0 0 18 18" fill="none">
            <path d="M11.1338 8.99994H6.86712" stroke="currentColor" stroke-width="1.5" stroke-linecap="round"/>
            <path d="M8.99987 16.4667C13.1236 16.4667 16.4665 13.1237 16.4665 8.99999C16.4665 4.87627 13.1236 1.53333 8.99987 1.53333C4.87614 1.53333 1.5332 4.87627 1.5332 8.99999C1.5332 13.1237 4.87614 16.4667 8.99987 16.4667Z"
                  stroke="currentColor" stroke-width="1.5" stroke-linecap="round"/>
        </symbol>
    </defs>
</svg>