<svg width="91" height="23" viewBox="0 0 91 23" fill="none" xmlns="http://www.w3.org/2000/svg">
    <path d="M15.8843 0.210449H7.32822V11.7566H18.8744V3.20054C18.8744 1.54382 17.541 0.210449 15.8843 0.210449V0.210449ZM4.66148 0.210449H3.19005C1.53332 0.210449 0.199951 1.54382 0.199951 3.20054V4.67198H4.66148V0.210449ZM0.199951 7.33872H4.66148V11.8002H0.199951V7.33872ZM14.4601 18.8849H15.9316C17.5883 18.8849 18.9216 17.5515 18.9216 15.8948V14.4706H14.4601V18.8849ZM7.32822 14.4706H11.7897V18.9321H7.32822V14.4706ZM0.199951 14.4706V15.942C0.199951 17.5988 1.53332 18.9321 3.19005 18.9321H4.66148V14.4706H0.199951ZM30.2826 1.40576H28.535V17.7332H37.7814V16.1709H30.2826V1.40576ZM43.391 5.72923C39.9867 5.72923 37.5961 8.25791 37.5961 11.8911V12.3089C37.6433 13.8711 38.3336 15.3462 39.4817 16.4471C40.5862 17.4607 42.0104 18.0566 43.5291 18.0566H43.758C45.3675 18.0566 46.8861 17.4571 48.0814 16.4471L48.1287 16.3998L47.3475 15.1137L47.2567 15.1609C46.2903 16.0365 45.095 16.5415 43.8088 16.5415C41.6943 16.5415 39.5326 15.1609 39.3945 12.08H48.2268V11.9892C48.2268 11.9892 48.274 11.4369 48.274 11.1608C48.2631 7.84736 46.3339 5.72923 43.391 5.72923ZM39.4345 10.6049C39.8014 8.53403 41.3201 7.20066 43.2965 7.20066C44.768 7.20066 46.3775 8.07625 46.5155 10.6049H39.4345ZM58.3851 7.10983V7.7093C57.6475 6.46676 56.2706 5.68563 54.8427 5.68563H54.7047C51.5765 5.68563 49.4148 8.17071 49.4148 11.8039C49.4148 15.4843 51.4857 17.9657 54.5666 17.9657C57.0045 17.9657 58.109 16.4943 58.4759 15.8512V17.646H60.1326V1.40576H58.4323V7.10983H58.3851ZM54.7955 16.4471C52.6338 16.4471 51.2096 14.6087 51.2096 11.8475C51.2096 9.18073 52.7282 7.29512 54.8427 7.29512C56.6375 7.29512 58.4287 8.71932 58.4287 11.8475C58.4287 15.2517 56.5431 16.4471 54.7955 16.4471ZM70.2038 7.33872V7.42955C69.8804 6.87731 68.8704 5.68199 66.4325 5.68199C63.3516 5.68199 61.3279 8.02902 61.3279 11.615C61.3279 15.2009 63.4424 17.6387 66.5706 17.6387C68.2709 17.6387 69.4226 17.0393 70.2038 15.8004V17.4098C70.2038 19.6624 68.7796 20.9522 66.2473 20.9522C65.19 20.9522 64.0855 20.6761 63.1191 20.1711L63.0283 20.1238L62.3852 21.548L62.476 21.5953C63.6713 22.1947 65.0047 22.5144 66.2945 22.5144C69.0085 22.5144 71.9041 21.1338 71.9041 17.3154V6.00535H70.2038V7.33872ZM66.7995 16.1237C64.5469 16.1237 63.0755 14.3762 63.0755 11.6622C63.0755 8.90098 64.3616 7.33872 66.5706 7.33872C69.0085 7.33872 70.1565 8.76292 70.1565 11.6622C70.2038 14.5142 69.0085 16.1237 66.7995 16.1237ZM78.8507 5.72923C75.4464 5.72923 73.103 8.25791 73.103 11.8475V12.2617C73.1503 13.8239 73.8406 15.299 74.9886 16.3998C76.0931 17.4135 77.5173 18.0093 79.036 18.0093H79.2649C80.8744 18.0093 82.393 17.4098 83.5883 16.3998L83.6356 16.3526L82.8072 15.0665L82.7164 15.1137C81.75 15.9893 80.5547 16.4943 79.2685 16.4943C77.154 16.4943 74.9923 15.1137 74.8542 12.0328H83.7264V11.9419C83.7264 11.9419 83.7736 11.3897 83.7736 11.1136C83.7736 7.84736 81.8408 5.72923 78.8507 5.72923ZM74.9414 10.6049C75.3084 8.53403 76.827 7.20066 78.8035 7.20066C80.2749 7.20066 81.8844 8.07625 82.0225 10.6049H74.9414ZM90.9491 5.95812C90.7203 5.91088 90.535 5.91088 90.3061 5.86729C88.6966 5.86729 87.3632 6.88094 86.6729 8.58126V5.95812H84.9726L85.0198 17.5951V17.686H86.7674V12.7667C86.7674 12.0291 86.8582 11.248 87.0907 10.5577C87.643 8.76292 88.8855 7.61484 90.3569 7.61484C90.5422 7.61484 90.7239 7.61484 90.9092 7.66207H91V5.96175L90.9491 5.95812Z"
          fill="#1D2028"/>
</svg>
