<svg width="217" height="37" viewBox="0 0 217 37" xmlns="http://www.w3.org/2000/svg">
    <path d="m62.232 10.553c3.2469 0 5.3213 1.2627 5.3213 3.8783 0 1.8038-0.9921 2.8861-2.345 3.337 1.5333 0.451 2.8861 1.5333 2.8861 3.7881 0 3.4272-3.337 4.2389-5.9526 4.2389h-6.5839v-15.242h6.6741zm0 8.6584h-3.4273v3.9684h3.2469c1.4431 0 2.796-0.2706 2.796-1.9842 0-1.6234-1.3529-1.9842-2.6156-1.9842zm-0.3608-6.0428h-3.1566v3.5174h3.337c1.2627 0 2.1646-0.5411 2.1646-1.7136 0-1.2627-0.9019-1.8038-2.345-1.8038z" fill="currentColor"/>
    <path d="m70.62 25.795 6.2232-15.242h3.5174l6.2232 15.242h-3.3371l-1.1725-2.8861h-6.9447l-1.1725 2.8861h-3.337zm5.5016-5.5918h4.9605l-2.1645-5.5017c-0.0902-0.2705-0.1804-0.6313-0.3608-1.1725-0.0902 0.6314-0.1804 0.902-0.3608 1.1725l-2.0744 5.5017z" fill="currentColor"/>
    <path d="m90.462 25.795v-15.242h6.3134c2.9763 0 6.0427 1.0823 6.0427 4.9605 0 2.6156-1.443 3.9685-3.337 4.5096l4.6 5.7722h-3.788l-4.149-5.3212h-2.4352v5.3212h-3.2469zm3.2469-8.1172h3.1567c1.3529 0 2.6155-0.6313 2.6155-2.1646 0-1.5332-1.1725-2.1645-2.6155-2.1645h-3.1567v4.3291z" fill="currentColor"/>
    <path d="m108.05 25.795v-15.242h3.067l7.125 9.9211c0-0.6314-0.09-1.3529-0.09-2.0744v-7.8467h3.247v15.242h-3.067l-7.125-9.921c0 0.6314 0.09 1.3529 0.09 2.0744v7.8466h-3.247z" fill="currentColor"/>
    <path d="m133.57 10.553c3.247 0 5.322 1.2627 5.322 3.8783 0 1.8038-0.993 2.8861-2.345 3.337 1.533 0.451 2.886 1.5333 2.886 3.7881 0 3.4272-3.337 4.2389-5.953 4.2389h-6.584v-15.242h6.674zm0 8.6584h-3.427v3.9684h3.247c1.443 0 2.796-0.2706 2.796-1.9842 0-1.6234-1.263-1.9842-2.616-1.9842zm-0.27-6.0428h-3.157v3.5174h3.337c1.263 0 2.165-0.5411 2.165-1.7136-0.09-1.2627-0.902-1.8038-2.345-1.8038z" fill="currentColor"/>
    <path d="m144.04 25.795v-15.242h6.314c2.976 0 6.043 1.0823 6.043 4.9605 0 2.6156-1.443 3.9685-3.337 4.5096l4.599 5.7722h-3.788l-4.149-5.3212h-2.435v5.3212h-3.247zm3.247-8.1172h3.157c1.353 0 2.616-0.6313 2.616-2.1646 0-1.5332-1.173-2.1645-2.616-2.1645h-3.157v4.3291z" fill="currentColor"/>
    <path d="m164.87 10.553v15.242h-3.246v-15.242h3.246z" fill="currentColor"/>
    <path d="m176.05 10.553c5.412 0 8.027 3.2469 8.027 7.6663s-2.615 7.6662-8.027 7.6662h-5.682v-15.332h5.682zm0 2.796h-2.435v9.47h2.435c3.067 0 4.69-1.6234 4.69-4.7801s-1.713-4.6899-4.69-4.6899z" fill="currentColor"/>
    <path d="m196.17 10.192c1.623 0 3.247 0.3608 4.69 0.9921v3.1567c-1.173-0.7215-2.706-1.1725-4.239-1.1725-2.706 0-5.412 1.4431-5.412 5.0507 0 4.0586 2.977 5.0507 5.231 5.0507 0.632 0 1.263-0.0902 1.714-0.2706v-5.4114h3.157v7.576c-1.533 0.6314-3.247 0.9921-4.961 0.9921-4.239 0-8.387-2.3449-8.387-7.9368-0.091-5.5918 3.968-8.027 8.207-8.027z" fill="currentColor"/>
    <path d="m216.91 10.553v2.8862h-7.486v3.2468h6.854v2.8862h-6.854v3.4272h7.576v2.8861h-10.913v-15.332h10.823z" fill="currentColor"/>
    <path d="m18.85 16.234h-0.1803c-2.4352 0-4.3292 1.9842-4.3292 4.5095v4.8704l4.4193-3.3371 4.4194 3.3371v-4.8704c0-2.4351-1.9842-4.4193-4.3292-4.5095z" fill="#FF4339"/>
    <path d="M0 0V36.2568L11.2739 27.8691V18.3088L9.1995 16.6854L18.7598 9.47007L28.32 16.6854L26.2456 18.3088V27.8691L37.5195 36.2568V0H0Z" fill="#FF4339"/>
</svg>
