<svg width="133" height="26" viewBox="0 0 133 26" fill="none" xmlns="http://www.w3.org/2000/svg">
    <path d="M117.666 13.014C116.984 12.5544 116.231 12.2275 115.519 11.819C115.057 11.5534 114.565 11.3185 114.164 10.9814C113.481 10.4094 113.622 9.2858 114.334 8.79551C115.358 8.10093 117.054 8.48908 117.235 9.90888C117.235 9.93952 117.265 9.95995 117.295 9.95995H118.841C118.881 9.95995 118.911 9.9293 118.901 9.88845C118.82 8.90787 118.449 8.09072 117.767 7.56979C117.114 7.06928 116.372 6.80371 115.579 6.80371C111.494 6.80371 111.123 11.2061 113.321 12.5953C113.572 12.7587 115.729 13.8618 116.492 14.3419C117.255 14.822 117.496 15.7004 117.165 16.395C116.863 17.0283 116.081 17.4675 115.298 17.4164C114.445 17.3654 113.783 16.8955 113.552 16.1601C113.512 16.0273 113.491 15.7719 113.491 15.6596C113.491 15.6289 113.461 15.5983 113.431 15.5983H111.755C111.725 15.5983 111.695 15.6289 111.695 15.6596C111.695 16.8955 111.996 17.5799 112.819 18.2029C113.592 18.7954 114.435 19.0405 115.308 19.0405C117.596 19.0405 118.78 17.7229 119.021 16.3541C119.232 15.0161 118.841 13.8108 117.666 13.014Z"
          fill="#161616"/>
    <path d="M44.897 7.02832H44.1543H43.3414C43.3113 7.02832 43.2913 7.04875 43.2812 7.06918L41.9063 11.6861C41.8863 11.7474 41.806 11.7474 41.7859 11.6861L40.411 7.06918C40.401 7.03853 40.3809 7.02832 40.3508 7.02832H39.5379H38.7952H37.7917C37.7616 7.02832 37.7314 7.05896 37.7314 7.08961V18.877C37.7314 18.9076 37.7616 18.9383 37.7917 18.9383H39.4676C39.4977 18.9383 39.5278 18.9076 39.5278 18.877V9.91898C39.5278 9.84748 39.6282 9.83727 39.6483 9.89855L41.0332 14.5461L41.1336 14.8729C41.1436 14.9036 41.1637 14.9138 41.1938 14.9138H42.4784C42.5085 14.9138 42.5285 14.8934 42.5386 14.8729L42.6389 14.5461L44.0239 9.89855C44.0439 9.82705 44.1443 9.84748 44.1443 9.91898V18.877C44.1443 18.9076 44.1744 18.9383 44.2045 18.9383H45.8805C45.9106 18.9383 45.9407 18.9076 45.9407 18.877V7.08961C45.9407 7.05896 45.9106 7.02832 45.8805 7.02832H44.897Z"
          fill="#161616"/>
    <path d="M92.0051 7.02832C91.975 7.02832 91.9549 7.04875 91.9449 7.06918L90.57 11.6861C90.5499 11.7474 90.4696 11.7474 90.4496 11.6861L89.0747 7.06918C89.0646 7.03853 89.0446 7.02832 89.0145 7.02832H86.4654C86.4353 7.02832 86.4052 7.05896 86.4052 7.08961V18.877C86.4052 18.9076 86.4353 18.9383 86.4654 18.9383H88.1413C88.1714 18.9383 88.2016 18.9076 88.2016 18.877V9.91898C88.2016 9.84748 88.3019 9.83727 88.322 9.89855L89.7069 14.5461L89.8073 14.8729C89.8173 14.9036 89.8374 14.9138 89.8675 14.9138H91.1521C91.1822 14.9138 91.2023 14.8934 91.2123 14.8729L91.3126 14.5461L92.6976 9.89855C92.7177 9.82705 92.818 9.84748 92.818 9.91898V18.877C92.818 18.9076 92.8481 18.9383 92.8782 18.9383H94.5542C94.5843 18.9383 94.6144 18.9076 94.6144 18.877V7.08961C94.6144 7.05896 94.5843 7.02832 94.5542 7.02832H92.0051Z"
          fill="#161616"/>
    <path d="M70.388 7.02832H67.2669H65.5909H62.4698C62.4397 7.02832 62.4095 7.05896 62.4095 7.08961V8.56047C62.4095 8.59112 62.4397 8.62176 62.4698 8.62176H65.5307V18.877C65.5307 18.9076 65.5608 18.9383 65.5909 18.9383H67.2669C67.297 18.9383 67.3271 18.9076 67.3271 18.877V8.62176H70.388C70.4181 8.62176 70.4482 8.59112 70.4482 8.56047V7.08961C70.4482 7.05896 70.4281 7.02832 70.388 7.02832Z"
          fill="#161616"/>
    <path d="M80.2731 18.9381H81.7985C81.8386 18.9381 81.8687 18.8972 81.8587 18.8564L78.7075 7.02816C78.6974 6.99752 78.6774 6.9873 78.6473 6.9873H78.0652H77.0415H76.4595C76.4294 6.9873 76.4093 7.00773 76.3993 7.02816L73.248 18.8564C73.238 18.8972 73.2681 18.9381 73.3083 18.9381H74.8337C74.8638 18.9381 74.8839 18.9177 74.8939 18.8972L75.8072 15.455C75.8172 15.4244 75.8373 15.4141 75.8674 15.4141H79.2394C79.2695 15.4141 79.2896 15.4346 79.2996 15.455L80.2128 18.8972C80.2229 18.9177 80.253 18.9381 80.2731 18.9381ZM76.2688 13.7288L77.4932 9.1221C77.5132 9.06082 77.5935 9.06082 77.6136 9.1221L78.8379 13.7288C78.848 13.7696 78.8179 13.8105 78.7777 13.8105H76.329C76.2889 13.8105 76.2588 13.7696 76.2688 13.7288Z"
          fill="#161616"/>
    <path d="M106.286 18.9381H107.811C107.852 18.9381 107.882 18.8972 107.872 18.8564L104.72 7.02816C104.71 6.99752 104.69 6.9873 104.66 6.9873H104.078H103.054H102.472C102.442 6.9873 102.422 7.00773 102.412 7.02816L99.2609 18.8564C99.2508 18.8972 99.2809 18.9381 99.3211 18.9381H100.847C100.877 18.9381 100.897 18.9177 100.907 18.8972L101.82 15.455C101.83 15.4244 101.85 15.4141 101.88 15.4141H105.252C105.282 15.4141 105.302 15.4346 105.312 15.455L106.226 18.8972C106.236 18.9177 106.256 18.9381 106.286 18.9381ZM102.282 13.7288L103.506 9.1221C103.526 9.06082 103.606 9.06082 103.626 9.1221L104.851 13.7288C104.861 13.7696 104.831 13.8105 104.791 13.8105H102.342C102.302 13.8105 102.272 13.7696 102.282 13.7288Z"
          fill="#161616"/>
    <path d="M52.7451 17.1921V13.5354C52.7451 13.5047 52.7752 13.4741 52.8053 13.4741H57.2713C57.3014 13.4741 57.3315 13.4435 57.3315 13.4128V11.942C57.3315 11.9113 57.3014 11.8807 57.2713 11.8807H52.8053C52.7752 11.8807 52.7451 11.85 52.7451 11.8194V8.69379C52.7451 8.66314 52.7752 8.6325 52.8053 8.6325H57.8834C57.9136 8.6325 57.9437 8.60186 57.9437 8.57122V7.10035C57.9437 7.06971 57.9136 7.03906 57.8834 7.03906H52.7451H51.0089C50.9788 7.03906 50.9487 7.06971 50.9487 7.10035V8.6325V11.8909V13.4843V17.2636V18.8775C50.9487 18.9081 50.9788 18.9388 51.0089 18.9388H52.7451H58.0942C58.1243 18.9388 58.1544 18.9081 58.1544 18.8775V17.3249C58.1544 17.2943 58.1243 17.2636 58.0942 17.2636H52.7953C52.7652 17.2534 52.7451 17.233 52.7451 17.1921Z"
          fill="#161616"/>
    <path d="M132.981 18.8366L127.18 12.7387C127.16 12.7182 127.16 12.6774 127.18 12.657L132.399 7.14121C132.439 7.10035 132.409 7.03906 132.359 7.03906H130.221C130.201 7.03906 130.191 7.04928 130.181 7.05949L125.755 11.7377C125.715 11.7785 125.655 11.7479 125.655 11.6968V7.10035C125.655 7.06971 125.625 7.03906 125.595 7.03906H123.919C123.889 7.03906 123.859 7.06971 123.859 7.10035V18.8877C123.859 18.9184 123.889 18.949 123.919 18.949H125.595C125.625 18.949 125.655 18.9184 125.655 18.8877V13.6988C125.655 13.6477 125.725 13.6171 125.755 13.658L130.773 18.9286C130.783 18.9388 130.803 18.949 130.813 18.949H132.951C132.991 18.9388 133.021 18.8673 132.981 18.8366Z"
          fill="#161616"/>
    <path d="M26.8008 0.283691L16.1995 8.12796L18.1709 3.50508L26.8008 0.283691Z" fill="#E17726" stroke="#E17726"
          stroke-width="0.25" stroke-linecap="round" stroke-linejoin="round"/>
    <path d="M2.34753 0.283203L12.8545 8.20068L10.9775 3.50458L2.34753 0.283203Z" fill="#E27625" stroke="#E27625"
          stroke-width="0.25" stroke-linecap="round" stroke-linejoin="round"/>
    <path d="M22.984 18.4717L20.1632 22.7808L26.2031 24.4438L27.9334 18.5658L22.984 18.4717Z" fill="#E27625"
          stroke="#E27625" stroke-width="0.25" stroke-linecap="round" stroke-linejoin="round"/>
    <path d="M1.22546 18.5658L2.94517 24.4438L8.97464 22.7808L6.16437 18.4717L1.22546 18.5658Z" fill="#E27625"
          stroke="#E27625" stroke-width="0.25" stroke-linecap="round" stroke-linejoin="round"/>
    <path d="M8.64957 11.1922L6.9718 13.7233L12.9489 13.9953L12.7496 7.56299L8.64957 11.1922Z" fill="#E27625"
          stroke="#E27625" stroke-width="0.25" stroke-linecap="round" stroke-linejoin="round"/>
    <path d="M20.4988 11.1922L16.3358 7.48975L16.1996 13.9953L22.1766 13.7233L20.4988 11.1922Z" fill="#E27625"
          stroke="#E27625" stroke-width="0.25" stroke-linecap="round" stroke-linejoin="round"/>
    <path d="M8.97473 22.781L12.5924 21.0344L9.47808 18.6079L8.97473 22.781Z" fill="#E27625" stroke="#E27625"
          stroke-width="0.25" stroke-linecap="round" stroke-linejoin="round"/>
    <path d="M16.5559 21.0344L20.163 22.781L19.6703 18.6079L16.5559 21.0344Z" fill="#E27625" stroke="#E27625"
          stroke-width="0.25" stroke-linecap="round" stroke-linejoin="round"/>
    <path d="M20.1631 22.7808L16.5559 21.0342L16.8496 23.377L16.8181 24.3706L20.1631 22.7808Z" fill="#D5BFB2"
          stroke="#D5BFB2" stroke-width="0.25" stroke-linecap="round" stroke-linejoin="round"/>
    <path d="M8.97461 22.7808L12.3302 24.3706L12.3092 23.377L12.5923 21.0342L8.97461 22.7808Z" fill="#D5BFB2"
          stroke="#D5BFB2" stroke-width="0.25" stroke-linecap="round" stroke-linejoin="round"/>
    <path d="M12.3932 17.0597L9.39417 16.1812L11.5124 15.2085L12.3932 17.0597Z" fill="#233447" stroke="#233447"
          stroke-width="0.25" stroke-linecap="round" stroke-linejoin="round"/>
    <path d="M16.7551 17.0597L17.636 15.2085L19.7646 16.1812L16.7551 17.0597Z" fill="#233447" stroke="#233447"
          stroke-width="0.25" stroke-linecap="round" stroke-linejoin="round"/>
    <path d="M8.97459 22.7813L9.49884 18.4722L6.16431 18.5664L8.97459 22.7813Z" fill="#CC6228" stroke="#CC6228"
          stroke-width="0.25" stroke-linecap="round" stroke-linejoin="round"/>
    <path d="M19.6493 18.4722L20.1631 22.7813L22.9839 18.5664L19.6493 18.4722Z" fill="#CC6228" stroke="#CC6228"
          stroke-width="0.25" stroke-linecap="round" stroke-linejoin="round"/>
    <path d="M22.1765 13.7236L16.1995 13.9956L16.7552 17.06L17.6361 15.2088L19.7647 16.1815L22.1765 13.7236Z"
          fill="#CC6228" stroke="#CC6228" stroke-width="0.25" stroke-linecap="round" stroke-linejoin="round"/>
    <path d="M9.39406 16.1815L11.5122 15.2088L12.3931 17.06L12.9488 13.9956L6.9718 13.7236L9.39406 16.1815Z"
          fill="#CC6228" stroke="#CC6228" stroke-width="0.25" stroke-linecap="round" stroke-linejoin="round"/>
    <path d="M6.9718 13.7236L9.47797 18.608L9.3941 16.1815L6.9718 13.7236Z" fill="#E27525" stroke="#E27525"
          stroke-width="0.25" stroke-linecap="round" stroke-linejoin="round"/>
    <path d="M19.7648 16.1815L19.6704 18.608L22.1766 13.7236L19.7648 16.1815Z" fill="#E27525" stroke="#E27525"
          stroke-width="0.25" stroke-linecap="round" stroke-linejoin="round"/>
    <path d="M12.949 13.9956L12.3932 17.0602L13.0957 20.6789L13.2531 15.9096L12.949 13.9956Z" fill="#E27525"
          stroke="#E27525" stroke-width="0.25" stroke-linecap="round" stroke-linejoin="round"/>
    <path d="M16.1995 13.9956L15.9059 15.8992L16.0527 20.6789L16.7553 17.0602L16.1995 13.9956Z" fill="#E27525"
          stroke="#E27525" stroke-width="0.25" stroke-linecap="round" stroke-linejoin="round"/>
    <path d="M16.7553 17.0602L16.0527 20.679L16.5561 21.0346L19.6704 18.6081L19.7648 16.1816L16.7553 17.0602Z"
          fill="#F5841F" stroke="#F5841F" stroke-width="0.25" stroke-linecap="round" stroke-linejoin="round"/>
    <path d="M9.39417 16.1816L9.47811 18.6081L12.5924 21.0346L13.0957 20.679L12.3932 17.0602L9.39417 16.1816Z"
          fill="#F5841F" stroke="#F5841F" stroke-width="0.25" stroke-linecap="round" stroke-linejoin="round"/>
    <path d="M16.8181 24.3706L16.8496 23.3769L16.577 23.1468H12.5713L12.3092 23.3769L12.3302 24.3706L8.97461 22.7808L10.1491 23.743L12.5294 25.3851H16.6084L18.9993 23.743L20.1632 22.7808L16.8181 24.3706Z"
          fill="#C0AC9D" stroke="#C0AC9D" stroke-width="0.25" stroke-linecap="round" stroke-linejoin="round"/>
    <path d="M16.556 21.0343L16.0526 20.6787H13.0956L12.5922 21.0343L12.3091 23.3771L12.5712 23.147H16.5769L16.8495 23.3771L16.556 21.0343Z"
          fill="#161616" stroke="#161616" stroke-width="0.25" stroke-linecap="round" stroke-linejoin="round"/>
    <path d="M27.2517 8.64043L28.143 4.31042L26.8008 0.283691L16.556 7.86652L20.4987 11.1924L26.0668 12.8136L27.2937 11.3807L26.7588 10.9937L27.6082 10.2198L26.9581 9.71775L27.8075 9.06927L27.2517 8.64043Z"
          fill="#763E1A" stroke="#763E1A" stroke-width="0.25" stroke-linecap="round" stroke-linejoin="round"/>
    <path d="M1.00525 4.30993L1.90705 8.63994L1.33032 9.06878L2.19017 9.71726L1.54004 10.2193L2.3894 10.9932L1.85461 11.3803L3.08148 12.8131L8.64958 11.1919L12.5923 7.86603L2.34746 0.283203L1.00525 4.30993Z"
          fill="#763E1A" stroke="#763E1A" stroke-width="0.25" stroke-linecap="round" stroke-linejoin="round"/>
    <path d="M26.0669 12.8136L20.4988 11.1924L22.1766 13.7235L19.6704 18.6079L22.984 18.566H27.9334L26.0669 12.8136Z"
          fill="#F5841F" stroke="#F5841F" stroke-width="0.25" stroke-linecap="round" stroke-linejoin="round"/>
    <path d="M8.64954 11.1924L3.08149 12.8136L1.22546 18.566H6.16437L9.47793 18.6079L6.97179 13.7235L8.64954 11.1924Z"
          fill="#F5841F" stroke="#F5841F" stroke-width="0.25" stroke-linecap="round" stroke-linejoin="round"/>
    <path d="M16.1995 13.9958L16.556 7.8668L18.1709 3.50537H10.9775L12.5924 7.8668L12.9489 13.9958L13.0852 15.9202L13.0957 20.6791H16.0527L16.0632 15.9202L16.1995 13.9958Z"
          fill="#F5841F" stroke="#F5841F" stroke-width="0.25" stroke-linecap="round" stroke-linejoin="round"/>
</svg>
