<svg width="24" height="20" viewBox="0 0 24 20" fill="none" xmlns="http://www.w3.org/2000/svg">
    <path fill="currentColor"
          d="M24 9.9V9.3C24 8.9685 23.7315 8.7 23.4 8.7H12.9V7.2H15.6C16.2626 7.2 16.8 6.66263 16.8 6V1.2C16.8 0.537375 16.2626 0 15.6 0H8.4C7.73738 0 7.2 0.537375 7.2 1.2V6C7.2 6.66263 7.73738 7.2 8.4 7.2H11.1V8.7H0.6C0.2685 8.7 0 8.9685 0 9.3V9.9C0 10.2315 0.2685 10.5 0.6 10.5H4.5V12H2.4C1.73738 12 1.2 12.5374 1.2 13.2V18C1.2 18.6626 1.73738 19.2 2.4 19.2H8.4C9.06262 19.2 9.6 18.6626 9.6 18V13.2C9.6 12.5374 9.06262 12 8.4 12H6.3V10.5H17.7V12H15.6C14.9374 12 14.4 12.5374 14.4 13.2V18C14.4 18.6626 14.9374 19.2 15.6 19.2H21.6C22.2626 19.2 22.8 18.6626 22.8 18V13.2C22.8 12.5374 22.2626 12 21.6 12H19.5V10.5H23.4C23.7315 10.5 24 10.2315 24 9.9ZM9.6 4.8V2.4H14.4V4.8H9.6ZM7.2 16.8H3.6V14.4H7.2V16.8ZM20.4 16.8H16.8V14.4H20.4V16.8Z"
    />
</svg>
