<svg width="24" height="22" viewBox="0 0 24 22" fill="none" xmlns="http://www.w3.org/2000/svg">
    <path fill="currentColor"
          d="M23.3334 9.33333H22.1042C21.7375 8.5 21.2042 7.7625 20.5459 7.14583L21.3334 4H20C18.775 4 17.6917 4.5625 16.9584 5.42917C16.6417 5.38333 16.3292 5.33333 16 5.33333H10.6667C7.4417 5.33333 4.7542 7.625 4.13337 10.6667H2.33337C1.7167 10.6667 1.2292 10.1042 1.3542 9.46667C1.44587 8.99167 1.8917 8.66667 2.37504 8.66667H2.4167C2.5542 8.66667 2.6667 8.55417 2.6667 8.41667V7.58333C2.6667 7.44583 2.5542 7.33333 2.4167 7.33333C1.2292 7.33333 0.170871 8.18333 0.0208706 9.35833C-0.162463 10.7833 0.945871 12 2.33337 12H4.00004C4.00004 14.175 5.05837 16.0875 6.6667 17.3042V20.6667C6.6667 21.0333 6.9667 21.3333 7.33337 21.3333H10C10.3667 21.3333 10.6667 21.0333 10.6667 20.6667V18.6667H16V20.6667C16 21.0333 16.3 21.3333 16.6667 21.3333H19.3334C19.7 21.3333 20 21.0333 20 20.6667V17.3042C20.4917 16.9333 20.9292 16.4958 21.3042 16H23.3334C23.7 16 24 15.7 24 15.3333V10C24 9.63333 23.7 9.33333 23.3334 9.33333ZM18 12C17.6334 12 17.3334 11.7 17.3334 11.3333C17.3334 10.9667 17.6334 10.6667 18 10.6667C18.3667 10.6667 18.6667 10.9667 18.6667 11.3333C18.6667 11.7 18.3667 12 18 12ZM10.6667 4H16C16.225 4 16.4459 4.01667 16.6625 4.03333C16.6625 4.02083 16.6667 4.0125 16.6667 4C16.6667 1.79167 14.875 0 12.6667 0C10.4584 0 8.6667 1.79167 8.6667 4C8.6667 4.0875 8.68754 4.17083 8.6917 4.25833C9.32504 4.09583 9.98337 4 10.6667 4Z"
    />
</svg>
