<svg xmlns="http://www.w3.org/2000/svg" style="position: absolute; width: 0; height: 0;">
  <defs>
    <!-- TOKEN BOND MASK -->
    <mask id="icon__static/token-bond__mask" width="36" height="36" x="4" y="4" maskUnits="userSpaceOnUse">
      <circle cx="22" cy="22" r="17.6" fill="white" />
    </mask>
    <!-- AAVE TOKEN GRADIENT -->
    <linearGradient id="icon__static/aave__gradient" x1="-3.46667" y1="7.46667" x2="41.6" y2="32.5333"
                    gradientUnits="userSpaceOnUse">
      <stop stop-color="#2EBAC6"/>
      <stop offset="1" stop-color="#B6509E"/>
    </linearGradient>
  </defs>
  <!-- TOKEN BOND -->
  <symbol id="icon__static/token-bond" viewBox="0 0 44 44" fill="none">
    <rect rx="22" width="44" height="44" fill="#ff4339" />
    <path
      fill="#fff"
      d="M22.084 19.631h-.169c-2.284 0-4.061 1.862-4.061 4.231v4.57L22 25.3l4.146 3.13v-4.569c0-2.285-1.862-4.146-4.062-4.23z"
    />
    <g mask="url(#icon__static/token-bond__mask)">
      <path
        fill="#fff"
        d="M4.4 4.4v34.016l10.577-7.87v-8.969l-1.946-1.523L22 13.284l8.97 6.77-1.947 1.523v8.97L39.6 38.415V4.4H4.4z"
      />
    </g>
  </symbol>
  <!-- AAVE TOKEN -->
  <symbol id="icon__static/aave" viewBox="0 0 40 40" fill="none">
    <path d="M20 0C8.956 0 0 8.956 0 20C0 31.044 8.956 40 20 40C31.044 40 40 31.044 40 20C40 8.956 31.044 0 20 0Z"
          fill="url(#icon__static/aave__gradient)"/>
    <path
      d="M23.6754 23.9785L20.6272 16.7593C20.6031 16.6935 20.5903 16.6243 20.5893 16.5545C20.5834 16.407 20.6367 16.2631 20.7379 16.1534C20.7903 16.1011 20.8535 16.0603 20.9234 16.0338C20.9933 16.0073 21.0682 15.9957 21.143 15.9998C21.2562 16.0014 21.3662 16.0372 21.4577 16.1022C21.553 16.1719 21.6275 16.2652 21.6734 16.3725L24.5729 23.4352L27.4725 16.3725C27.5192 16.2649 27.5947 16.1716 27.691 16.1022C27.7826 16.0372 27.8925 16.0014 28.0057 15.9998C28.0801 15.9961 28.1544 16.0079 28.2238 16.0344C28.2931 16.0609 28.3559 16.1014 28.4079 16.1534C28.5102 16.2627 28.5646 16.4066 28.5594 16.5545C28.5584 16.6243 28.5456 16.6935 28.5215 16.7593L25.4734 23.9785C25.4212 24.1371 25.3195 24.2758 25.1827 24.3752C25.0458 24.4747 24.8805 24.5299 24.7099 24.5332H24.4389C24.2683 24.5299 24.103 24.4747 23.9661 24.3752C23.8292 24.2758 23.7276 24.1371 23.6754 23.9785Z"
      fill="white"/>
    <path
      d="M29.8558 24.3115C29.8041 24.2607 29.7635 24.2003 29.7365 24.1338C29.7094 24.0673 29.6965 23.9962 29.6984 23.9246V16.6144C29.6966 16.5412 29.7095 16.4684 29.7365 16.4C29.7635 16.3317 29.804 16.2692 29.8558 16.2162C29.9065 16.1638 29.9681 16.1225 30.0364 16.095C30.1047 16.0675 30.1783 16.0546 30.2521 16.0569H35.2061C35.2759 16.0553 35.3452 16.0681 35.4095 16.0946C35.4738 16.1211 35.5316 16.1606 35.5791 16.2105C35.6297 16.2573 35.6698 16.3138 35.6969 16.3765C35.724 16.4391 35.7375 16.5066 35.7365 16.5746C35.7385 16.6419 35.7255 16.7088 35.6983 16.7707C35.6711 16.8326 35.6304 16.888 35.5791 16.933C35.5296 16.9808 35.4709 17.0184 35.4064 17.0438C35.3418 17.0692 35.2728 17.0818 35.2032 17.0809H30.8233V19.7433H34.7632C34.8329 19.7417 34.9023 19.7545 34.9666 19.781C35.0309 19.8075 35.0887 19.847 35.1362 19.8969C35.1862 19.9441 35.2259 20.0007 35.253 20.0633C35.28 20.1258 35.2938 20.1931 35.2935 20.261C35.2955 20.3283 35.2825 20.3952 35.2553 20.4571C35.2282 20.519 35.1875 20.5744 35.1362 20.6194C35.087 20.6668 35.0288 20.7043 34.9648 20.7297C34.9008 20.7551 34.8323 20.7679 34.7632 20.7673H30.8233V23.4411H35.2032C35.2735 23.439 35.3434 23.4517 35.4082 23.4782C35.473 23.5047 35.5313 23.5444 35.5791 23.5947C35.6301 23.6418 35.6704 23.6988 35.6975 23.7619C35.7246 23.8251 35.7379 23.8931 35.7365 23.9616C35.7385 24.0289 35.7255 24.0959 35.6983 24.1578C35.6711 24.2197 35.6304 24.275 35.5791 24.32C35.5294 24.3673 35.4706 24.4044 35.4061 24.4293C35.3415 24.4542 35.2726 24.4664 35.2032 24.4651H30.2521C30.1785 24.4703 30.1046 24.4592 30.0359 24.4326C29.9673 24.406 29.9057 24.3646 29.8558 24.3115Z"
      fill="white"/>
    <path
      d="M21.3174 23.7739L18.2663 16.5547C18.2143 16.3965 18.1131 16.2582 17.9768 16.1588C17.8405 16.0594 17.6758 16.0039 17.5057 16H17.2376C17.067 16.0033 16.9018 16.0585 16.7649 16.1579C16.628 16.2574 16.5263 16.3961 16.4741 16.5547L15.1482 19.7006H14.1429C13.9983 19.7021 13.8601 19.759 13.7582 19.8591C13.6562 19.9591 13.5987 20.0943 13.5979 20.2354V20.2411C13.5987 20.3822 13.6562 20.5173 13.7582 20.6174C13.8601 20.7174 13.9983 20.7743 14.1429 20.7758H14.682L13.4172 23.7739C13.3931 23.8396 13.3803 23.9088 13.3794 23.9787C13.3734 24.1262 13.4268 24.2701 13.528 24.3797C13.5803 24.4321 13.6436 24.4729 13.7134 24.4994C13.7833 24.5259 13.8582 24.5375 13.933 24.5333C14.0463 24.5318 14.1562 24.496 14.2478 24.4309C14.3431 24.3612 14.4175 24.268 14.4634 24.1607L15.8593 20.7758H16.818C16.9626 20.7743 17.1007 20.7174 17.2027 20.6174C17.3046 20.5173 17.3622 20.3822 17.363 20.2411V20.2268C17.3622 20.0857 17.3046 19.9506 17.2027 19.8505C17.1007 19.7505 16.9626 19.6936 16.818 19.6921H16.2993L17.3717 17.098L20.2712 24.1607C20.3171 24.268 20.3916 24.3612 20.4869 24.4309C20.5784 24.496 20.6884 24.5318 20.8016 24.5333C20.8769 24.5379 20.9524 24.5265 21.0228 24.5C21.0932 24.4735 21.1569 24.4325 21.2096 24.3797C21.3098 24.2696 21.362 24.1258 21.3553 23.9787C21.359 23.9087 21.347 23.8389 21.3203 23.7739H21.3174Z"
      fill="white"/>
    <path
      d="M12.2066 23.7739L9.15839 16.5547C9.10604 16.3956 9.00396 16.2566 8.86649 16.1571C8.72903 16.0576 8.56308 16.0027 8.39198 16H8.12388C7.95327 16.0033 7.78798 16.0585 7.65109 16.1579C7.51421 16.2574 7.41257 16.3961 7.36038 16.5547L6.03445 19.7006H5.02908C4.88452 19.7021 4.74636 19.759 4.64441 19.8591C4.54246 19.9591 4.4849 20.0943 4.48414 20.2354V20.2411C4.4849 20.3822 4.54246 20.5173 4.64441 20.6174C4.74636 20.7174 4.88452 20.7743 5.02908 20.7758H5.56819L4.30347 23.7739C4.27937 23.8396 4.26657 23.9088 4.26558 23.9787C4.25966 24.1262 4.31299 24.2701 4.4142 24.3797C4.46656 24.4321 4.5298 24.4729 4.59967 24.4994C4.66955 24.5259 4.74442 24.5375 4.81927 24.5333C4.93249 24.5318 5.04245 24.496 5.13399 24.4309C5.22928 24.3612 5.30374 24.268 5.34964 24.1607L6.7455 20.7758H7.71007C7.85514 20.7751 7.99404 20.7185 8.09662 20.6184C8.1992 20.5182 8.25716 20.3827 8.25793 20.2411V20.2268C8.25716 20.0852 8.1992 19.9497 8.09662 19.8495C7.99404 19.7494 7.85514 19.6928 7.71007 19.6921H7.19427L8.25793 17.098L11.1575 24.1607C11.2034 24.268 11.2778 24.3612 11.3731 24.4309C11.4647 24.496 11.5746 24.5318 11.6878 24.5333C11.7632 24.5379 11.8386 24.5265 11.909 24.5C11.9794 24.4735 12.0431 24.4325 12.0958 24.3797C12.196 24.2696 12.2483 24.1258 12.2415 23.9787C12.2452 23.9087 12.2333 23.8389 12.2066 23.7739Z"
      fill="white"/>
  </symbol>
</svg>
