<svg xmlns="http://www.w3.org/2000/svg" style="position: absolute; width: 0; height: 0;">
	<symbol id="icon__aave" fill="none" viewBox="0 0 40 40">
		<path fill="url(#icon__aave-a)" d="M20 40c11.046 0 20-8.954 20-20S31.046 0 20 0 0 8.954 0 20s8.954 20 20 20z" />
		<path fill="#fff" d="M28.753 27.97L21.99 11.618c-.381-.846-.948-1.258-1.695-1.258h-.598c-.748 0-1.315.412-1.696 1.258l-2.944 7.123h-2.226a1.22 1.22 0 00-1.212 1.212v.015a1.223 1.223 0 001.212 1.211h1.196l-2.81 6.79a1.42 1.42 0 00-.082.463c0 .381.118.68.33.912.211.232.515.346.897.346.252-.005.494-.083.695-.232.217-.15.366-.366.485-.614l3.093-7.67h2.144a1.22 1.22 0 001.211-1.211v-.031a1.223 1.223 0 00-1.21-1.211h-1.145l2.36-5.882 6.434 16c.118.248.268.464.484.614.201.15.449.226.696.232.381 0 .68-.114.897-.346.216-.232.33-.53.33-.912a1.08 1.08 0 00-.083-.459z" />
		<defs>
			<linearGradient id="icon__aave-a" x1="34.912" x2="5.152" y1="7.453" y2="32.493" gradientUnits="userSpaceOnUse">
				<stop stop-color="#B6509E" />
				<stop offset="1" stop-color="#2EBAC6" />
			</linearGradient>
		</defs>
	</symbol>
	<symbol id="icon__stkaave" fill="none" viewBox="0 0 40 40">
		<path fill="url(#icon__stkaave-a)" d="M20 40c11.046 0 20-8.954 20-20S31.046 0 20 0 0 8.954 0 20s8.954 20 20 20z" />
		<path fill="#fff" d="M31.28 10.201L20.308 6.91a.818.818 0 00-.47 0L8.864 10.201a.82.82 0 00-.584.786v12.069a7.796 7.796 0 001.89 4.776 19.524 19.524 0 003.936 3.645 35.303 35.303 0 005.632 3.298.818.818 0 00.666 0 35.31 35.31 0 005.632-3.298 19.524 19.524 0 003.936-3.645 7.795 7.795 0 001.89-4.776v-12.07a.82.82 0 00-.583-.785z" />
		<path fill="url(#paint1_linear)" d="M26.818 25.403L21.621 12.84a1.397 1.397 0 00-1.303-.966h-.46a1.398 1.398 0 00-1.303.966l-2.266 5.467h-1.704a.933.933 0 00-.934.933v.014a.933.933 0 00.934.933h.92l-2.159 5.215a1.1 1.1 0 00-.064.356c-.01.258.082.509.256.7a.896.896 0 00.69.266.933.933 0 00.533-.178c.163-.121.291-.284.37-.471l2.378-5.892h1.646a.934.934 0 00.934-.933v-.02a.934.934 0 00-.934-.934h-.88l1.807-4.513 4.941 12.293c.08.188.207.35.371.471a.933.933 0 00.533.179.898.898 0 00.69-.267.982.982 0 00.256-.7.84.84 0 00-.055-.357z" />
		<defs>
			<linearGradient id="icon__stkaave-a" x1="36.28" x2="6.52" y1="9.08" y2="34.12" gradientUnits="userSpaceOnUse">
				<stop stop-color="#B6509E" />
				<stop offset="1" stop-color="#2EBAC6" />
			</linearGradient>
			<linearGradient id="paint1_linear" x1="22.783" x2="13.181" y1="15.603" y2="25.886" gradientUnits="userSpaceOnUse">
				<stop stop-color="#B6509E" />
				<stop offset="1" stop-color="#2EBAC6" />
			</linearGradient>
		</defs>
	</symbol>
	<symbol id="icon__cream" fill="none" viewBox="0 0 40 40">
		<g clip-path="url(#icon__cream-a)">
			<path fill="#69E2DC" d="M21.61 20.944l7.014 7.013a1.34 1.34 0 01-.133 2.006 12.673 12.673 0 11.048-19.894 1.325 1.325 0 01.085 1.968l-7.019 7.019a1.335 1.335 0 00-.389.965c-.002.184.034.365.107.534.065.162.163.309.288.432v-.043zM20 0a20 20 0 100 40 20 20 0 000-40z" />
		</g>
		<defs>
			<clipPath id="icon__cream-a">
				<path fill="#fff" d="M0 0h40v40H0z" />
			</clipPath>
		</defs>
	</symbol>
	<symbol id="icon__bond" fill="none" viewBox="0 0 40 40">
		<rect width="40" height="40" fill="#FF4339" rx="20" />
		<path fill="#fff" d="M20.075 17.98h-.145c-1.947 0-3.461 1.587-3.461 3.607v3.894l3.533-2.668 3.534 2.668v-3.894c0-1.947-1.587-3.534-3.462-3.606z" />
		<mask id="icon__bond-a" width="30" height="30" x="5" y="5" maskUnits="userSpaceOnUse">
			<circle cx="20" cy="20" r="15" fill="white" />
		</mask>
		<g mask="url(#icon__bond-a)">
			<path fill="#fff" d="M5 5v28.99l9.014-6.706v-7.645l-1.658-1.298L20 12.572l7.644 5.77-1.658 1.297v7.645L35 33.99V5H5z" />
		</g>
	</symbol>
	<symbol id="icon__uniswap" viewBox="0 0 42 44" fill="none">
		<mask id="icon__uniswap__mask" width="30" height="30" x="5" y="7" maskUnits="userSpaceOnUse">
			<circle cx="20" cy="22" r="15" fill="white" />
		</mask>
		<rect y="2" width="40" height="40" rx="20" fill="#FF4339" />
		<path d="M20.0731 19.9805H19.9288C17.9817 19.9805 16.4673 21.567 16.4673 23.5862V27.4805L20.0009 24.8122L23.5346 27.4805V23.5862C23.5346 21.6391 21.9481 20.0526 20.0731 19.9805Z" fill="white" />
		<g mask="url(#icon__uniswap__mask)">
			<path d="M5 7V35.9904L14.0144 29.2837V21.6394L12.3558 20.3413L20 14.5721L27.6442 20.3413L25.9856 21.6394V29.2837L35 35.9904V7H5Z" fill="white" />
		</g>
		<rect x="23" y="1" width="18" height="18" rx="9" fill="#FF4339" stroke="white" stroke-width="2" />
		<path d="M30.1107 4.85275C29.9698 4.82925 29.9638 4.82649 30.0301 4.81553C30.1572 4.79451 30.4572 4.82316 30.664 4.87603C31.1466 4.99944 31.5858 5.31557 32.0546 5.87702L32.1792 6.02617L32.3573 5.99536C33.1079 5.86562 33.8715 5.96874 34.5102 6.28609C34.6859 6.3734 34.9629 6.5472 34.9975 6.59186C35.0086 6.60609 35.0288 6.69771 35.0425 6.79548C35.0899 7.13372 35.0662 7.39298 34.97 7.58663C34.9177 7.692 34.9148 7.7254 34.95 7.81558C34.9781 7.88755 35.0564 7.94081 35.1339 7.9407C35.2926 7.94046 35.4634 7.66449 35.5426 7.2805L35.5741 7.12798L35.6363 7.20386C35.978 7.62021 36.2463 8.18802 36.2924 8.59219L36.3044 8.69757L36.247 8.60177C36.1482 8.43693 36.0488 8.32471 35.9217 8.2342C35.6924 8.07105 35.4501 8.01554 34.8082 7.97915C34.2285 7.94629 33.9004 7.89303 33.575 7.77892C33.0215 7.58479 32.7425 7.32625 32.0849 6.39832C31.7929 5.98617 31.6124 5.75813 31.4328 5.57449C31.0248 5.15721 30.6239 4.93837 30.1107 4.85275Z" fill="white" />
		<path d="M35.1284 5.77278C35.143 5.4966 35.1778 5.31443 35.2478 5.14806C35.2755 5.08222 35.3015 5.02832 35.3055 5.02832C35.3095 5.02832 35.2974 5.07692 35.2787 5.13632C35.2278 5.29778 35.2194 5.51861 35.2545 5.77555C35.299 6.10155 35.3243 6.14859 35.6447 6.50074C35.7949 6.66592 35.9697 6.87424 36.033 6.96368L36.1482 7.12631L36.033 7.01009C35.8921 6.86796 35.5682 6.59077 35.4966 6.55115C35.4486 6.52458 35.4415 6.52504 35.4119 6.55673C35.3846 6.58592 35.3788 6.6298 35.3751 6.83722C35.3692 7.16051 35.3282 7.36801 35.2294 7.57549C35.1759 7.6877 35.1674 7.66375 35.2158 7.53709C35.2519 7.44252 35.2556 7.40095 35.2554 7.08799C35.2548 6.45918 35.1854 6.30801 34.7784 6.04905C34.6754 5.98345 34.5054 5.88884 34.4009 5.83879C34.2964 5.78875 34.2134 5.74516 34.2164 5.7419C34.2279 5.72957 34.6248 5.85417 34.7846 5.92028C35.0222 6.0186 35.0614 6.03135 35.0903 6.01949C35.1097 6.01153 35.119 5.95093 35.1284 5.77278Z" fill="white" />
		<path d="M30.3845 6.84829C30.0984 6.42474 29.9215 5.77534 29.9598 5.28988L29.9716 5.13965L30.0367 5.15243C30.159 5.17641 30.3698 5.26081 30.4685 5.3253C30.7394 5.50225 30.8567 5.73523 30.976 6.33348C31.0109 6.50872 31.0568 6.70702 31.0779 6.77415C31.1118 6.88221 31.2402 7.13462 31.3445 7.29854C31.4197 7.4166 31.3698 7.47255 31.2036 7.45641C30.9499 7.43178 30.6062 7.17663 30.3845 6.84829Z" fill="white" />
		<path d="M34.781 10.0008C33.4444 9.42189 32.9736 8.91941 32.9736 8.07158C32.9736 7.94681 32.9776 7.84473 32.9825 7.84473C32.9874 7.84473 33.0391 7.8859 33.0974 7.93624C33.3685 8.17008 33.672 8.26995 34.5122 8.40181C35.0067 8.47941 35.2849 8.54208 35.5416 8.63364C36.3574 8.92468 36.8622 9.51529 36.9826 10.3197C37.0175 10.5535 36.997 10.9918 36.9403 11.2229C36.8956 11.4053 36.7589 11.7342 36.7227 11.7469C36.7126 11.7504 36.7028 11.7089 36.7002 11.6526C36.6865 11.3505 36.5446 11.0564 36.3063 10.8361C36.0353 10.5857 35.6712 10.3863 34.781 10.0008Z" fill="white" />
		<path d="M33.8429 10.2416C33.8262 10.1344 33.7971 9.99754 33.7784 9.93742L33.7443 9.82812L33.8076 9.9046C33.8953 10.0104 33.9646 10.1459 34.0233 10.3263C34.0681 10.4639 34.0731 10.5049 34.0728 10.7286C34.0725 10.9483 34.0669 10.9943 34.0255 11.1182C33.9602 11.3136 33.8793 11.4522 33.7434 11.6009C33.4992 11.8682 33.1853 12.0162 32.7323 12.0776C32.6536 12.0882 32.4241 12.1062 32.2223 12.1175C31.7138 12.1459 31.3792 12.2047 31.0785 12.3183C31.0352 12.3346 30.9966 12.3446 30.9927 12.3404C30.9805 12.3273 31.1853 12.196 31.3544 12.1084C31.5928 11.9848 31.8302 11.9175 32.362 11.8222C32.6247 11.7751 32.896 11.718 32.9649 11.6953C33.6155 11.4807 33.95 10.927 33.8429 10.2416Z" fill="white" />
		<path d="M34.4558 11.4118C34.2782 11.0012 34.2374 10.6047 34.3347 10.2349C34.3451 10.1954 34.3618 10.1631 34.3719 10.1631C34.382 10.1631 34.4239 10.1875 34.465 10.2172C34.5469 10.2765 34.711 10.3763 35.1482 10.6327C35.6939 10.9527 36.005 11.2005 36.2166 11.4836C36.4019 11.7315 36.5165 12.0139 36.5717 12.3583C36.603 12.5533 36.5846 13.0226 36.5381 13.219C36.3914 13.8383 36.0504 14.3247 35.5641 14.6085C35.4929 14.6501 35.4289 14.6843 35.422 14.6844C35.415 14.6846 35.441 14.6136 35.4797 14.5266C35.6432 14.1588 35.6619 13.801 35.5382 13.4027C35.4625 13.1588 35.308 12.8612 34.9963 12.3583C34.6338 11.7736 34.5449 11.618 34.4558 11.4118Z" fill="white" />
		<path d="M29.4353 13.6276C29.9313 13.1771 30.5484 12.857 31.1106 12.7588C31.3529 12.7164 31.7565 12.7332 31.9809 12.795C32.3405 12.894 32.6622 13.1158 32.8295 13.3799C32.993 13.6381 33.0631 13.8631 33.1362 14.3637C33.165 14.5612 33.1963 14.7595 33.2058 14.8044C33.2607 15.0639 33.3674 15.2712 33.4996 15.3754C33.7097 15.5408 34.0714 15.551 34.4273 15.4017C34.4877 15.3763 34.5401 15.3588 34.5438 15.3628C34.5567 15.3766 34.3775 15.5056 34.2511 15.5735C34.081 15.6649 33.9458 15.7003 33.766 15.7003C33.4401 15.7003 33.1696 15.522 32.9438 15.1583C32.8994 15.0867 32.7995 14.8724 32.7219 14.682C32.4835 14.0971 32.3658 13.919 32.089 13.724C31.8481 13.5544 31.5375 13.5239 31.3038 13.6472C30.9968 13.8091 30.9112 14.2311 31.131 14.4985C31.2184 14.6048 31.3814 14.6964 31.5146 14.7142C31.7639 14.7476 31.9781 14.5436 31.9781 14.2729C31.9781 14.0971 31.9153 13.9968 31.7572 13.92C31.5412 13.8152 31.3091 13.9378 31.3102 14.156C31.3107 14.2491 31.3483 14.3074 31.4351 14.3497C31.4907 14.3768 31.492 14.3789 31.4466 14.3687C31.2485 14.3246 31.2021 14.0676 31.3614 13.897C31.5527 13.6923 31.9482 13.7826 32.084 14.0622C32.1411 14.1796 32.1477 14.4134 32.098 14.5546C31.9866 14.8706 31.662 15.0368 31.3326 14.9464C31.1084 14.8847 31.0171 14.8181 30.7467 14.5186C30.277 13.998 30.0946 13.8972 29.4174 13.7835L29.2876 13.7617L29.4353 13.6276Z" fill="white" />
		<path d="M27.231 4.31134C28.7998 6.35946 29.8803 7.20447 30.0004 7.383C30.0996 7.53042 30.0622 7.66294 29.8924 7.76681C29.798 7.82456 29.6038 7.88307 29.5065 7.88307C29.3966 7.88307 29.3588 7.83744 29.3588 7.83744C29.2951 7.77239 29.2592 7.78376 28.9317 7.1586C28.4772 6.39988 28.0967 5.77049 28.0864 5.75995C28.0624 5.73558 28.0628 5.7364 28.8854 7.31961C29.0183 7.64959 28.9118 7.77072 28.9118 7.81771C28.9118 7.91332 28.8876 7.96357 28.7779 8.09513C28.5951 8.31446 28.5134 8.56091 28.4545 9.07096C28.3883 9.64272 28.2024 10.0466 27.6871 10.7378C27.3855 11.1425 27.3362 11.2166 27.26 11.3797C27.1642 11.5851 27.1378 11.7001 27.1271 11.9594C27.1158 12.2337 27.1378 12.4108 27.2157 12.673C27.2839 12.9025 27.3551 13.054 27.537 13.3571C27.694 13.6187 27.7844 13.8131 27.7844 13.8892C27.7844 13.9497 27.7952 13.9498 28.0385 13.8906C28.6207 13.7492 29.0935 13.5005 29.3594 13.1956C29.524 13.0069 29.5626 12.9027 29.5639 12.6443C29.5647 12.4751 29.5592 12.4397 29.5167 12.3424C29.4475 12.184 29.3215 12.0524 29.0439 11.8483C28.6802 11.5808 28.5249 11.3655 28.482 11.0694C28.4468 10.8264 28.4876 10.655 28.6888 10.2014C28.8971 9.73183 28.9487 9.53174 28.9836 9.05847C29.0061 8.7527 29.0374 8.63211 29.119 8.53532C29.2042 8.43438 29.2809 8.4002 29.4917 8.36922C29.8354 8.31872 30.0542 8.22308 30.2341 8.04478C30.3902 7.8901 30.4555 7.74106 30.4655 7.5167L30.4731 7.34664L30.3859 7.23728C30.0701 6.84121 27.0196 4 27.0001 4C26.996 4 27.0999 4.14011 27.231 4.31134ZM27.9617 12.2697C28.0331 12.1337 27.9952 11.9589 27.8757 11.8734C27.7629 11.7927 27.5876 11.8308 27.5876 11.9359C27.5876 11.968 27.6041 11.9914 27.6413 12.012C27.7039 12.0466 27.7084 12.0856 27.6592 12.1652C27.6093 12.2459 27.6133 12.3168 27.6705 12.365C27.7628 12.4427 27.8933 12.4 27.9617 12.2697Z" fill="white" />
		<path d="M30.6902 8.45861C30.5288 8.51197 30.372 8.69607 30.3234 8.88912C30.2938 9.00689 30.3106 9.21347 30.355 9.27727C30.4267 9.38032 30.496 9.40747 30.6837 9.40605C31.0511 9.40329 31.3705 9.23362 31.4076 9.02152C31.4381 8.84766 31.2978 8.6067 31.1046 8.50092C31.0048 8.44636 30.7928 8.42471 30.6902 8.45861ZM31.1197 8.82023C31.1764 8.73355 31.1516 8.63986 31.0552 8.5765C30.8717 8.45585 30.5942 8.55569 30.5942 8.74235C30.5942 8.83526 30.7389 8.93664 30.8716 8.93664C30.9599 8.93664 31.0807 8.87995 31.1197 8.82023Z" fill="white" />
		<path d="M32 43C36.9856 43 41 38.9856 41 34C41 29.0144 36.9856 25 32 25C27.0144 25 23 29.0144 23 34C23 38.9856 27.0144 43 32 43Z" fill="#FF4339" stroke="white" stroke-width="2" />
		<path d="M34.2 35.2664C34.2 34.0998 33.5 33.6998 32.1 33.5331C31.1 33.3998 30.9 33.1331 30.9 32.6664C30.9 32.1997 31.2334 31.8998 31.9 31.8998C32.5 31.8998 32.8334 32.0998 33 32.5998C33.0334 32.6998 33.1334 32.7664 33.2334 32.7664H33.7667C33.9 32.7664 34 32.6664 34 32.5331V32.4998C33.8667 31.7664 33.2667 31.1998 32.5 31.1331V30.3331C32.5 30.1998 32.4 30.0998 32.2334 30.0664H31.7334C31.6 30.0664 31.5 30.1664 31.4667 30.3331V31.0998C30.4667 31.2331 29.8334 31.8998 29.8334 32.7331C29.8334 33.8331 30.5 34.2664 31.9 34.4331C32.8334 34.5998 33.1334 34.7998 33.1334 35.3331C33.1334 35.8665 32.6667 36.2331 32.0334 36.2331C31.1667 36.2331 30.8667 35.8664 30.7667 35.3664C30.7334 35.2331 30.6334 35.1664 30.5334 35.1664H29.9667C29.8334 35.1664 29.7334 35.2664 29.7334 35.3998V35.4331C29.8667 36.2664 30.4 36.8664 31.5 37.0331V37.8331C31.5 37.9664 31.6 38.0664 31.7667 38.0998H32.2667C32.4 38.0998 32.5 37.9998 32.5334 37.8331V37.0331C33.5334 36.8664 34.2 36.1664 34.2 35.2664Z" fill="white" />
		<path d="M30.3002 38.7663C27.7002 37.833 26.3668 34.933 27.3335 32.3663C27.8335 30.9663 28.9335 29.8996 30.3002 29.3996C30.4335 29.333 30.5002 29.233 30.5002 29.0663V28.5996C30.5002 28.4663 30.4335 28.3663 30.3002 28.333C30.2668 28.333 30.2002 28.333 30.1668 28.3663C27.0002 29.3663 25.2668 32.733 26.2668 35.8996C26.8668 37.7663 28.3002 39.1996 30.1668 39.7996C30.3002 39.8663 30.4335 39.7996 30.4668 39.6663C30.5002 39.633 30.5002 39.5996 30.5002 39.533V39.0663C30.5002 38.9663 30.4002 38.833 30.3002 38.7663ZM33.8335 28.3663C33.7002 28.2996 33.5668 28.3663 33.5335 28.4996C33.5002 28.533 33.5002 28.5663 33.5002 28.633V29.0996C33.5002 29.233 33.6002 29.3663 33.7002 29.433C36.3002 30.3663 37.6335 33.2663 36.6668 35.833C36.1668 37.233 35.0668 38.2996 33.7002 38.7996C33.5668 38.8663 33.5002 38.9663 33.5002 39.133V39.5996C33.5002 39.733 33.5668 39.833 33.7002 39.8663C33.7335 39.8663 33.8002 39.8663 33.8335 39.833C37.0002 38.833 38.7335 35.4663 37.7335 32.2996C37.1335 30.3996 35.6668 28.9663 33.8335 28.3663Z" fill="white" />
	</symbol>
	<symbol id="icon__rai" fill="none" viewBox="0 0 760 760">
		<path fill="#192123" d="M760 380c0 209.868-170.132 380-380 380S0 589.868 0 380 170.132 0 380 0s380 170.132 380 380z" />
		<path fill="url(#icon__rai-g)" fill-rule="evenodd" d="M380 730c193.3 0 350-156.7 350-350S573.3 30 380 30 30 186.7 30 380s156.7 350 350 350zm0 30c209.868 0 380-170.132 380-380S589.868 0 380 0 0 170.132 0 380s170.132 380 380 380z" clip-rule="evenodd" />
		<path fill="#68FEE2" d="M207.719 338.344l14.63-43.89a9.996 9.996 0 014.253-5.359l204.606-125.657c14.988-9.205 33.703 4.027 30.024 21.226l-8.036 37.569a55.012 55.012 0 01-8.02 19.004L296.299 464.552c-8.559 12.838-27.816 11.56-34.603-2.297l-52.914-108.034a20.998 20.998 0 01-1.063-15.877z" />
		<path fill="#68FEE2" d="M207.719 338.344l14.63-43.89a9.996 9.996 0 014.253-5.359l204.606-125.657c14.988-9.205 33.703 4.027 30.024 21.226l-8.036 37.569a55.012 55.012 0 01-8.02 19.004L296.299 464.552c-8.559 12.838-27.816 11.56-34.603-2.297l-52.914-108.034a20.998 20.998 0 01-1.063-15.877z" />
		<path fill="#68FEE2" d="M207.719 338.344l14.63-43.89a9.996 9.996 0 014.253-5.359l204.606-125.657c14.988-9.205 33.703 4.027 30.024 21.226l-8.036 37.569a55.012 55.012 0 01-8.02 19.004L296.299 464.552c-8.559 12.838-27.816 11.56-34.603-2.297l-52.914-108.034a20.998 20.998 0 01-1.063-15.877z" />
		<mask id="icon__rai-a" width="256" height="314" x="206" y="160" maskUnits="userSpaceOnUse">
			<path fill="#68FEE2" d="M207.719 338.344l14.63-43.89a9.996 9.996 0 014.253-5.359l204.606-125.657c14.988-9.205 33.703 4.027 30.024 21.226l-8.036 37.569a55.012 55.012 0 01-8.02 19.004L296.299 464.552c-8.559 12.838-27.816 11.56-34.603-2.297l-52.914-108.034a20.998 20.998 0 01-1.063-15.877z" />
		</mask>
		<g mask="url(#icon__rai-a)">
			<path fill="#26CEAE" d="M277 490.5l-54-203 142.5-85 120 12-208.5 276z" />
		</g>
		<path fill="#A5E9DC" d="M328 413l-33-142 30.5-18L351 361.5 328 413zM371 342.5L351.5 258l15-10.5 14 59.5-9.5 35.5z" />
		<mask id="icon__rai-b" width="256" height="314" x="206" y="160" maskUnits="userSpaceOnUse">
			<path fill="#68FEE2" d="M207.719 338.344l14.63-43.89a9.996 9.996 0 014.253-5.359l204.606-125.657c14.988-9.205 33.703 4.027 30.024 21.226l-8.036 37.569a55.012 55.012 0 01-8.02 19.004L296.299 464.552c-8.559 12.838-27.816 11.56-34.603-2.297l-52.914-108.034a20.998 20.998 0 01-1.063-15.877z" />
		</mask>
		<g mask="url(#icon__rai-b)">
			<path fill="#19898A" d="M428.5 242.5l-207 48.5-10-6.5L394 163l80-12.5-45.5 92z" />
		</g>
		<mask id="icon__rai-c" width="256" height="314" x="206" y="160" maskUnits="userSpaceOnUse">
			<path fill="#68FEE2" d="M207.719 338.344l14.63-43.89a9.996 9.996 0 014.253-5.359l204.606-125.657c14.988-9.205 33.703 4.027 30.024 21.226l-8.036 37.569a55.012 55.012 0 01-8.02 19.004L296.299 464.552c-8.559 12.838-27.816 11.56-34.603-2.297l-52.914-108.034a20.998 20.998 0 01-1.063-15.877z" />
		</mask>
		<g mask="url(#icon__rai-c)">
			<path fill="#68FEE2" d="M283 483.5L459.5 163l81.5 4.5-209.5 284-48.5 32z" />
		</g>
		<path fill="#68FEE2" d="M551.281 419.156l-14.63 43.89a9.996 9.996 0 01-4.253 5.359L327.792 594.062c-14.988 9.205-33.703-4.027-30.024-21.226l8.036-37.569a55.012 55.012 0 018.02-19.004l148.877-223.315c8.559-12.838 27.816-11.56 34.603 2.297l52.914 108.034a20.993 20.993 0 011.063 15.877z" />
		<path fill="#68FEE2" d="M551.281 419.156l-14.63 43.89a9.996 9.996 0 01-4.253 5.359L327.792 594.062c-14.988 9.205-33.703-4.027-30.024-21.226l8.036-37.569a55.012 55.012 0 018.02-19.004l148.877-223.315c8.559-12.838 27.816-11.56 34.603 2.297l52.914 108.034a20.993 20.993 0 011.063 15.877z" />
		<path fill="#68FEE2" d="M551.281 419.156l-14.63 43.89a9.996 9.996 0 01-4.253 5.359L327.792 594.062c-14.988 9.205-33.703-4.027-30.024-21.226l8.036-37.569a55.012 55.012 0 018.02-19.004l148.877-223.315c8.559-12.838 27.816-11.56 34.603 2.297l52.914 108.034a20.993 20.993 0 011.063 15.877z" />
		<mask id="icon__rai-d" width="256" height="314" x="297" y="284" maskUnits="userSpaceOnUse">
			<path fill="#68FEE2" d="M551.281 419.156l-14.63 43.89a9.996 9.996 0 01-4.253 5.359L327.792 594.062c-14.988 9.205-33.703-4.027-30.024-21.226l8.036-37.569a55.012 55.012 0 018.02-19.004l148.877-223.315c8.559-12.838 27.816-11.56 34.603 2.297l52.914 108.034a20.993 20.993 0 011.063 15.877z" />
		</mask>
		<g mask="url(#icon__rai-d)">
			<path fill="#26CEAE" d="M482 267l54 203-142.5 85-120-12L482 267z" />
		</g>
		<mask id="icon__rai-e" width="256" height="314" x="297" y="284" maskUnits="userSpaceOnUse">
			<path fill="#68FEE2" d="M551.281 419.156l-14.63 43.89a9.996 9.996 0 01-4.253 5.359L327.792 594.062c-14.988 9.205-33.703-4.027-30.024-21.226l8.036-37.569a55.012 55.012 0 018.02-19.004l148.877-223.315c8.559-12.838 27.816-11.56 34.603 2.297l52.914 108.034a20.993 20.993 0 011.063 15.877z" />
		</mask>
		<g mask="url(#icon__rai-e)">
			<path fill="#19898A" d="M330.5 515l207-48.5 10 6.5L365 594.5 285 607l45.5-92z" />
		</g>
		<path fill="#A5E9DC" d="M434.5 343.5L444 326l64 36 7.5 25.5-81-44zM407.5 391l16-24L524 421l10.5 39-127-69z" />
		<mask id="icon__rai-f" width="256" height="314" x="297" y="284" maskUnits="userSpaceOnUse">
			<path fill="#68FEE2" d="M551.281 419.156l-14.63 43.89a9.996 9.996 0 01-4.253 5.359L327.792 594.062c-14.988 9.205-33.703-4.027-30.024-21.226l8.036-37.569a55.012 55.012 0 018.02-19.004l148.877-223.315c8.559-12.838 27.816-11.56 34.603 2.297l52.914 108.034a20.993 20.993 0 011.063 15.877z" />
		</mask>
		<g mask="url(#icon__rai-f)">
			<path fill="#68FEE2" d="M476 274L299.5 594.5 218 590l209.5-284 48.5-32z" />
		</g>
		<path fill="#fff" d="M251 271c16.372-3.684 21.488-16.202 22-22v22h-22zM251 271c16.372 3.684 21.488 16.202 22 22v-22h-22zM295 271c-16.372-3.684-21.488-16.202-22-22v22h22zM295 271c-16.372 3.684-21.488 16.202-22 22v-22h22zM337 291c8.186-1.842 10.744-8.101 11-11v11h-11zM337 291c8.186 1.842 10.744 8.101 11 11v-11h-11zM359 291c-8.186-1.842-10.744-8.101-11-11v11h11zM359 291c-8.186 1.842-10.744 8.101-11 11v-11h11zM399 512c8.186-1.842 10.744-8.101 11-11v11h-11zM399 512c8.186 1.842 10.744 8.101 11 11v-11h-11zM421 512c-8.186-1.842-10.744-8.101-11-11v11h11zM421 512c-8.186 1.842-10.744 8.101-11 11v-11h11z" />
		<defs>
			<linearGradient id="icon__rai-g" x1="0" x2="760" y1="0" y2="760" gradientUnits="userSpaceOnUse">
				<stop stop-color="#192123" />
				<stop offset="1" stop-color="#399886" />
			</linearGradient>
		</defs>
	</symbol>
	<symbol id="icon__xsushi" fill="none" viewBox="0 0 40 40">
		<rect width="40" height="40" fill="#000" rx="20" />
		<path fill="#fff" stroke="#fff" d="m33.028 24.037-.002.002-5.022 7c-.934 1.314-2.682 1.863-4.764 1.692-2.688-.222-6.18-1.629-9.495-4.006-3.314-2.379-5.768-5.236-6.852-7.706l-.001-.003c-.826-1.915-.87-3.739.076-5.053l5.011-7.001.001-.001c.945-1.31 2.69-1.861 4.762-1.69l16.286 16.766Zm0 0c.93-1.31.902-3.133.062-5.053-1.073-2.472-3.527-5.329-6.84-7.706-3.315-2.377-6.82-3.785-9.507-4.007l16.285 16.766ZM16.53 9.914c2.225.183 5.229 1.41 8.169 3.519 2.939 2.106 5.068 4.56 5.964 6.607.503 1.176.552 1.974.206 2.454l-5.024 7.002-.002.003c-.336.476-1.106.695-2.38.589-2.226-.183-5.241-1.411-8.181-3.518-2.94-2.108-5.07-4.563-5.952-6.607l-.001-.002c-.513-1.17-.552-1.972-.206-2.451l.001-.002 5.01-7 .001-.001c.348-.482 1.123-.698 2.395-.593Z" />
		<path fill="#fff" fill-rule="evenodd" d="M13.067 9.905c1.639-2.288 7.193-1.113 12.404 2.62 5.212 3.734 8.113 8.624 6.474 10.911l-5.011 7.002c-1.64 2.288-7.205 1.113-12.417-2.621s-8.112-8.623-6.473-10.91l5.023-7.002Z" clip-rule="evenodd" />
		<path fill="#0E0F23" fill-rule="evenodd" d="M12.702 9.48c.73-1.02 2.139-1.47 3.961-1.324 2.516.207 5.846 1.556 9.054 3.84 3.196 2.297 5.541 5.031 6.538 7.34.729 1.677.753 3.16.024 4.18l-5.007 7c-.729 1.02-2.15 1.47-3.961 1.324-2.516-.218-5.858-1.555-9.053-3.852-3.209-2.284-5.542-5.018-6.55-7.327-.73-1.677-.754-3.16-.025-4.18l5.019-7Zm18.884 13.526c.584-.802.462-1.993-.11-3.33-.96-2.2-3.207-4.788-6.27-6.975-3.05-2.187-6.221-3.488-8.615-3.682-1.459-.122-2.613.146-3.196.96l-.025.049c-.546.814-.425 1.968.146 3.28.96 2.212 3.208 4.8 6.259 6.988 3.05 2.187 6.221 3.488 8.615 3.682 1.434.11 2.564-.146 3.16-.911l.036-.061Zm-7.801-8.324c1.53 1.094 2.66 2.394 3.135 3.5.28.62.352 1.166.073 1.543-.268.377-.814.486-1.483.425-1.203-.097-2.783-.753-4.314-1.847-1.53-1.094-2.661-2.382-3.135-3.488-.267-.62-.34-1.166-.073-1.543s.814-.486 1.495-.437c1.19.11 2.783.753 4.302 1.847Z" clip-rule="evenodd" />
		<path fill="url(#icon__xsushi-a)" fill-rule="evenodd" d="M11.324 25.557c-1.7-1.65-2.951-3.364-3.617-4.897-.728-1.677-.753-3.158-.024-4.176l5.018-7.002c.729-1.018 2.14-1.47 3.961-1.32 2.515.208 5.85 1.548 9.051 3.842 3.202 2.294 5.542 5.022 6.547 7.336.087.2.165.399.231.593a2.404 2.404 0 0 0-.875-.246c-.05-.005-.1-.009-.148-.01-.96-2.206-3.207-4.788-6.256-6.973-3.052-2.188-6.223-3.486-8.62-3.683-1.454-.12-2.61.15-3.192.963l-.035.048c-.543.811-.421 1.972.148 3.284.958 2.207 3.207 4.792 6.26 6.98 2.482 1.778 5.043 2.97 7.203 3.458-.877 1.229-1.82 2.32-3.06 2.567-1.081.216-2.15-.27-3.129-1.376-1.017-1.148-1.843-2.784-3.007-3.048-2.088-.473-3.95 3.12-6.016 3.587a3.707 3.707 0 0 1-.44.073Zm12.465-10.868c1.528 1.094 2.656 2.385 3.136 3.49.27.622.344 1.17.073 1.549-.27.378-.814.484-1.49.428-1.2-.099-2.785-.752-4.313-1.847-1.527-1.094-2.655-2.385-3.135-3.49-.27-.622-.344-1.17-.073-1.549.27-.378.814-.484 1.49-.428 1.2.099 2.785.752 4.312 1.847Z" clip-rule="evenodd" />
		<path fill="#fff" fill-rule="evenodd" d="M27.181 24.94c.948.157 1.823.194 2.552.072a.189.189 0 0 0 .158-.207c-.024-.097-.11-.17-.206-.157-.705.121-1.531.085-2.443-.073a.189.189 0 0 0-.206.158c-.012.097.048.194.145.206Zm-1.434-.317c.243.061.474.122.717.17.098.025.195-.036.207-.133a.181.181 0 0 0-.134-.22c-.23-.048-.461-.109-.692-.17a.178.178 0 0 0-.231.122c-.024.098.036.195.133.231ZM12.174 13.115c.68 2.783 3.354 5.384 5.505 7.23.073.074.194.062.255-.011.06-.085.06-.195-.025-.256-2.09-1.81-4.714-4.338-5.37-7.048-.025-.097-.134-.158-.232-.133a.181.181 0 0 0-.133.218Zm-.158-1.118c0 .122.012.255.024.377.012.097.11.17.207.158a.177.177 0 0 0 .158-.194c-.012-.122-.025-.243-.025-.353 0-.11-.085-.182-.194-.182a.196.196 0 0 0-.17.194Z" clip-rule="evenodd" />
		<defs>
			<linearGradient id="icon__xsushi-a" x1="22.796" x2="22.594" y1="28.035" y2="-6.442" gradientUnits="userSpaceOnUse">
				<stop stop-color="#FFCE66" />
				<stop offset="1" stop-color="#FF6650" />
			</linearGradient>
		</defs>
	</symbol>
  <symbol id="icon__sushi" viewBox="0 0 24 24">
    <defs>
      <path id="icon__sushi-a" d="M0 0h24v24H0z"/>
    </defs>
    <clipPath id="icon__sushi-b">
      <use xlink:href="#icon__sushi-a" overflow="visible"/>
    </clipPath>
    <g clip-path="url(#icon__sushi-b)">
      <linearGradient id="icon__sushi-c" x1="20.644" x2="24.333" y1="1011.506" y2="998.84" gradientTransform="matrix(1 0 0 -1 -12 1012)" gradientUnits="userSpaceOnUse">
        <stop offset="0" stop-color="#03b8ff"/>
        <stop offset="1" stop-color="#fa52a0"/>
      </linearGradient>
      <path fill="url(#icon__sushi-c)" d="M5 2.3 23.6 15 19 21.8.4 9 5 2.3z"/>
      <linearGradient id="icon__sushi-d" x1="23.682" x2="27.37" y1="1012.39" y2="999.724" gradientTransform="matrix(1 0 0 -1 -12 1012)" gradientUnits="userSpaceOnUse">
        <stop offset="0" stop-color="#03b8ff"/>
        <stop offset="1" stop-color="#fa52a0"/>
      </linearGradient>
      <path fill="url(#icon__sushi-d)" d="M23.6 15c-1.6 2.3-7 1.4-12.1-2.2C6.3 9.3 3.5 4.6 5 2.3 6.6 0 12 .9 17.1 4.5c5.2 3.4 8 8.2 6.5 10.5z"/>
      <linearGradient id="icon__sushi-e" x1="17.616" x2="21.305" y1="1010.624" y2="997.958" gradientTransform="matrix(1 0 0 -1 -12 1012)" gradientUnits="userSpaceOnUse">
        <stop offset="0" stop-color="#03b8ff"/>
        <stop offset="1" stop-color="#fa52a0"/>
      </linearGradient>
      <path fill="url(#icon__sushi-e)" d="M19 21.7c-1.6 2.3-7 1.4-12.1-2.2s-8-8.2-6.4-10.6c1.6-2.3 7-1.4 12.1 2.2s7.9 8.3 6.4 10.6z"/>
      <path fill="#0e0f23" d="M23.6 15 19 21.8c-1.6 2.3-7 1.3-12.1-2.2-1-.7-1.9-1.4-2.8-2.2.7-.1 1.6-.5 2.5-1.5 1.6-1.7 2.4-2.1 3.1-2 .7 0 1.5.7 2.8 2.4 1.3 1.7 3.1 2.2 4.2 1.3.1-.1.2-.1.3-.2.9-.7 1.2-1 2.9-4.2.4-.8 1.8-2.1 3.7-1.5.5 1.3.5 2.4 0 3.3z"/>
      <path fill="#fff" fill-rule="evenodd" d="M22.9 14.6c-1.4 2-6.3 1-11-2.3C7.1 9 4.3 4.8 5.7 2.8s6.3-1 11 2.3 7.5 7.5 6.2 9.5zm-4.4-3c-.7 1-3.1.5-5.5-1.1-2.3-1.6-3.7-3.7-3-4.7.7-1 3.1-.5 5.5 1.1 2.3 1.6 3.7 3.7 3 4.7z" clip-rule="evenodd"/>
      <path fill="#fff" d="M4.6 4.6c0-.1-.1-.2-.2-.1s-.2.1-.2.2c.1.3.2.5.2.7 0 .1.1.2.2.1.1 0 .2-.1.1-.2 0-.2 0-.4-.1-.7zm.5 1.6c0-.1-.1-.2-.2-.1s-.1.1-.1.2c1.1 2.5 3.4 5.2 6.4 7.2.1.1.2 0 .3 0 .1-.1 0-.2 0-.3-3.1-2-5.3-4.6-6.4-7zM17.2 16c-.1 0-.2 0-.2.1s0 .2.1.2c.3.1.7.2 1 .3.1 0 .2 0 .2-.1s0-.2-.1-.2c-.3-.1-.7-.2-1-.3zm1.8.4c-.1 0-.2.1-.2.2s.1.2.2.2c.8.1 1.7.2 2.4.1.1 0 .2-.1.2-.2s-.1-.2-.2-.2c-.8.1-1.6 0-2.4-.1z"/>
    </g>
  </symbol>
</svg>
